SplineFontDB: 3.2
FontName: CascaFlott-Regular
FullName: CascaFlott Regular
FamilyName: CascaFlott
Weight: Regular
Copyright: Copyright 2020 Microsoft Corporation. All Rights Reserved.
Version: 2005.150
ItalicAngle: 0
UnderlinePosition: -125
UnderlineWidth: 50
Ascent: 1638
Descent: 410
InvalidEm: 0
sfntRevision: 0x07d52666
LayerCount: 2
Layer: 0 0 "Back" 1
Layer: 1 0 "Fore" 0
XUID: [1021 987 -1864705508 1687787]
StyleMap: 0x0040
FSType: 0
OS2Version: 4
OS2_WeightWidthSlopeOnly: 0
OS2_UseTypoMetrics: 1
CreationTime: 1554657509
ModificationTime: 1641477772
PfmFamily: 17
TTFWeight: 400
TTFWidth: 5
LineGap: 0
VLineGap: 0
Panose: 2 11 6 9 2 0 0 2 0 4
OS2TypoAscent: 1900
OS2TypoAOffset: 0
OS2TypoDescent: -480
OS2TypoDOffset: 0
OS2TypoLinegap: 0
OS2WinAscent: 2226
OS2WinAOffset: 0
OS2WinDescent: 480
OS2WinDOffset: 0
HheadAscent: 1900
HheadAOffset: 0
HheadDescent: -480
HheadDOffset: 0
OS2SubXSize: 1331
OS2SubYSize: 1229
OS2SubXOff: 0
OS2SubYOff: 154
OS2SupXSize: 1331
OS2SupYSize: 1229
OS2SupXOff: 0
OS2SupYOff: 717
OS2StrikeYSize: 50
OS2StrikeYPos: 636
OS2CapHeight: 1420
OS2XHeight: 1060
OS2Vendor: 'SAJA'
OS2CodePages: 6000019f.dfd70000
OS2UnicodeRanges: a10002ff.0000f8fb.00040000.00000000
Lookup: 1 0 0 "'aalt' Access All Alternates lookup 0" { "'aalt' Access All Alternates lookup 0 subtable"  } ['aalt' ('DFLT' <'dflt' > 'cyrl' <'BGR ' 'SRB ' 'dflt' > 'latn' <'CAT ' 'MOL ' 'NLD ' 'PLK ' 'ROM ' 'dflt' > ) ]
Lookup: 3 0 0 "'aalt' Access All Alternates lookup 1" { "'aalt' Access All Alternates lookup 1 subtable"  } ['aalt' ('DFLT' <'dflt' > 'cyrl' <'BGR ' 'SRB ' 'dflt' > 'latn' <'CAT ' 'MOL ' 'NLD ' 'PLK ' 'ROM ' 'dflt' > ) ]

StartChar: .notdef
Encoding: 65536 -1 0
Width: 1200
Flags: MW
HStem: 0 190<340 860 340 1072> 1230 190<340 860 340 340>
VStem: 128 212<190 190 190 1230> 860 212<190 1230 1230 1230>
LayerCount: 2
Fore
SplineSet
128 0 m 1
 128 1420 l 1
 1072 1420 l 1
 1072 0 l 1
 128 0 l 1
340 190 m 1
 860 190 l 1
 860 1230 l 1
 340 1230 l 1
 340 190 l 1
EndSplineSet
EndChar

StartChar: A
Encoding: 65 65 1
Width: 1200
GlyphClass: 2
Flags: MW
HStem: 0 21G<45 45 45 255 945 945 945 1155> 346 190<399 801 399 852 348 801> 1248 172<591 591 591 609>
VStem: 45 1110<0 0>
AnchorPoint: "Anchor-3" 1080 10 basechar 0
AnchorPoint: "Anchor-2" 600 0 basechar 0
AnchorPoint: "Anchor-0" 600 1420 basechar 0
LayerCount: 2
Fore
SplineSet
45 0 m 1
 455 1420 l 1
 745 1420 l 1
 1155 0 l 1
 945 0 l 1
 852 346 l 1
 348 346 l 1
 255 0 l 1
 45 0 l 1
591 1248 m 1
 399 536 l 1
 801 536 l 1
 609 1248 l 1
 591 1248 l 1
EndSplineSet
Substitution2: "Single Substitution lookup 378 subtable" ordfeminine
Substitution2: "'aalt' Access All Alternates lookup 0 subtable" ordfeminine
EndChar

StartChar: Aacute
Encoding: 193 193 2
Width: 1200
GlyphClass: 2
Flags: MW
HStem: 0 21G<45 45 45 255 945 945 945 1155> 346 190<399 801 399 852 348 801> 1248 172<591 591 591 609> 1580 250<469 971 689 711>
VStem: 45 1110<0 0>
AnchorPoint: "Anchor-3" 1080 10 basechar 0
AnchorPoint: "Anchor-2" 600 0 basechar 0
AnchorPoint: "Anchor-0" 600 1420 basechar 0
LayerCount: 2
Fore
SplineSet
469 1580 m 1
 689 1830 l 1
 971 1830 l 1
 711 1580 l 1
 469 1580 l 1
45 0 m 1
 455 1420 l 1
 745 1420 l 1
 1155 0 l 1
 945 0 l 1
 852 346 l 1
 348 346 l 1
 255 0 l 1
 45 0 l 1
591 1248 m 1
 399 536 l 1
 801 536 l 1
 609 1248 l 1
 591 1248 l 1
EndSplineSet
EndChar

StartChar: Abreve
Encoding: 258 258 3
Width: 1200
GlyphClass: 2
Flags: MW
HStem: 0 21G<45 45 45 255 945 945 945 1155> 346 190<399 801 399 852 348 801> 1248 172<591 591 591 609> 1570 136<559 641 559 696.5> 1570 290<296 696.5>
VStem: 296 175<1811 1860 1811 1860> 729 175<1811 1860>
AnchorPoint: "Anchor-3" 1080 10 basechar 0
AnchorPoint: "Anchor-2" 600 0 basechar 0
AnchorPoint: "Anchor-0" 600 1742 basechar 0
LayerCount: 2
Fore
SplineSet
600 1570 m 0xf6
 407 1570 296 1676 296 1860 c 1
 471 1860 l 1xee
 471 1762 518 1706 600 1706 c 0xf6
 682 1706 729 1762 729 1860 c 1
 904 1860 l 1xee
 904 1676 793 1570 600 1570 c 0xf6
45 0 m 1
 455 1420 l 1
 745 1420 l 1
 1155 0 l 1
 945 0 l 1
 852 346 l 1
 348 346 l 1
 255 0 l 1
 45 0 l 1
591 1248 m 1
 399 536 l 1
 801 536 l 1
 609 1248 l 1
 591 1248 l 1
EndSplineSet
EndChar

StartChar: uni1EAE
Encoding: 7854 7854 4
Width: 1200
GlyphClass: 2
Flags: MW
HStem: 0 21G<45 45 45 255 945 945 945 1155> 346 190<399 801 399 852 348 801> 1248 172<591 591 591 609> 1570 136<559 641 559 696.5> 1570 290<296 696.5> 1902 250<469 971 689 711>
VStem: 296 175<1811 1860 1811 1860> 729 175<1811 1860>
AnchorPoint: "Anchor-3" 1080 10 basechar 0
AnchorPoint: "Anchor-2" 600 0 basechar 0
AnchorPoint: "Anchor-0" 600 1742 basechar 0
LayerCount: 2
Fore
SplineSet
469 1902 m 1xf7
 689 2152 l 1
 971 2152 l 1
 711 1902 l 1
 469 1902 l 1xf7
600 1570 m 0
 407 1570 296 1676 296 1860 c 1
 471 1860 l 1xef
 471 1762 518 1706 600 1706 c 0xf7
 682 1706 729 1762 729 1860 c 1
 904 1860 l 1xef
 904 1676 793 1570 600 1570 c 0
45 0 m 1
 455 1420 l 1
 745 1420 l 1
 1155 0 l 1
 945 0 l 1
 852 346 l 1
 348 346 l 1
 255 0 l 1
 45 0 l 1
591 1248 m 1
 399 536 l 1
 801 536 l 1
 609 1248 l 1
 591 1248 l 1
EndSplineSet
EndChar

StartChar: uni1EB6
Encoding: 7862 7862 5
Width: 1200
GlyphClass: 2
Flags: MW
HStem: -420 268<563 637> 0 21G<45 45 45 255 945 945 945 1155> 346 190<399 801 399 852 348 801> 1248 172<591 591 591 609> 1570 136<559 641 559 696.5> 1570 290<296 696.5>
VStem: 296 175<1811 1860 1811 1860> 466 268<-323 -248.5> 729 175<1811 1860>
AnchorPoint: "Anchor-3" 1080 10 basechar 0
AnchorPoint: "Anchor-2" 600 0 basechar 0
AnchorPoint: "Anchor-0" 600 1742 basechar 0
LayerCount: 2
Fore
SplineSet
600 1570 m 0x7a80
 407 1570 296 1676 296 1860 c 1
 471 1860 l 1x7680
 471 1762 518 1706 600 1706 c 0x7a80
 682 1706 729 1762 729 1860 c 1
 904 1860 l 1x7680
 904 1676 793 1570 600 1570 c 0x7a80
45 0 m 1
 455 1420 l 1
 745 1420 l 1
 1155 0 l 1
 945 0 l 1
 852 346 l 1
 348 346 l 1
 255 0 l 1
 45 0 l 1
591 1248 m 1
 399 536 l 1
 801 536 l 1
 609 1248 l 1
 591 1248 l 1
600 -420 m 0xf9
 526 -420 466 -360 466 -286 c 0
 466 -211 526 -152 600 -152 c 0
 674 -152 734 -211 734 -286 c 0
 734 -360 674 -420 600 -420 c 0xf9
EndSplineSet
EndChar

StartChar: uni1EB0
Encoding: 7856 7856 6
Width: 1200
GlyphClass: 2
Flags: MW
HStem: 0 21G<45 45 45 255 945 945 945 1155> 346 190<399 801 399 852 348 801> 1248 172<591 591 591 609> 1570 136<559 641 559 696.5> 1570 290<296 696.5> 1902 250<499 499 499 521 239 741>
VStem: 296 175<1811 1860 1811 1860> 729 175<1811 1860>
AnchorPoint: "Anchor-3" 1080 10 basechar 0
AnchorPoint: "Anchor-2" 600 0 basechar 0
AnchorPoint: "Anchor-0" 600 1742 basechar 0
LayerCount: 2
Fore
SplineSet
499 1902 m 1xf7
 239 2152 l 1
 521 2152 l 1
 741 1902 l 1
 499 1902 l 1xf7
600 1570 m 0
 407 1570 296 1676 296 1860 c 1
 471 1860 l 1xef
 471 1762 518 1706 600 1706 c 0xf7
 682 1706 729 1762 729 1860 c 1
 904 1860 l 1xef
 904 1676 793 1570 600 1570 c 0
45 0 m 1
 455 1420 l 1
 745 1420 l 1
 1155 0 l 1
 945 0 l 1
 852 346 l 1
 348 346 l 1
 255 0 l 1
 45 0 l 1
591 1248 m 1
 399 536 l 1
 801 536 l 1
 609 1248 l 1
 591 1248 l 1
EndSplineSet
EndChar

StartChar: uni1EB2
Encoding: 7858 7858 7
Width: 1200
GlyphClass: 2
Flags: MW
HStem: 0 21G<45 45 45 255 945 945 945 1155> 346 190<399 801 399 852 348 801> 1248 172<591 591 591 609> 1570 136<559 641 559 696.5> 1851 9 2075 151<555 614.5>
VStem: 296 175<1811 1860 1811 1860> 532 155<1851 1857.5 1851 1872 1851 1884> 669 166<2023 2039.5> 729 175<1811 1860>
AnchorPoint: "Anchor-3" 1080 10 basechar 0
AnchorPoint: "Anchor-2" 600 0 basechar 0
AnchorPoint: "Anchor-0" 600 1742 basechar 0
LayerCount: 2
Fore
SplineSet
532 1851 m 1xff40
 532 1872 l 2xff40
 532 1896 550 1917 598 1950 c 0
 650 1983 669 2003 669 2024 c 0
 669 2055 642 2075 587 2075 c 0
 523 2075 469 2061 423 2032 c 1
 356 2151 l 1
 410 2201 494 2226 608 2226 c 0
 760 2226 835 2172 835 2063 c 0xfe80
 835 1983 803 1936 716 1886 c 0
 695 1874 687 1864 687 1851 c 1
 532 1851 l 1xff40
600 1570 m 0
 407 1570 296 1676 296 1860 c 1
 471 1860 l 1
 471 1762 518 1706 600 1706 c 0
 682 1706 729 1762 729 1860 c 1
 904 1860 l 1
 904 1676 793 1570 600 1570 c 0
45 0 m 1
 455 1420 l 1
 745 1420 l 1
 1155 0 l 1
 945 0 l 1
 852 346 l 1
 348 346 l 1
 255 0 l 1
 45 0 l 1
591 1248 m 1
 399 536 l 1
 801 536 l 1
 609 1248 l 1
 591 1248 l 1
EndSplineSet
EndChar

StartChar: uni1EB4
Encoding: 7860 7860 8
Width: 1200
GlyphClass: 2
Flags: MW
HStem: 0 21G<45 45 45 255 945 945 945 1155> 346 190<399 801 399 852 348 801> 1248 172<591 591 591 609> 1570 136<559 641 559 696.5> 1570 290<296 696.5> 1888 300<225 462 365 399> 1922 166<784.5 787 752.5 869.5> 1922 290<823 869.5> 2022 166<448.5 462 365 490>
VStem: 225 174<1888 1938 1938 1948> 296 103 296 175<1811 1860 1811 1860> 729 175<1811 1860> 823 172<2152 2162 2162 2212 2082 2212>
AnchorPoint: "Anchor-3" 1080 10 basechar 0
AnchorPoint: "Anchor-2" 600 0 basechar 0
AnchorPoint: "Anchor-0" 600 1742 basechar 0
LayerCount: 2
Fore
SplineSet
225 1888 m 1xf444
 225 1938 l 2
 225 2105 295 2188 435 2188 c 0xf0c4
 489 2188 546 2171 623 2139 c 0
 701 2107 736 2088 769 2088 c 0
 805 2088 823 2109 823 2152 c 2xf244
 823 2212 l 1
 995 2212 l 1
 995 2162 l 2
 995 2002 932 1922 807 1922 c 0xf144
 762 1922 700 1941 614 1977 c 0
 557 2001 507 2022 473 2022 c 0
 424 2022 399 1998 399 1948 c 2xf0c4
 399 1888 l 1
 225 1888 l 1xf444
600 1570 m 0xf124
 407 1570 296 1676 296 1860 c 1xe924
 471 1860 l 1xe914
 471 1762 518 1706 600 1706 c 0xf148
 682 1706 729 1762 729 1860 c 1
 904 1860 l 1xe948
 904 1676 793 1570 600 1570 c 0xf124
45 0 m 1xf144
 455 1420 l 1
 745 1420 l 1
 1155 0 l 1
 945 0 l 1
 852 346 l 1
 348 346 l 1
 255 0 l 1
 45 0 l 1xf144
591 1248 m 1
 399 536 l 1
 801 536 l 1
 609 1248 l 1
 591 1248 l 1
EndSplineSet
EndChar

StartChar: Acircumflex
Encoding: 194 194 9
Width: 1200
GlyphClass: 2
Flags: MW
HStem: 0 21G<45 45 45 255 945 945 945 1155> 346 190<399 801 399 852 348 801> 1248 172<591 591 591 609> 1580 260<259 691 519 729 519 951>
VStem: 45 1110<0 0>
AnchorPoint: "Anchor-3" 1080 10 basechar 0
AnchorPoint: "Anchor-2" 600 0 basechar 0
AnchorPoint: "Anchor-0" 600 1748 basechar 0
LayerCount: 2
Fore
SplineSet
259 1580 m 1
 519 1840 l 1
 691 1840 l 1
 951 1580 l 1
 729 1580 l 1
 605 1724 l 1
 481 1580 l 1
 259 1580 l 1
45 0 m 1
 455 1420 l 1
 745 1420 l 1
 1155 0 l 1
 945 0 l 1
 852 346 l 1
 348 346 l 1
 255 0 l 1
 45 0 l 1
591 1248 m 1
 399 536 l 1
 801 536 l 1
 609 1248 l 1
 591 1248 l 1
EndSplineSet
EndChar

StartChar: uni1EA4
Encoding: 7844 7844 10
Width: 1200
GlyphClass: 2
Flags: MW
HStem: 0 21G<45 45 45 255 945 945 945 1155> 346 190<399 801 399 852 348 801> 1248 172<591 591 591 609> 1580 260<259 691 519 729 519 951> 1828 250<820 1322 1040 1062>
VStem: 45 1277
AnchorPoint: "Anchor-3" 1080 10 basechar 0
AnchorPoint: "Anchor-2" 600 0 basechar 0
AnchorPoint: "Anchor-0" 600 1748 basechar 0
LayerCount: 2
Fore
SplineSet
820 1828 m 1xec
 1040 2078 l 1
 1322 2078 l 1
 1062 1828 l 1
 820 1828 l 1xec
259 1580 m 1xf4
 519 1840 l 1
 691 1840 l 1
 951 1580 l 1
 729 1580 l 1
 605 1724 l 1
 481 1580 l 1
 259 1580 l 1xf4
45 0 m 1
 455 1420 l 1
 745 1420 l 1
 1155 0 l 1
 945 0 l 1
 852 346 l 1
 348 346 l 1
 255 0 l 1
 45 0 l 1
591 1248 m 1
 399 536 l 1
 801 536 l 1
 609 1248 l 1
 591 1248 l 1
EndSplineSet
EndChar

StartChar: uni1EAC
Encoding: 7852 7852 11
Width: 1200
GlyphClass: 2
Flags: MW
HStem: -420 268<563 637> 0 21G<45 45 45 255 945 945 945 1155> 346 190<399 801 399 852 348 801> 1248 172<591 591 591 609> 1580 260<259 691 519 729 519 951>
VStem: 466 15
AnchorPoint: "Anchor-3" 1080 10 basechar 0
AnchorPoint: "Anchor-2" 600 0 basechar 0
AnchorPoint: "Anchor-0" 600 1748 basechar 0
LayerCount: 2
Fore
SplineSet
259 1580 m 1
 519 1840 l 1
 691 1840 l 1
 951 1580 l 1
 729 1580 l 1
 605 1724 l 1
 481 1580 l 1
 259 1580 l 1
45 0 m 1
 455 1420 l 1
 745 1420 l 1
 1155 0 l 1
 945 0 l 1
 852 346 l 1
 348 346 l 1
 255 0 l 1
 45 0 l 1
591 1248 m 1
 399 536 l 1
 801 536 l 1
 609 1248 l 1
 591 1248 l 1
600 -420 m 0
 526 -420 466 -360 466 -286 c 0
 466 -211 526 -152 600 -152 c 0
 674 -152 734 -211 734 -286 c 0
 734 -360 674 -420 600 -420 c 0
EndSplineSet
EndChar

StartChar: uni1EA6
Encoding: 7846 7846 12
Width: 1200
GlyphClass: 2
Flags: MW
HStem: 0 21G<45 45 45 255 945 945 945 1155> 346 190<399 801 399 852 348 801> 1248 172<591 591 591 609> 1580 260<259 691 519 729 519 951> 1828 250<850 850 850 872 590 1092>
VStem: 45 1110<0 0>
AnchorPoint: "Anchor-3" 1080 10 basechar 0
AnchorPoint: "Anchor-2" 600 0 basechar 0
AnchorPoint: "Anchor-0" 600 1748 basechar 0
LayerCount: 2
Fore
SplineSet
850 1828 m 1xec
 590 2078 l 1
 872 2078 l 1
 1092 1828 l 1
 850 1828 l 1xec
259 1580 m 1xf4
 519 1840 l 1
 691 1840 l 1
 951 1580 l 1
 729 1580 l 1
 605 1724 l 1
 481 1580 l 1
 259 1580 l 1xf4
45 0 m 1
 455 1420 l 1
 745 1420 l 1
 1155 0 l 1
 945 0 l 1
 852 346 l 1
 348 346 l 1
 255 0 l 1
 45 0 l 1
591 1248 m 1
 399 536 l 1
 801 536 l 1
 609 1248 l 1
 591 1248 l 1
EndSplineSet
EndChar

StartChar: uni1EA8
Encoding: 7848 7848 13
Width: 1200
GlyphClass: 2
Flags: MW
HStem: 0 21G<45 45 45 255 945 945 945 1155> 346 190<399 801 399 852 348 801> 1248 172<591 591 591 609> 1580 260<259 691 519 729 519 951> 2001 151<906 965.5>
VStem: 883 155<1777 1783.5 1777 1798 1777 1810> 1020 166<1949 1965.5>
AnchorPoint: "Anchor-3" 1080 10 basechar 0
AnchorPoint: "Anchor-2" 600 0 basechar 0
AnchorPoint: "Anchor-0" 600 1748 basechar 0
LayerCount: 2
Fore
SplineSet
883 1777 m 1xfc
 883 1798 l 2xfc
 883 1822 901 1843 949 1876 c 0
 1001 1909 1020 1929 1020 1950 c 0
 1020 1981 993 2001 938 2001 c 0
 874 2001 820 1987 774 1958 c 1
 707 2077 l 1
 761 2127 845 2152 959 2152 c 0
 1111 2152 1186 2098 1186 1989 c 0xfa
 1186 1909 1154 1862 1067 1812 c 0
 1046 1800 1038 1790 1038 1777 c 1
 883 1777 l 1xfc
259 1580 m 1
 519 1840 l 1
 691 1840 l 1
 951 1580 l 1
 729 1580 l 1
 605 1724 l 1
 481 1580 l 1
 259 1580 l 1
45 0 m 1
 455 1420 l 1
 745 1420 l 1
 1155 0 l 1
 945 0 l 1
 852 346 l 1
 348 346 l 1
 255 0 l 1
 45 0 l 1
591 1248 m 1
 399 536 l 1
 801 536 l 1
 609 1248 l 1
 591 1248 l 1
EndSplineSet
EndChar

StartChar: uni1EAA
Encoding: 7850 7850 14
Width: 1200
GlyphClass: 2
Flags: MW
HStem: 0 21G<45 45 45 255 945 945 945 1155> 346 190<399 801 399 852 348 801> 1248 172<591 591 591 609> 1580 260<259 691 519 729 519 951> 1894 300<225 462 365 399> 1928 166<784.5 787 752.5 869.5> 1928 290<823 869.5> 2028 166<448.5 462 365 490>
VStem: 225 174<1894 1944 1944 1954> 823 172<2158 2168 2168 2218 2088 2218>
AnchorPoint: "Anchor-3" 1080 10 basechar 0
AnchorPoint: "Anchor-2" 600 0 basechar 0
AnchorPoint: "Anchor-0" 600 1748 basechar 0
LayerCount: 2
Fore
SplineSet
225 1894 m 1xf8c0
 225 1944 l 2
 225 2111 295 2194 435 2194 c 0xf1c0
 489 2194 546 2177 623 2145 c 0
 701 2113 736 2094 769 2094 c 0
 805 2094 823 2115 823 2158 c 2xf4c0
 823 2218 l 1
 995 2218 l 1
 995 2168 l 2
 995 2008 932 1928 807 1928 c 0xf2c0
 762 1928 700 1947 614 1983 c 0
 557 2007 507 2028 473 2028 c 0
 424 2028 399 2004 399 1954 c 2xf1c0
 399 1894 l 1
 225 1894 l 1xf8c0
259 1580 m 1
 519 1840 l 1
 691 1840 l 1
 951 1580 l 1
 729 1580 l 1
 605 1724 l 1
 481 1580 l 1
 259 1580 l 1
45 0 m 1
 455 1420 l 1
 745 1420 l 1
 1155 0 l 1
 945 0 l 1
 852 346 l 1
 348 346 l 1
 255 0 l 1
 45 0 l 1
591 1248 m 1
 399 536 l 1
 801 536 l 1
 609 1248 l 1
 591 1248 l 1
EndSplineSet
EndChar

StartChar: Adieresis
Encoding: 196 196 15
Width: 1200
GlyphClass: 2
Flags: MW
HStem: 0 21G<45 45 45 255 945 945 945 1155> 346 190<399 801 399 852 348 801> 1248 172<591 591 591 609> 1580 268<351 425 771 845>
VStem: 254 268<1677 1751.5> 674 268<1677 1751.5>
AnchorPoint: "Anchor-3" 1080 10 basechar 0
AnchorPoint: "Anchor-2" 600 0 basechar 0
AnchorPoint: "Anchor-0" 600 1420 basechar 0
LayerCount: 2
Fore
SplineSet
808 1580 m 0
 734 1580 674 1640 674 1714 c 0
 674 1789 734 1848 808 1848 c 0
 882 1848 942 1789 942 1714 c 0
 942 1640 882 1580 808 1580 c 0
388 1580 m 0
 314 1580 254 1640 254 1714 c 0
 254 1789 314 1848 388 1848 c 0
 462 1848 522 1789 522 1714 c 0
 522 1640 462 1580 388 1580 c 0
45 0 m 1
 455 1420 l 1
 745 1420 l 1
 1155 0 l 1
 945 0 l 1
 852 346 l 1
 348 346 l 1
 255 0 l 1
 45 0 l 1
591 1248 m 1
 399 536 l 1
 801 536 l 1
 609 1248 l 1
 591 1248 l 1
EndSplineSet
EndChar

StartChar: uni1EA0
Encoding: 7840 7840 16
Width: 1200
GlyphClass: 2
Flags: MW
HStem: -420 268<563 637> 0 21G<45 45 45 255 945 945 945 1155> 346 190<399 801 399 852 348 801> 1248 172<591 591 591 609>
VStem: 45 1110<0 0> 466 268<-323 -248.5>
AnchorPoint: "Anchor-3" 1080 10 basechar 0
AnchorPoint: "Anchor-2" 600 0 basechar 0
AnchorPoint: "Anchor-0" 600 1420 basechar 0
LayerCount: 2
Fore
SplineSet
45 0 m 1xf8
 455 1420 l 1
 745 1420 l 1
 1155 0 l 1
 945 0 l 1
 852 346 l 1
 348 346 l 1
 255 0 l 1
 45 0 l 1xf8
591 1248 m 1
 399 536 l 1
 801 536 l 1
 609 1248 l 1
 591 1248 l 1
600 -420 m 0xf4
 526 -420 466 -360 466 -286 c 0
 466 -211 526 -152 600 -152 c 0
 674 -152 734 -211 734 -286 c 0
 734 -360 674 -420 600 -420 c 0xf4
EndSplineSet
EndChar

StartChar: Agrave
Encoding: 192 192 17
Width: 1200
GlyphClass: 2
Flags: MW
HStem: 0 21G<45 45 45 255 945 945 945 1155> 346 190<399 801 399 852 348 801> 1248 172<591 591 591 609> 1580 250<499 499 499 521 239 741>
VStem: 45 1110<0 0>
AnchorPoint: "Anchor-3" 1080 10 basechar 0
AnchorPoint: "Anchor-2" 600 0 basechar 0
AnchorPoint: "Anchor-0" 600 1420 basechar 0
LayerCount: 2
Fore
SplineSet
499 1580 m 1
 239 1830 l 1
 521 1830 l 1
 741 1580 l 1
 499 1580 l 1
45 0 m 1
 455 1420 l 1
 745 1420 l 1
 1155 0 l 1
 945 0 l 1
 852 346 l 1
 348 346 l 1
 255 0 l 1
 45 0 l 1
591 1248 m 1
 399 536 l 1
 801 536 l 1
 609 1248 l 1
 591 1248 l 1
EndSplineSet
EndChar

StartChar: uni1EA2
Encoding: 7842 7842 18
Width: 1200
GlyphClass: 2
Flags: MW
HStem: 0 21G<45 45 45 255 945 945 945 1155> 346 190<399 801 399 852 348 801> 1248 172<591 591 591 609> 1753 151<555 614.5>
VStem: 532 155<1529 1535.5 1529 1550 1529 1562> 669 166<1701 1717.5>
AnchorPoint: "Anchor-3" 1080 10 basechar 0
AnchorPoint: "Anchor-2" 600 0 basechar 0
AnchorPoint: "Anchor-0" 600 1420 basechar 0
LayerCount: 2
Fore
SplineSet
532 1529 m 1xf8
 532 1550 l 2xf8
 532 1574 550 1595 598 1628 c 0
 650 1661 669 1681 669 1702 c 0
 669 1733 642 1753 587 1753 c 0
 523 1753 469 1739 423 1710 c 1
 356 1829 l 1
 410 1879 494 1904 608 1904 c 0
 760 1904 835 1850 835 1741 c 0xf4
 835 1661 803 1614 716 1564 c 0
 695 1552 687 1542 687 1529 c 1
 532 1529 l 1xf8
45 0 m 1
 455 1420 l 1
 745 1420 l 1
 1155 0 l 1
 945 0 l 1
 852 346 l 1
 348 346 l 1
 255 0 l 1
 45 0 l 1
591 1248 m 1
 399 536 l 1
 801 536 l 1
 609 1248 l 1
 591 1248 l 1
EndSplineSet
EndChar

StartChar: Amacron
Encoding: 256 256 19
Width: 1200
GlyphClass: 2
Flags: MW
HStem: 0 21G<45 45 45 255 945 945 945 1155> 346 190<399 801 399 852 348 801> 1248 172<591 591 591 609> 1580 188<213 987 213 987>
VStem: 45 1110<0 0>
AnchorPoint: "Anchor-3" 1080 10 basechar 0
AnchorPoint: "Anchor-2" 600 0 basechar 0
AnchorPoint: "Anchor-0" 600 1420 basechar 0
LayerCount: 2
Fore
SplineSet
213 1580 m 1
 213 1768 l 1
 987 1768 l 1
 987 1580 l 1
 213 1580 l 1
45 0 m 1
 455 1420 l 1
 745 1420 l 1
 1155 0 l 1
 945 0 l 1
 852 346 l 1
 348 346 l 1
 255 0 l 1
 45 0 l 1
591 1248 m 1
 399 536 l 1
 801 536 l 1
 609 1248 l 1
 591 1248 l 1
EndSplineSet
EndChar

StartChar: Aogonek
Encoding: 260 260 20
Width: 1200
GlyphClass: 2
Flags: MW
HStem: -424 168<1007 1031> 0 21G<45 45 45 255 945 945 1081 1152 1152 1155> 346 190<399 801 399 852 348 801> 1248 172<591 591 591 609>
VStem: 778 150<-196 -173>
AnchorPoint: "Anchor-3" 1080 10 basechar 0
AnchorPoint: "Anchor-2" 600 0 basechar 0
AnchorPoint: "Anchor-0" 600 1420 basechar 0
LayerCount: 2
Fore
SplineSet
45 0 m 1
 455 1420 l 1
 745 1420 l 1
 1155 0 l 1
 1152 0 l 2
 1010 0 928 -61 928 -168 c 0
 928 -224 970 -256 1044 -256 c 0
 1067 -256 1096 -252 1126 -245 c 1
 1108 -415 l 1
 1077 -421 1044 -424 1018 -424 c 0
 865 -424 778 -354 778 -232 c 0
 778 -114 839 -29 945 0 c 1
 852 346 l 1
 348 346 l 1
 255 0 l 1
 45 0 l 1
591 1248 m 1
 399 536 l 1
 801 536 l 1
 609 1248 l 1
 591 1248 l 1
EndSplineSet
EndChar

StartChar: Aring
Encoding: 197 197 21
Width: 1200
GlyphClass: 2
Flags: MW
HStem: 0 21G<45 45 45 255 945 945 945 1155> 346 190<399 801 399 852 348 801> 1248 172<591 591 591 609> 1488 116<569 631 569 675.5> 1785 115<569 631>
VStem: 362 142<1665 1723 1665 1759.5> 696 142<1665 1723>
AnchorPoint: "Anchor-3" 1080 10 basechar 0
AnchorPoint: "Anchor-2" 600 0 basechar 0
AnchorPoint: "Anchor-0" 600 1900 basechar 0
LayerCount: 2
Fore
SplineSet
600 1488 m 0
 449 1488 362 1563 362 1694 c 0
 362 1825 449 1900 600 1900 c 0
 751 1900 838 1825 838 1694 c 0
 838 1563 751 1488 600 1488 c 0
600 1604 m 0
 662 1604 696 1636 696 1694 c 0
 696 1752 662 1785 600 1785 c 0
 538 1785 504 1752 504 1694 c 0
 504 1636 538 1604 600 1604 c 0
45 0 m 1
 455 1420 l 1
 745 1420 l 1
 1155 0 l 1
 945 0 l 1
 852 346 l 1
 348 346 l 1
 255 0 l 1
 45 0 l 1
591 1248 m 1
 399 536 l 1
 801 536 l 1
 609 1248 l 1
 591 1248 l 1
EndSplineSet
EndChar

StartChar: Aringacute
Encoding: 506 506 22
Width: 1200
GlyphClass: 2
Flags: MW
HStem: 0 21G<45 45 45 255 945 945 945 1155> 346 190<399 801 399 852 348 801> 1248 172<591 591 591 609> 1488 116<569 631 569 675.5> 1785 285<569 971>
VStem: 362 142<1665 1723 1665 1749.5> 696 142<1665 1723>
AnchorPoint: "Anchor-3" 1080 10 basechar 0
AnchorPoint: "Anchor-2" 600 0 basechar 0
AnchorPoint: "Anchor-0" 600 1900 basechar 0
LayerCount: 2
Fore
SplineSet
600 1488 m 0
 449 1488 362 1563 362 1694 c 0
 362 1805 424 1876 535 1895 c 1
 689 2070 l 1
 971 2070 l 1
 755 1862 l 1
 809 1827 838 1770 838 1694 c 0
 838 1563 751 1488 600 1488 c 0
600 1604 m 0
 662 1604 696 1636 696 1694 c 0
 696 1752 662 1785 600 1785 c 0
 538 1785 504 1752 504 1694 c 0
 504 1636 538 1604 600 1604 c 0
45 0 m 1
 455 1420 l 1
 745 1420 l 1
 1155 0 l 1
 945 0 l 1
 852 346 l 1
 348 346 l 1
 255 0 l 1
 45 0 l 1
591 1248 m 1
 399 536 l 1
 801 536 l 1
 609 1248 l 1
 591 1248 l 1
EndSplineSet
EndChar

StartChar: Atilde
Encoding: 195 195 23
Width: 1200
GlyphClass: 2
Flags: MW
HStem: 0 21G<45 45 45 255 945 945 945 1155> 346 190<399 801 399 852 348 801> 1248 172<591 591 591 609> 1566 300<225 462 365 399> 1600 166<784.5 787 752.5 869.5> 1600 290<823 869.5> 1700 166<448.5 462 365 490>
VStem: 225 174<1566 1616 1616 1626> 823 172<1830 1840 1840 1890 1760 1890>
AnchorPoint: "Anchor-3" 1080 10 basechar 0
AnchorPoint: "Anchor-2" 600 0 basechar 0
AnchorPoint: "Anchor-0" 600 1420 basechar 0
LayerCount: 2
Fore
SplineSet
225 1566 m 1xf180
 225 1616 l 2
 225 1783 295 1866 435 1866 c 0xe380
 489 1866 546 1849 623 1817 c 0
 701 1785 736 1766 769 1766 c 0
 805 1766 823 1787 823 1830 c 2xe980
 823 1890 l 1
 995 1890 l 1
 995 1840 l 2
 995 1680 932 1600 807 1600 c 0xe580
 762 1600 700 1619 614 1655 c 0
 557 1679 507 1700 473 1700 c 0
 424 1700 399 1676 399 1626 c 2xe380
 399 1566 l 1
 225 1566 l 1xf180
45 0 m 1
 455 1420 l 1
 745 1420 l 1
 1155 0 l 1
 945 0 l 1
 852 346 l 1
 348 346 l 1
 255 0 l 1
 45 0 l 1
591 1248 m 1
 399 536 l 1
 801 536 l 1
 609 1248 l 1
 591 1248 l 1
EndSplineSet
EndChar

StartChar: AE
Encoding: 198 198 24
Width: 1200
GlyphClass: 2
Flags: MW
HStem: 0 180<780 1100 780 1100> 246 165<348 600 348 600 301 600> 621 180<780 1040 780 1040> 1240 180<780 1100 780 780> 1248 172<583 583 583 600>
VStem: 600 180<180 246 246 246 411 621 801 1240>
AnchorPoint: "Anchor-3" 1080 10 basechar 0
AnchorPoint: "Anchor-2" 640 0 basechar 0
AnchorPoint: "Anchor-0" 640 1420 basechar 0
LayerCount: 2
Fore
SplineSet
42 0 m 1xf4
 442 1420 l 1
 1100 1420 l 1
 1100 1240 l 1
 780 1240 l 1
 780 801 l 1
 1040 801 l 1
 1040 621 l 1
 780 621 l 1
 780 180 l 1
 1100 180 l 1
 1100 0 l 1
 600 0 l 1
 600 246 l 1
 301 246 l 1
 232 0 l 1
 42 0 l 1xf4
583 1248 m 1xec
 348 411 l 1
 600 411 l 1
 600 1248 l 1
 583 1248 l 1xec
EndSplineSet
EndChar

StartChar: AEacute
Encoding: 508 508 25
Width: 1200
GlyphClass: 2
Flags: MW
HStem: 0 180<780 1100 780 1100> 246 165<348 600 348 600 301 600> 621 180<780 1040 780 1040> 1240 180<780 1100 780 780> 1248 172<583 583 583 600> 1580 250<509 1011 729 751>
VStem: 600 180<180 246 246 246 411 621 801 1240>
AnchorPoint: "Anchor-3" 1080 10 basechar 0
AnchorPoint: "Anchor-2" 640 0 basechar 0
AnchorPoint: "Anchor-0" 640 1420 basechar 0
LayerCount: 2
Fore
SplineSet
509 1580 m 1xf6
 729 1830 l 1
 1011 1830 l 1
 751 1580 l 1
 509 1580 l 1xf6
42 0 m 1
 442 1420 l 1
 1100 1420 l 1
 1100 1240 l 1
 780 1240 l 1
 780 801 l 1
 1040 801 l 1
 1040 621 l 1
 780 621 l 1
 780 180 l 1
 1100 180 l 1
 1100 0 l 1
 600 0 l 1
 600 246 l 1
 301 246 l 1
 232 0 l 1
 42 0 l 1
583 1248 m 1xee
 348 411 l 1
 600 411 l 1
 600 1248 l 1
 583 1248 l 1xee
EndSplineSet
EndChar

StartChar: B
Encoding: 66 66 26
Width: 1200
GlyphClass: 2
Flags: MW
HStem: 0 190<360 646 646 704> 655 91<360 694> 655 190<360 546 546 632 360 546> 1230 190<360 532 360 360>
VStem: 160 200<190 655 845 1230> 824 210<977.5 1101> 924 210<347 494.5>
AnchorPoint: "Anchor-2" 560 0 basechar 0
AnchorPoint: "Anchor-0" 560 1420 basechar 0
LayerCount: 2
Fore
SplineSet
160 0 m 1xba
 160 1420 l 1
 582 1420 l 2
 870 1420 1034 1290 1034 1060 c 0xbc
 1034 887 912 781 694 758 c 1
 694 746 l 1xda
 975 742 1134 613 1134 390 c 0
 1134 142 978 0 704 0 c 2
 160 0 l 1xba
532 1230 m 2
 360 1230 l 1
 360 845 l 1
 546 845 l 2
 722 845 824 915 824 1040 c 0
 824 1162 718 1230 532 1230 c 2
632 655 m 2
 360 655 l 1
 360 190 l 1
 646 190 l 2
 822 190 924 274 924 420 c 0xba
 924 569 818 655 632 655 c 2
EndSplineSet
EndChar

StartChar: C
Encoding: 67 67 27
Width: 1200
GlyphClass: 2
Flags: MW
HStem: -20 184<632 821> 1256 184<607 790>
VStem: 96 214<536 892.5 536 943>
AnchorPoint: "Anchor-2" 675 0 basechar 0
AnchorPoint: "Anchor-0" 705 1420 basechar 0
LayerCount: 2
Fore
SplineSet
758 -20 m 0
 318 -20 96 224 96 712 c 0
 96 1174 328 1440 734 1440 c 0
 930 1440 1082 1375 1149 1261 c 1
 1001 1114 l 1
 941 1204 844 1256 736 1256 c 0
 478 1256 310 1063 310 722 c 0
 310 350 472 164 792 164 c 0
 890 164 984 184 1078 224 c 1
 1124 48 l 1
 1006 2 884 -20 758 -20 c 0
EndSplineSet
EndChar

StartChar: Cacute
Encoding: 262 262 28
Width: 1200
GlyphClass: 2
Flags: MW
HStem: -20 184<632 821> 1256 184<607 790> 1580 250<574 1076 794 816>
VStem: 96 214<536 892.5 536 943>
AnchorPoint: "Anchor-2" 675 0 basechar 0
AnchorPoint: "Anchor-0" 705 1420 basechar 0
LayerCount: 2
Fore
SplineSet
574 1580 m 1
 794 1830 l 1
 1076 1830 l 1
 816 1580 l 1
 574 1580 l 1
758 -20 m 0
 318 -20 96 224 96 712 c 0
 96 1174 328 1440 734 1440 c 0
 930 1440 1082 1375 1149 1261 c 1
 1001 1114 l 1
 941 1204 844 1256 736 1256 c 0
 478 1256 310 1063 310 722 c 0
 310 350 472 164 792 164 c 0
 890 164 984 184 1078 224 c 1
 1124 48 l 1
 1006 2 884 -20 758 -20 c 0
EndSplineSet
Substitution2: "'locl' Localized Forms in Latin lookup 360 subtable" Cacute.loclPLK
Substitution2: "'aalt' Access All Alternates lookup 0 subtable" Cacute.loclPLK
EndChar

StartChar: Ccaron
Encoding: 268 268 29
Width: 1200
GlyphClass: 2
Flags: MW
HStem: -20 184<632 821> 1256 184<607 790> 1580 260<359 619 359 791>
VStem: 96 214<536 892.5 536 943>
AnchorPoint: "Anchor-2" 675 0 basechar 0
AnchorPoint: "Anchor-0" 705 1840 basechar 0
LayerCount: 2
Fore
SplineSet
619 1580 m 1
 359 1840 l 1
 581 1840 l 1
 705 1696 l 1
 829 1840 l 1
 1051 1840 l 1
 791 1580 l 1
 619 1580 l 1
758 -20 m 0
 318 -20 96 224 96 712 c 0
 96 1174 328 1440 734 1440 c 0
 930 1440 1082 1375 1149 1261 c 1
 1001 1114 l 1
 941 1204 844 1256 736 1256 c 0
 478 1256 310 1063 310 722 c 0
 310 350 472 164 792 164 c 0
 890 164 984 184 1078 224 c 1
 1124 48 l 1
 1006 2 884 -20 758 -20 c 0
EndSplineSet
EndChar

StartChar: Ccedilla
Encoding: 199 199 30
Width: 1200
GlyphClass: 2
Flags: MW
HStem: -480 150<514 577 514 640.5> -20 184<741 758 741 744> -9 21G<604 604> 1256 184<607 790>
VStem: 96 214<536 892.5 536 943> 702 190<-282 -235>
AnchorPoint: "Anchor-2" 675 0 basechar 0
AnchorPoint: "Anchor-0" 705 1420 basechar 0
LayerCount: 2
Fore
SplineSet
514 -480 m 1xdc
 514 -330 l 1
 640 -330 702 -306 702 -258 c 0
 702 -212 649 -190 540 -190 c 1
 604 -9 l 1xbc
 266 45 96 285 96 712 c 0
 96 1174 328 1440 734 1440 c 0
 930 1440 1082 1375 1149 1261 c 1
 1001 1114 l 1
 941 1204 844 1256 736 1256 c 0
 478 1256 310 1063 310 722 c 0
 310 350 472 164 792 164 c 0
 890 164 984 184 1078 224 c 1
 1124 48 l 1
 1006 2 884 -20 758 -20 c 0
 752 -20 747 -20 741 -20 c 1
 720 -100 l 1
 835 -124 892 -179 892 -267 c 0
 892 -409 767 -480 514 -480 c 1xdc
EndSplineSet
EndChar

StartChar: Ccircumflex
Encoding: 264 264 31
Width: 1200
GlyphClass: 2
Flags: MW
HStem: -20 184<632 821> 1256 184<607 790> 1580 260<364 796 624 834 624 1056>
VStem: 96 214<536 892.5 536 943>
AnchorPoint: "Anchor-2" 675 0 basechar 0
AnchorPoint: "Anchor-0" 705 1748 basechar 0
LayerCount: 2
Fore
SplineSet
364 1580 m 1
 624 1840 l 1
 796 1840 l 1
 1056 1580 l 1
 834 1580 l 1
 710 1724 l 1
 586 1580 l 1
 364 1580 l 1
758 -20 m 0
 318 -20 96 224 96 712 c 0
 96 1174 328 1440 734 1440 c 0
 930 1440 1082 1375 1149 1261 c 1
 1001 1114 l 1
 941 1204 844 1256 736 1256 c 0
 478 1256 310 1063 310 722 c 0
 310 350 472 164 792 164 c 0
 890 164 984 184 1078 224 c 1
 1124 48 l 1
 1006 2 884 -20 758 -20 c 0
EndSplineSet
EndChar

StartChar: Cdotaccent
Encoding: 266 266 32
Width: 1200
GlyphClass: 2
Flags: MW
HStem: -20 184<632 821> 1256 184<607 790> 1580 268<668 742>
VStem: 96 214<536 892.5 536 943> 571 268<1677 1751.5>
AnchorPoint: "Anchor-2" 675 0 basechar 0
AnchorPoint: "Anchor-0" 705 1848 basechar 0
LayerCount: 2
Fore
SplineSet
705 1580 m 0
 631 1580 571 1640 571 1714 c 0
 571 1789 631 1848 705 1848 c 0
 779 1848 839 1789 839 1714 c 0
 839 1640 779 1580 705 1580 c 0
758 -20 m 0
 318 -20 96 224 96 712 c 0
 96 1174 328 1440 734 1440 c 0
 930 1440 1082 1375 1149 1261 c 1
 1001 1114 l 1
 941 1204 844 1256 736 1256 c 0
 478 1256 310 1063 310 722 c 0
 310 350 472 164 792 164 c 0
 890 164 984 184 1078 224 c 1
 1124 48 l 1
 1006 2 884 -20 758 -20 c 0
EndSplineSet
EndChar

StartChar: D
Encoding: 68 68 33
Width: 1200
GlyphClass: 2
Flags: MW
HStem: 0 190<360 504 360 504> 1230 190<360 504 360 360>
VStem: 160 200<190 1230 190 1420 190 1420> 944 210<523.5 870.5>
AnchorPoint: "Anchor-2" 550 0 basechar 0
AnchorPoint: "Anchor-0" 550 1420 basechar 0
LayerCount: 2
Fore
SplineSet
160 0 m 1
 160 1420 l 1
 504 1420 l 2
 938 1420 1154 1179 1154 690 c 0
 1154 229 938 0 504 0 c 2
 160 0 l 1
504 1230 m 2
 360 1230 l 1
 360 190 l 1
 504 190 l 2
 796 190 944 357 944 690 c 0
 944 1051 796 1230 504 1230 c 2
EndSplineSet
EndChar

StartChar: Eth
Encoding: 208 208 34
Width: 1200
GlyphClass: 2
Flags: MW
HStem: 0 190<360 504 360 504> 612 190<42 160 42 160 360 681> 1230 190<360 504 360 360>
VStem: 160 200<190 612 190 612 190 612 802 1230> 944 210<523.5 870.5>
AnchorPoint: "Anchor-2" 550 0 basechar 0
AnchorPoint: "Anchor-0" 550 1420 basechar 0
LayerCount: 2
Fore
SplineSet
160 0 m 1
 160 612 l 1
 42 612 l 1
 42 802 l 1
 160 802 l 1
 160 1420 l 1
 504 1420 l 2
 938 1420 1154 1179 1154 690 c 0
 1154 229 938 0 504 0 c 2
 160 0 l 1
681 612 m 1
 360 612 l 1
 360 190 l 1
 504 190 l 2
 796 190 944 357 944 690 c 0
 944 1051 796 1230 504 1230 c 2
 360 1230 l 1
 360 802 l 1
 681 802 l 1
 681 612 l 1
EndSplineSet
EndChar

StartChar: Dcaron
Encoding: 270 270 35
Width: 1200
GlyphClass: 2
Flags: MW
HStem: 0 190<360 504 360 504> 1230 190<360 504 360 360> 1580 260<204 464 204 636>
VStem: 160 200<190 1230 190 1420 190 1420> 944 210<523.5 870.5>
AnchorPoint: "Anchor-2" 550 0 basechar 0
AnchorPoint: "Anchor-0" 550 1840 basechar 0
LayerCount: 2
Fore
SplineSet
464 1580 m 1
 204 1840 l 1
 426 1840 l 1
 550 1696 l 1
 674 1840 l 1
 896 1840 l 1
 636 1580 l 1
 464 1580 l 1
160 0 m 1
 160 1420 l 1
 504 1420 l 2
 938 1420 1154 1179 1154 690 c 0
 1154 229 938 0 504 0 c 2
 160 0 l 1
504 1230 m 2
 360 1230 l 1
 360 190 l 1
 504 190 l 2
 796 190 944 357 944 690 c 0
 944 1051 796 1230 504 1230 c 2
EndSplineSet
EndChar

StartChar: Dcroat
Encoding: 272 272 36
Width: 1200
GlyphClass: 2
Flags: MW
HStem: 0 190<360 504 360 504> 612 190<42 160 42 160 360 681> 1230 190<360 504 360 360>
VStem: 160 200<190 612 190 612 190 612 802 1230> 944 210<523.5 870.5>
AnchorPoint: "Anchor-2" 550 0 basechar 0
AnchorPoint: "Anchor-0" 550 1420 basechar 0
LayerCount: 2
Fore
SplineSet
160 0 m 1
 160 612 l 1
 42 612 l 1
 42 802 l 1
 160 802 l 1
 160 1420 l 1
 504 1420 l 2
 938 1420 1154 1179 1154 690 c 0
 1154 229 938 0 504 0 c 2
 160 0 l 1
681 612 m 1
 360 612 l 1
 360 190 l 1
 504 190 l 2
 796 190 944 357 944 690 c 0
 944 1051 796 1230 504 1230 c 2
 360 1230 l 1
 360 802 l 1
 681 802 l 1
 681 612 l 1
EndSplineSet
EndChar

StartChar: E
Encoding: 69 69 37
Width: 1200
GlyphClass: 2
Flags: MW
HStem: 0 190<360 1100 360 1100> 616 190<360 920 360 920> 1230 190<360 1100 360 360>
VStem: 160 200<190 616 806 1230>
AnchorPoint: "Anchor-3" 1080 10 basechar 0
AnchorPoint: "Anchor-2" 630 0 basechar 0
AnchorPoint: "Anchor-0" 630 1420 basechar 0
LayerCount: 2
Fore
SplineSet
160 0 m 1
 160 1420 l 1
 1100 1420 l 1
 1100 1230 l 1
 360 1230 l 1
 360 806 l 1
 920 806 l 1
 920 616 l 1
 360 616 l 1
 360 190 l 1
 1100 190 l 1
 1100 0 l 1
 160 0 l 1
EndSplineSet
EndChar

StartChar: Eacute
Encoding: 201 201 38
Width: 1200
GlyphClass: 2
Flags: MW
HStem: 0 190<360 1100 360 1100> 616 190<360 920 360 920> 1230 190<360 1100 360 360> 1580 250<499 1001 719 741>
VStem: 160 200<190 616 806 1230>
AnchorPoint: "Anchor-3" 1080 10 basechar 0
AnchorPoint: "Anchor-2" 630 0 basechar 0
AnchorPoint: "Anchor-0" 630 1420 basechar 0
LayerCount: 2
Fore
SplineSet
499 1580 m 1
 719 1830 l 1
 1001 1830 l 1
 741 1580 l 1
 499 1580 l 1
160 0 m 1
 160 1420 l 1
 1100 1420 l 1
 1100 1230 l 1
 360 1230 l 1
 360 806 l 1
 920 806 l 1
 920 616 l 1
 360 616 l 1
 360 190 l 1
 1100 190 l 1
 1100 0 l 1
 160 0 l 1
EndSplineSet
EndChar

StartChar: Ebreve
Encoding: 276 276 39
Width: 1200
GlyphClass: 2
Flags: MW
HStem: 0 190<360 1100 360 1100> 616 190<360 920 360 920> 1230 190<360 1100 360 360> 1570 136<589 671 589 726.5> 1570 290<326 726.5>
VStem: 160 200<190 616 806 1230> 326 175<1811 1860 1811 1860> 759 175<1811 1860>
AnchorPoint: "Anchor-3" 1080 10 basechar 0
AnchorPoint: "Anchor-2" 630 0 basechar 0
AnchorPoint: "Anchor-0" 630 1742 basechar 0
LayerCount: 2
Fore
SplineSet
630 1570 m 0xf2
 437 1570 326 1676 326 1860 c 1
 501 1860 l 1xea
 501 1762 548 1706 630 1706 c 0xf5
 712 1706 759 1762 759 1860 c 1
 934 1860 l 1xed
 934 1676 823 1570 630 1570 c 0xf2
160 0 m 1xf4
 160 1420 l 1
 1100 1420 l 1
 1100 1230 l 1
 360 1230 l 1
 360 806 l 1
 920 806 l 1
 920 616 l 1
 360 616 l 1
 360 190 l 1
 1100 190 l 1
 1100 0 l 1
 160 0 l 1xf4
EndSplineSet
EndChar

StartChar: Ecaron
Encoding: 282 282 40
Width: 1200
GlyphClass: 2
Flags: MW
HStem: 0 190<360 1100 360 1100> 616 190<360 920 360 920> 1230 190<360 1100 360 360> 1580 260<284 544 284 716>
VStem: 160 200<190 616 806 1230>
AnchorPoint: "Anchor-3" 1080 10 basechar 0
AnchorPoint: "Anchor-2" 630 0 basechar 0
AnchorPoint: "Anchor-0" 630 1840 basechar 0
LayerCount: 2
Fore
SplineSet
544 1580 m 1
 284 1840 l 1
 506 1840 l 1
 630 1696 l 1
 754 1840 l 1
 976 1840 l 1
 716 1580 l 1
 544 1580 l 1
160 0 m 1
 160 1420 l 1
 1100 1420 l 1
 1100 1230 l 1
 360 1230 l 1
 360 806 l 1
 920 806 l 1
 920 616 l 1
 360 616 l 1
 360 190 l 1
 1100 190 l 1
 1100 0 l 1
 160 0 l 1
EndSplineSet
EndChar

StartChar: Ecircumflex
Encoding: 202 202 41
Width: 1200
GlyphClass: 2
Flags: MW
HStem: 0 190<360 1100 360 1100> 616 190<360 920 360 920> 1230 190<360 1100 360 360> 1580 260<289 721 549 759 549 981>
VStem: 160 200<190 616 806 1230>
AnchorPoint: "Anchor-3" 1080 10 basechar 0
AnchorPoint: "Anchor-2" 630 0 basechar 0
AnchorPoint: "Anchor-0" 630 1748 basechar 0
LayerCount: 2
Fore
SplineSet
289 1580 m 1
 549 1840 l 1
 721 1840 l 1
 981 1580 l 1
 759 1580 l 1
 635 1724 l 1
 511 1580 l 1
 289 1580 l 1
160 0 m 1
 160 1420 l 1
 1100 1420 l 1
 1100 1230 l 1
 360 1230 l 1
 360 806 l 1
 920 806 l 1
 920 616 l 1
 360 616 l 1
 360 190 l 1
 1100 190 l 1
 1100 0 l 1
 160 0 l 1
EndSplineSet
EndChar

StartChar: uni1EBE
Encoding: 7870 7870 42
Width: 1200
GlyphClass: 2
Flags: MW
HStem: 0 190<360 1100 360 1100> 616 190<360 920 360 920> 1230 190<360 1100 360 360> 1580 260<289 721 549 759 549 981> 1828 250<850 1352 1070 1092>
VStem: 160 200<190 616 806 1230>
AnchorPoint: "Anchor-3" 1080 10 basechar 0
AnchorPoint: "Anchor-2" 630 0 basechar 0
AnchorPoint: "Anchor-0" 630 1748 basechar 0
LayerCount: 2
Fore
SplineSet
850 1828 m 1xec
 1070 2078 l 1
 1352 2078 l 1
 1092 1828 l 1
 850 1828 l 1xec
289 1580 m 1xf4
 549 1840 l 1
 721 1840 l 1
 981 1580 l 1
 759 1580 l 1
 635 1724 l 1
 511 1580 l 1
 289 1580 l 1xf4
160 0 m 1
 160 1420 l 1
 1100 1420 l 1
 1100 1230 l 1
 360 1230 l 1
 360 806 l 1
 920 806 l 1
 920 616 l 1
 360 616 l 1
 360 190 l 1
 1100 190 l 1
 1100 0 l 1
 160 0 l 1
EndSplineSet
EndChar

StartChar: uni1EC6
Encoding: 7878 7878 43
Width: 1200
GlyphClass: 2
Flags: MW
HStem: -420 268<593 667> 0 190<360 1100 360 1100> 616 190<360 920 360 920> 1230 190<360 1100 360 360> 1580 260<289 721 549 759 549 981>
VStem: 160 200<190 616 806 1230> 496 15
AnchorPoint: "Anchor-3" 1080 10 basechar 0
AnchorPoint: "Anchor-2" 630 0 basechar 0
AnchorPoint: "Anchor-0" 630 1748 basechar 0
LayerCount: 2
Fore
SplineSet
289 1580 m 1
 549 1840 l 1
 721 1840 l 1
 981 1580 l 1
 759 1580 l 1
 635 1724 l 1
 511 1580 l 1
 289 1580 l 1
160 0 m 1
 160 1420 l 1
 1100 1420 l 1
 1100 1230 l 1
 360 1230 l 1
 360 806 l 1
 920 806 l 1
 920 616 l 1
 360 616 l 1
 360 190 l 1
 1100 190 l 1
 1100 0 l 1
 160 0 l 1
630 -420 m 0
 556 -420 496 -360 496 -286 c 0
 496 -211 556 -152 630 -152 c 0
 704 -152 764 -211 764 -286 c 0
 764 -360 704 -420 630 -420 c 0
EndSplineSet
EndChar

StartChar: uni1EC0
Encoding: 7872 7872 44
Width: 1200
GlyphClass: 2
Flags: MW
HStem: 0 190<360 1100 360 1100> 616 190<360 920 360 920> 1230 190<360 1100 360 360> 1580 260<289 721 549 759 549 981> 1828 250<880 880 880 902 620 1122>
VStem: 160 200<190 616 806 1230>
AnchorPoint: "Anchor-3" 1080 10 basechar 0
AnchorPoint: "Anchor-2" 630 0 basechar 0
AnchorPoint: "Anchor-0" 630 1748 basechar 0
LayerCount: 2
Fore
SplineSet
880 1828 m 1xec
 620 2078 l 1
 902 2078 l 1
 1122 1828 l 1
 880 1828 l 1xec
289 1580 m 1xf4
 549 1840 l 1
 721 1840 l 1
 981 1580 l 1
 759 1580 l 1
 635 1724 l 1
 511 1580 l 1
 289 1580 l 1xf4
160 0 m 1
 160 1420 l 1
 1100 1420 l 1
 1100 1230 l 1
 360 1230 l 1
 360 806 l 1
 920 806 l 1
 920 616 l 1
 360 616 l 1
 360 190 l 1
 1100 190 l 1
 1100 0 l 1
 160 0 l 1
EndSplineSet
EndChar

StartChar: uni1EC2
Encoding: 7874 7874 45
Width: 1200
GlyphClass: 2
Flags: MW
HStem: 0 190<360 1100 360 1100> 616 190<360 920 360 920> 1230 190<360 1100 360 360> 1580 260<289 721 549 759 549 981> 2001 151<936 995.5>
VStem: 160 200<190 616 806 1230> 913 155<1777 1783.5 1777 1798 1777 1810> 1050 166<1949 1965.5>
AnchorPoint: "Anchor-3" 1080 10 basechar 0
AnchorPoint: "Anchor-2" 630 0 basechar 0
AnchorPoint: "Anchor-0" 630 1748 basechar 0
LayerCount: 2
Fore
SplineSet
913 1777 m 1xfe
 913 1798 l 2xfe
 913 1822 931 1843 979 1876 c 0
 1031 1909 1050 1929 1050 1950 c 0
 1050 1981 1023 2001 968 2001 c 0
 904 2001 850 1987 804 1958 c 1
 737 2077 l 1
 791 2127 875 2152 989 2152 c 0
 1141 2152 1216 2098 1216 1989 c 0xfd
 1216 1909 1184 1862 1097 1812 c 0
 1076 1800 1068 1790 1068 1777 c 1
 913 1777 l 1xfe
289 1580 m 1
 549 1840 l 1
 721 1840 l 1
 981 1580 l 1
 759 1580 l 1
 635 1724 l 1
 511 1580 l 1
 289 1580 l 1
160 0 m 1
 160 1420 l 1
 1100 1420 l 1
 1100 1230 l 1
 360 1230 l 1
 360 806 l 1
 920 806 l 1
 920 616 l 1
 360 616 l 1
 360 190 l 1
 1100 190 l 1
 1100 0 l 1
 160 0 l 1
EndSplineSet
EndChar

StartChar: uni1EC4
Encoding: 7876 7876 46
Width: 1200
GlyphClass: 2
Flags: MW
HStem: 0 190<360 1100 360 1100> 616 190<360 920 360 920> 1230 190<360 1100 360 360> 1580 260<289 721 549 759 549 981> 1894 300<255 492 395 429> 1928 166<814.5 817 782.5 899.5> 1928 290<853 899.5> 2028 166<478.5 492 395 520>
VStem: 160 200<190 616 806 1230> 255 174<1894 1944 1944 1954 1894 2027.5> 853 172<2158 2168 2168 2218 2088 2218>
AnchorPoint: "Anchor-3" 1080 10 basechar 0
AnchorPoint: "Anchor-2" 630 0 basechar 0
AnchorPoint: "Anchor-0" 630 1748 basechar 0
LayerCount: 2
Fore
SplineSet
255 1894 m 1xf860
 255 1944 l 2
 255 2111 325 2194 465 2194 c 0xf160
 519 2194 576 2177 653 2145 c 0
 731 2113 766 2094 799 2094 c 0
 835 2094 853 2115 853 2158 c 2xf4a0
 853 2218 l 1
 1025 2218 l 1
 1025 2168 l 2
 1025 2008 962 1928 837 1928 c 0xf2a0
 792 1928 730 1947 644 1983 c 0
 587 2007 537 2028 503 2028 c 0
 454 2028 429 2004 429 1954 c 2xf160
 429 1894 l 1
 255 1894 l 1xf860
289 1580 m 1
 549 1840 l 1
 721 1840 l 1
 981 1580 l 1
 759 1580 l 1
 635 1724 l 1
 511 1580 l 1
 289 1580 l 1
160 0 m 1xf2a0
 160 1420 l 1
 1100 1420 l 1
 1100 1230 l 1
 360 1230 l 1
 360 806 l 1
 920 806 l 1
 920 616 l 1
 360 616 l 1
 360 190 l 1
 1100 190 l 1
 1100 0 l 1
 160 0 l 1xf2a0
EndSplineSet
EndChar

StartChar: Edieresis
Encoding: 203 203 47
Width: 1200
GlyphClass: 2
Flags: MW
HStem: 0 190<360 1100 360 1100> 616 190<360 920 360 920> 1230 190<360 1100 360 360> 1580 268<381 455 801 875>
VStem: 160 200<190 616 806 1230> 284 268<1677 1751.5> 704 268<1677 1751.5>
AnchorPoint: "Anchor-3" 1080 10 basechar 0
AnchorPoint: "Anchor-2" 630 0 basechar 0
AnchorPoint: "Anchor-0" 630 1420 basechar 0
LayerCount: 2
Fore
SplineSet
838 1580 m 0xfa
 764 1580 704 1640 704 1714 c 0
 704 1789 764 1848 838 1848 c 0
 912 1848 972 1789 972 1714 c 0
 972 1640 912 1580 838 1580 c 0xfa
418 1580 m 0xf6
 344 1580 284 1640 284 1714 c 0
 284 1789 344 1848 418 1848 c 0
 492 1848 552 1789 552 1714 c 0
 552 1640 492 1580 418 1580 c 0xf6
160 0 m 1xfa
 160 1420 l 1
 1100 1420 l 1
 1100 1230 l 1
 360 1230 l 1
 360 806 l 1
 920 806 l 1
 920 616 l 1
 360 616 l 1
 360 190 l 1
 1100 190 l 1
 1100 0 l 1
 160 0 l 1xfa
EndSplineSet
EndChar

StartChar: Edotaccent
Encoding: 278 278 48
Width: 1200
GlyphClass: 2
Flags: MW
HStem: 0 190<360 1100 360 1100> 616 190<360 920 360 920> 1230 190<360 1100 360 360> 1580 268<593 667>
VStem: 160 200<190 616 806 1230> 496 268<1677 1751.5>
AnchorPoint: "Anchor-3" 1080 10 basechar 0
AnchorPoint: "Anchor-2" 630 0 basechar 0
AnchorPoint: "Anchor-0" 630 1848 basechar 0
LayerCount: 2
Fore
SplineSet
630 1580 m 0
 556 1580 496 1640 496 1714 c 0
 496 1789 556 1848 630 1848 c 0
 704 1848 764 1789 764 1714 c 0
 764 1640 704 1580 630 1580 c 0
160 0 m 1
 160 1420 l 1
 1100 1420 l 1
 1100 1230 l 1
 360 1230 l 1
 360 806 l 1
 920 806 l 1
 920 616 l 1
 360 616 l 1
 360 190 l 1
 1100 190 l 1
 1100 0 l 1
 160 0 l 1
EndSplineSet
EndChar

StartChar: uni1EB8
Encoding: 7864 7864 49
Width: 1200
GlyphClass: 2
Flags: MW
HStem: -420 268<593 667> 0 190<360 1100 360 1100> 616 190<360 920 360 920> 1230 190<360 1100 360 360>
VStem: 160 200<190 616 806 1230> 496 268<-323 -248.5>
AnchorPoint: "Anchor-3" 1080 10 basechar 0
AnchorPoint: "Anchor-2" 630 0 basechar 0
AnchorPoint: "Anchor-0" 630 1420 basechar 0
LayerCount: 2
Fore
SplineSet
160 0 m 1
 160 1420 l 1
 1100 1420 l 1
 1100 1230 l 1
 360 1230 l 1
 360 806 l 1
 920 806 l 1
 920 616 l 1
 360 616 l 1
 360 190 l 1
 1100 190 l 1
 1100 0 l 1
 160 0 l 1
630 -420 m 0
 556 -420 496 -360 496 -286 c 0
 496 -211 556 -152 630 -152 c 0
 704 -152 764 -211 764 -286 c 0
 764 -360 704 -420 630 -420 c 0
EndSplineSet
EndChar

StartChar: Egrave
Encoding: 200 200 50
Width: 1200
GlyphClass: 2
Flags: MW
HStem: 0 190<360 1100 360 1100> 616 190<360 920 360 920> 1230 190<360 1100 360 360> 1580 250<529 529 529 551 269 771>
VStem: 160 200<190 616 806 1230>
AnchorPoint: "Anchor-3" 1080 10 basechar 0
AnchorPoint: "Anchor-2" 630 0 basechar 0
AnchorPoint: "Anchor-0" 630 1420 basechar 0
LayerCount: 2
Fore
SplineSet
529 1580 m 1
 269 1830 l 1
 551 1830 l 1
 771 1580 l 1
 529 1580 l 1
160 0 m 1
 160 1420 l 1
 1100 1420 l 1
 1100 1230 l 1
 360 1230 l 1
 360 806 l 1
 920 806 l 1
 920 616 l 1
 360 616 l 1
 360 190 l 1
 1100 190 l 1
 1100 0 l 1
 160 0 l 1
EndSplineSet
EndChar

StartChar: uni1EBA
Encoding: 7866 7866 51
Width: 1200
GlyphClass: 2
Flags: MW
HStem: 0 190<360 1100 360 1100> 616 190<360 920 360 920> 1230 190<360 1100 360 360> 1753 151<585 644.5>
VStem: 160 200<190 616 806 1230> 562 155<1529 1535.5 1529 1550 1529 1562> 699 166<1701 1717.5>
AnchorPoint: "Anchor-3" 1080 10 basechar 0
AnchorPoint: "Anchor-2" 630 0 basechar 0
AnchorPoint: "Anchor-0" 630 1420 basechar 0
LayerCount: 2
Fore
SplineSet
562 1529 m 1xec
 562 1550 l 2xec
 562 1574 580 1595 628 1628 c 0
 680 1661 699 1681 699 1702 c 0
 699 1733 672 1753 617 1753 c 0
 553 1753 499 1739 453 1710 c 1
 386 1829 l 1
 440 1879 524 1904 638 1904 c 0
 790 1904 865 1850 865 1741 c 0xfa
 865 1661 833 1614 746 1564 c 0
 725 1552 717 1542 717 1529 c 1
 562 1529 l 1xec
160 0 m 1
 160 1420 l 1
 1100 1420 l 1
 1100 1230 l 1
 360 1230 l 1
 360 806 l 1
 920 806 l 1
 920 616 l 1
 360 616 l 1
 360 190 l 1
 1100 190 l 1
 1100 0 l 1
 160 0 l 1
EndSplineSet
EndChar

StartChar: Emacron
Encoding: 274 274 52
Width: 1200
GlyphClass: 2
Flags: MW
HStem: 0 190<360 1100 360 1100> 616 190<360 920 360 920> 1230 190<360 1100 360 360> 1580 188<243 1017 243 1017>
VStem: 160 200<190 616 806 1230>
AnchorPoint: "Anchor-3" 1080 10 basechar 0
AnchorPoint: "Anchor-2" 630 0 basechar 0
AnchorPoint: "Anchor-0" 630 1420 basechar 0
LayerCount: 2
Fore
SplineSet
243 1580 m 1
 243 1768 l 1
 1017 1768 l 1
 1017 1580 l 1
 243 1580 l 1
160 0 m 1
 160 1420 l 1
 1100 1420 l 1
 1100 1230 l 1
 360 1230 l 1
 360 806 l 1
 920 806 l 1
 920 616 l 1
 360 616 l 1
 360 190 l 1
 1100 190 l 1
 1100 0 l 1
 160 0 l 1
EndSplineSet
EndChar

StartChar: Eogonek
Encoding: 280 280 53
Width: 1200
GlyphClass: 2
Flags: MW
HStem: -424 168<955 979> 0 190<360 840 1029 1100> 616 190<360 920 360 920> 1230 190<360 1100 360 360>
VStem: 160 200<190 616 806 1230> 726 150<-196 -163> 840 260<-20 190 0 190>
AnchorPoint: "Anchor-3" 1080 10 basechar 0
AnchorPoint: "Anchor-2" 630 0 basechar 0
AnchorPoint: "Anchor-0" 630 1420 basechar 0
LayerCount: 2
Fore
SplineSet
160 0 m 1x7a
 160 1420 l 1
 1100 1420 l 1
 1100 1230 l 1
 360 1230 l 1
 360 806 l 1
 920 806 l 1
 920 616 l 1
 360 616 l 1
 360 190 l 1
 1100 190 l 1
 1100 0 l 1x7a
 958 0 876 -61 876 -168 c 0
 876 -224 918 -256 992 -256 c 0
 1015 -256 1044 -252 1074 -245 c 1
 1056 -415 l 1
 1025 -421 992 -424 966 -424 c 0
 813 -424 726 -347 726 -212 c 0xfc
 726 -114 767 -44 840 -20 c 1
 840 0 l 1
 160 0 l 1x7a
EndSplineSet
EndChar

StartChar: uni1EBC
Encoding: 7868 7868 54
Width: 1200
GlyphClass: 2
Flags: MW
HStem: 0 190<360 1100 360 1100> 616 190<360 920 360 920> 1230 190<360 1100 360 360> 1566 300<255 492 395 429> 1600 166<814.5 817 782.5 899.5> 1600 290<853 899.5> 1700 166<478.5 492 395 520>
VStem: 160 200<190 616 806 1230> 255 174<1566 1616 1616 1626 1566 1699.5> 853 172<1830 1840 1840 1890 1760 1890>
AnchorPoint: "Anchor-3" 1080 10 basechar 0
AnchorPoint: "Anchor-2" 630 0 basechar 0
AnchorPoint: "Anchor-0" 630 1420 basechar 0
LayerCount: 2
Fore
SplineSet
255 1566 m 1xf0c0
 255 1616 l 2
 255 1783 325 1866 465 1866 c 0xe2c0
 519 1866 576 1849 653 1817 c 0
 731 1785 766 1766 799 1766 c 0
 835 1766 853 1787 853 1830 c 2xe940
 853 1890 l 1
 1025 1890 l 1
 1025 1840 l 2
 1025 1680 962 1600 837 1600 c 0xe540
 792 1600 730 1619 644 1655 c 0
 587 1679 537 1700 503 1700 c 0
 454 1700 429 1676 429 1626 c 2xe2c0
 429 1566 l 1
 255 1566 l 1xf0c0
160 0 m 1xe140
 160 1420 l 1
 1100 1420 l 1
 1100 1230 l 1
 360 1230 l 1
 360 806 l 1
 920 806 l 1
 920 616 l 1
 360 616 l 1
 360 190 l 1
 1100 190 l 1
 1100 0 l 1
 160 0 l 1xe140
EndSplineSet
EndChar

StartChar: F
Encoding: 70 70 55
Width: 1200
GlyphClass: 2
Flags: MW
HStem: 0 21G<160 160 160 360> 556 190<360 920 360 920> 1230 190<360 1100 360 360>
VStem: 160 200<0 556 746 1230>
AnchorPoint: "Anchor-2" 660 0 basechar 0
AnchorPoint: "Anchor-0" 660 1420 basechar 0
LayerCount: 2
Fore
SplineSet
160 0 m 1
 160 1420 l 1
 1100 1420 l 1
 1100 1230 l 1
 360 1230 l 1
 360 746 l 1
 920 746 l 1
 920 556 l 1
 360 556 l 1
 360 0 l 1
 160 0 l 1
EndSplineSet
EndChar

StartChar: G
Encoding: 71 71 56
Width: 1200
GlyphClass: 2
Flags: MW
HStem: -20 184<608 789 608 822> 520 190<640 930 640 1120> 1256 184<601.5 789>
VStem: 96 214<536 892 536 943> 930 190<184 520 520 520>
AnchorPoint: "Anchor-2" 715 0 basechar 0
AnchorPoint: "Anchor-0" 695 1420 basechar 0
LayerCount: 2
Fore
SplineSet
732 -20 m 0
 308 -20 96 224 96 712 c 0
 96 1174 326 1440 724 1440 c 0
 923 1440 1079 1375 1150 1262 c 1
 1001 1114 l 1
 939 1204 842 1256 736 1256 c 0
 467 1256 310 1062 310 722 c 0
 310 350 460 164 756 164 c 0
 822 164 880 173 930 184 c 1
 930 520 l 1
 640 520 l 1
 640 710 l 1
 1120 710 l 1
 1120 40 l 1
 1064 22 912 -20 732 -20 c 0
EndSplineSet
EndChar

StartChar: Gbreve
Encoding: 286 286 57
Width: 1200
GlyphClass: 2
Flags: MW
HStem: -20 184<608 789 608 822> 520 190<640 930 640 1120> 1256 184<601.5 789> 1570 136<654 736 654 791.5> 1570 290<391 791.5>
VStem: 96 214<536 892 536 943> 391 175<1811 1860 1811 1860> 824 175<1811 1860> 930 190<184 520 520 520>
AnchorPoint: "Anchor-2" 715 0 basechar 0
AnchorPoint: "Anchor-0" 695 1742 basechar 0
LayerCount: 2
Fore
SplineSet
695 1570 m 0xf680
 502 1570 391 1676 391 1860 c 1
 566 1860 l 1xee80
 566 1762 613 1706 695 1706 c 0xf7
 777 1706 824 1762 824 1860 c 1
 999 1860 l 1xef
 999 1676 888 1570 695 1570 c 0xf680
732 -20 m 0
 308 -20 96 224 96 712 c 0
 96 1174 326 1440 724 1440 c 0
 923 1440 1079 1375 1150 1262 c 1
 1001 1114 l 1
 939 1204 842 1256 736 1256 c 0
 467 1256 310 1062 310 722 c 0
 310 350 460 164 756 164 c 0
 822 164 880 173 930 184 c 1
 930 520 l 1
 640 520 l 1
 640 710 l 1
 1120 710 l 1
 1120 40 l 1
 1064 22 912 -20 732 -20 c 0
EndSplineSet
EndChar

StartChar: Gcaron
Encoding: 486 486 58
Width: 1200
GlyphClass: 2
Flags: MW
HStem: -20 184<608 789 608 822> 520 190<640 930 640 1120> 1256 184<601.5 789> 1580 260<349 609 349 781>
VStem: 96 214<536 892 536 943> 930 190<184 520 520 520>
AnchorPoint: "Anchor-2" 715 0 basechar 0
AnchorPoint: "Anchor-0" 695 1840 basechar 0
LayerCount: 2
Fore
SplineSet
609 1580 m 1
 349 1840 l 1
 571 1840 l 1
 695 1696 l 1
 819 1840 l 1
 1041 1840 l 1
 781 1580 l 1
 609 1580 l 1
732 -20 m 0
 308 -20 96 224 96 712 c 0
 96 1174 326 1440 724 1440 c 0
 923 1440 1079 1375 1150 1262 c 1
 1001 1114 l 1
 939 1204 842 1256 736 1256 c 0
 467 1256 310 1062 310 722 c 0
 310 350 460 164 756 164 c 0
 822 164 880 173 930 184 c 1
 930 520 l 1
 640 520 l 1
 640 710 l 1
 1120 710 l 1
 1120 40 l 1
 1064 22 912 -20 732 -20 c 0
EndSplineSet
EndChar

StartChar: Gcircumflex
Encoding: 284 284 59
Width: 1200
GlyphClass: 2
Flags: MW
HStem: -20 184<608 789 608 822> 520 190<640 930 640 1120> 1256 184<601.5 789> 1580 260<354 786 614 824 614 1046>
VStem: 96 214<536 892 536 943> 930 190<184 520 520 520>
AnchorPoint: "Anchor-2" 715 0 basechar 0
AnchorPoint: "Anchor-0" 695 1748 basechar 0
LayerCount: 2
Fore
SplineSet
354 1580 m 1
 614 1840 l 1
 786 1840 l 1
 1046 1580 l 1
 824 1580 l 1
 700 1724 l 1
 576 1580 l 1
 354 1580 l 1
732 -20 m 0
 308 -20 96 224 96 712 c 0
 96 1174 326 1440 724 1440 c 0
 923 1440 1079 1375 1150 1262 c 1
 1001 1114 l 1
 939 1204 842 1256 736 1256 c 0
 467 1256 310 1062 310 722 c 0
 310 350 460 164 756 164 c 0
 822 164 880 173 930 184 c 1
 930 520 l 1
 640 520 l 1
 640 710 l 1
 1120 710 l 1
 1120 40 l 1
 1064 22 912 -20 732 -20 c 0
EndSplineSet
EndChar

StartChar: uni0122
Encoding: 290 290 60
Width: 1200
GlyphClass: 2
Flags: MW
HStem: -480 340<530 829 607 712> -20 184<608 789 608 822> 520 190<640 930 640 1120> 1256 184<601.5 789>
VStem: 96 214<536 892 536 943> 930 190<184 520 520 520>
AnchorPoint: "Anchor-2" 715 0 basechar 0
AnchorPoint: "Anchor-0" 695 1420 basechar 0
LayerCount: 2
Fore
SplineSet
732 -20 m 0
 308 -20 96 224 96 712 c 0
 96 1174 326 1440 724 1440 c 0
 923 1440 1079 1375 1150 1262 c 1
 1001 1114 l 1
 939 1204 842 1256 736 1256 c 0
 467 1256 310 1062 310 722 c 0
 310 350 460 164 756 164 c 0
 822 164 880 173 930 184 c 1
 930 520 l 1
 640 520 l 1
 640 710 l 1
 1120 710 l 1
 1120 40 l 1
 1064 22 912 -20 732 -20 c 0
530 -480 m 1
 607 -140 l 1
 829 -140 l 1
 712 -480 l 1
 530 -480 l 1
EndSplineSet
EndChar

StartChar: Gdotaccent
Encoding: 288 288 61
Width: 1200
GlyphClass: 2
Flags: MW
HStem: -20 184<608 789 608 822> 520 190<640 930 640 1120> 1256 184<601.5 789> 1580 268<658 732>
VStem: 96 214<536 892 536 943> 561 268<1677 1751.5> 930 190<184 520 520 520>
AnchorPoint: "Anchor-2" 715 0 basechar 0
AnchorPoint: "Anchor-0" 695 1848 basechar 0
LayerCount: 2
Fore
SplineSet
695 1580 m 0
 621 1580 561 1640 561 1714 c 0
 561 1789 621 1848 695 1848 c 0
 769 1848 829 1789 829 1714 c 0
 829 1640 769 1580 695 1580 c 0
732 -20 m 0
 308 -20 96 224 96 712 c 0
 96 1174 326 1440 724 1440 c 0
 923 1440 1079 1375 1150 1262 c 1
 1001 1114 l 1
 939 1204 842 1256 736 1256 c 0
 467 1256 310 1062 310 722 c 0
 310 350 460 164 756 164 c 0
 822 164 880 173 930 184 c 1
 930 520 l 1
 640 520 l 1
 640 710 l 1
 1120 710 l 1
 1120 40 l 1
 1064 22 912 -20 732 -20 c 0
EndSplineSet
EndChar

StartChar: H
Encoding: 72 72 62
Width: 1200
GlyphClass: 2
Flags: MW
HStem: 0 21G<140 140 140 340 860 860 860 1060> 612 190<340 860 340 860> 1400 20G<140 340 340 340 860 1060 1060 1060>
VStem: 140 200<0 612 802 1420> 860 200<0 612 612 612 802 1420 0 1420>
AnchorPoint: "Anchor-2" 600 0 basechar 0
AnchorPoint: "Anchor-0" 600 1420 basechar 0
LayerCount: 2
Fore
SplineSet
140 0 m 1
 140 1420 l 1
 340 1420 l 1
 340 802 l 1
 860 802 l 1
 860 1420 l 1
 1060 1420 l 1
 1060 0 l 1
 860 0 l 1
 860 612 l 1
 340 612 l 1
 340 0 l 1
 140 0 l 1
EndSplineSet
EndChar

StartChar: Hbar
Encoding: 294 294 63
Width: 1200
GlyphClass: 2
Flags: MW
HStem: 0 21G<140 140 140 340 860 860 860 1060> 612 190<340 860 340 860> 1002 190<62 140 62 140 340 860 1060 1138> 1400 20G<140 340 340 340 860 1060 1060 1060>
VStem: 140 200<0 612 802 1002 1192 1420> 860 200<0 612 612 612 802 1002 0 1002 1192 1420>
AnchorPoint: "Anchor-2" 600 0 basechar 0
AnchorPoint: "Anchor-0" 600 1420 basechar 0
LayerCount: 2
Fore
SplineSet
140 0 m 1
 140 1002 l 1
 62 1002 l 1
 62 1192 l 1
 140 1192 l 1
 140 1420 l 1
 340 1420 l 1
 340 1192 l 1
 860 1192 l 1
 860 1420 l 1
 1060 1420 l 1
 1060 1192 l 1
 1138 1192 l 1
 1138 1002 l 1
 1060 1002 l 1
 1060 0 l 1
 860 0 l 1
 860 612 l 1
 340 612 l 1
 340 0 l 1
 140 0 l 1
340 802 m 1
 860 802 l 1
 860 1002 l 1
 340 1002 l 1
 340 802 l 1
EndSplineSet
EndChar

StartChar: Hcircumflex
Encoding: 292 292 64
Width: 1200
GlyphClass: 2
Flags: MW
HStem: 0 21G<140 140 140 340 860 860 860 1060> 612 190<340 860 340 860> 1400 20G<140 340 340 340 860 1060 1060 1060> 1580 260<259 691 519 729 519 951>
VStem: 140 200<0 612 802 1420> 860 200<0 612 612 612 802 1420 0 1420>
AnchorPoint: "Anchor-2" 600 0 basechar 0
AnchorPoint: "Anchor-0" 600 1748 basechar 0
LayerCount: 2
Fore
SplineSet
259 1580 m 1
 519 1840 l 1
 691 1840 l 1
 951 1580 l 1
 729 1580 l 1
 605 1724 l 1
 481 1580 l 1
 259 1580 l 1
140 0 m 1
 140 1420 l 1
 340 1420 l 1
 340 802 l 1
 860 802 l 1
 860 1420 l 1
 1060 1420 l 1
 1060 0 l 1
 860 0 l 1
 860 612 l 1
 340 612 l 1
 340 0 l 1
 140 0 l 1
EndSplineSet
EndChar

StartChar: I
Encoding: 73 73 65
Width: 1200
GlyphClass: 2
Flags: MW
HStem: 0 190<168 499 168 499 699 1032> 1230 190<168 499 168 1032 699 699 699 1032>
VStem: 499 200<190 1230 190 1230>
AnchorPoint: "Anchor-3" 1080 10 basechar 0
AnchorPoint: "Anchor-2" 600 0 basechar 0
AnchorPoint: "Anchor-0" 600 1420 basechar 0
LayerCount: 2
Fore
SplineSet
168 0 m 1
 168 190 l 1
 499 190 l 1
 499 1230 l 1
 168 1230 l 1
 168 1420 l 1
 1032 1420 l 1
 1032 1230 l 1
 699 1230 l 1
 699 190 l 1
 1032 190 l 1
 1032 0 l 1
 168 0 l 1
EndSplineSet
EndChar

StartChar: IJ
Encoding: 306 306 66
Width: 1200
Flags: MW
HStem: 0 180<558 710 558 774> 517 190<45 221 45 221 411 589> 1230 190<45 221 45 569 411 411 411 569 680 872 45 680>
VStem: 216 200<310.5 376 310.5 376> 221 190<707 1230 707 1230> 872 200<456 1230 1230 1230>
LayerCount: 2
Fore
SplineSet
624 0 m 0xf4
 351 0 216 125 216 376 c 1
 416 376 l 1
 416 245 487 180 629 180 c 0
 791 180 872 271 872 456 c 2
 872 1230 l 1
 680 1230 l 1
 680 1420 l 1
 1072 1420 l 1
 1072 456 l 2
 1072 151 924 0 624 0 c 0xf4
45 517 m 1
 45 707 l 1
 221 707 l 1
 221 1230 l 1
 45 1230 l 1
 45 1420 l 1
 569 1420 l 1
 569 1230 l 1
 411 1230 l 1
 411 707 l 1xec
 589 707 l 1
 589 517 l 1
 45 517 l 1
EndSplineSet
EndChar

StartChar: Iacute
Encoding: 205 205 67
Width: 1200
GlyphClass: 2
Flags: MW
HStem: 0 190<168 499 168 499 699 1032> 1230 190<168 499 168 1032 699 699 699 1032> 1580 250<469 971 689 711>
VStem: 499 200<190 1230 190 1230>
AnchorPoint: "Anchor-3" 1080 10 basechar 0
AnchorPoint: "Anchor-2" 600 0 basechar 0
AnchorPoint: "Anchor-0" 600 1420 basechar 0
LayerCount: 2
Fore
SplineSet
469 1580 m 1
 689 1830 l 1
 971 1830 l 1
 711 1580 l 1
 469 1580 l 1
168 0 m 1
 168 190 l 1
 499 190 l 1
 499 1230 l 1
 168 1230 l 1
 168 1420 l 1
 1032 1420 l 1
 1032 1230 l 1
 699 1230 l 1
 699 190 l 1
 1032 190 l 1
 1032 0 l 1
 168 0 l 1
EndSplineSet
EndChar

StartChar: Ibreve
Encoding: 300 300 68
Width: 1200
GlyphClass: 2
Flags: MW
HStem: 0 190<168 499 168 499 699 1032> 1230 190<168 499 168 1032 699 699 699 1032> 1570 136<559 641 559 696.5> 1570 290<296 696.5>
VStem: 296 175<1811 1860 1811 1860> 499 200<190 1230 190 1230> 729 175<1811 1860>
AnchorPoint: "Anchor-3" 1080 10 basechar 0
AnchorPoint: "Anchor-2" 600 0 basechar 0
AnchorPoint: "Anchor-0" 600 1742 basechar 0
LayerCount: 2
Fore
SplineSet
600 1570 m 0xec
 407 1570 296 1676 296 1860 c 1
 471 1860 l 1xdc
 471 1762 518 1706 600 1706 c 0xe6
 682 1706 729 1762 729 1860 c 1
 904 1860 l 1xd6
 904 1676 793 1570 600 1570 c 0xec
168 0 m 1xe4
 168 190 l 1
 499 190 l 1
 499 1230 l 1
 168 1230 l 1
 168 1420 l 1
 1032 1420 l 1
 1032 1230 l 1
 699 1230 l 1
 699 190 l 1
 1032 190 l 1
 1032 0 l 1
 168 0 l 1xe4
EndSplineSet
EndChar

StartChar: Icircumflex
Encoding: 206 206 69
Width: 1200
GlyphClass: 2
Flags: MW
HStem: 0 190<168 499 168 499 699 1032> 1230 190<168 499 168 1032 699 699 699 1032> 1580 260<259 691 519 729 519 951>
VStem: 499 200<190 1230 190 1230>
AnchorPoint: "Anchor-3" 1080 10 basechar 0
AnchorPoint: "Anchor-2" 600 0 basechar 0
AnchorPoint: "Anchor-0" 600 1748 basechar 0
LayerCount: 2
Fore
SplineSet
259 1580 m 1
 519 1840 l 1
 691 1840 l 1
 951 1580 l 1
 729 1580 l 1
 605 1724 l 1
 481 1580 l 1
 259 1580 l 1
168 0 m 1
 168 190 l 1
 499 190 l 1
 499 1230 l 1
 168 1230 l 1
 168 1420 l 1
 1032 1420 l 1
 1032 1230 l 1
 699 1230 l 1
 699 190 l 1
 1032 190 l 1
 1032 0 l 1
 168 0 l 1
EndSplineSet
EndChar

StartChar: Idieresis
Encoding: 207 207 70
Width: 1200
GlyphClass: 2
Flags: MW
HStem: 0 190<168 499 168 499 699 1032> 1230 190<168 499 168 1032 699 699 699 1032> 1580 268<351 425 771 845>
VStem: 254 268<1677 1751.5> 499 200<190 1230 190 1230> 674 268<1677 1751.5>
AnchorPoint: "Anchor-3" 1080 10 basechar 0
AnchorPoint: "Anchor-2" 600 0 basechar 0
AnchorPoint: "Anchor-0" 600 1420 basechar 0
LayerCount: 2
Fore
SplineSet
808 1580 m 0xf4
 734 1580 674 1640 674 1714 c 0
 674 1789 734 1848 808 1848 c 0
 882 1848 942 1789 942 1714 c 0
 942 1640 882 1580 808 1580 c 0xf4
388 1580 m 0
 314 1580 254 1640 254 1714 c 0
 254 1789 314 1848 388 1848 c 0
 462 1848 522 1789 522 1714 c 0
 522 1640 462 1580 388 1580 c 0
168 0 m 1
 168 190 l 1
 499 190 l 1
 499 1230 l 1
 168 1230 l 1
 168 1420 l 1
 1032 1420 l 1
 1032 1230 l 1
 699 1230 l 1
 699 190 l 1xc8
 1032 190 l 1
 1032 0 l 1
 168 0 l 1
EndSplineSet
EndChar

StartChar: Idotaccent
Encoding: 304 304 71
Width: 1200
GlyphClass: 2
Flags: MW
HStem: 0 190<168 499 168 499 699 1032> 1230 190<168 499 168 1032 699 699 699 1032> 1580 268<563 637>
VStem: 466 268<1677 1751.5> 499 200<190 1230 190 1230>
AnchorPoint: "Anchor-3" 1080 10 basechar 0
AnchorPoint: "Anchor-2" 600 0 basechar 0
AnchorPoint: "Anchor-0" 600 1848 basechar 0
LayerCount: 2
Fore
SplineSet
600 1580 m 0xf0
 526 1580 466 1640 466 1714 c 0
 466 1789 526 1848 600 1848 c 0
 674 1848 734 1789 734 1714 c 0
 734 1640 674 1580 600 1580 c 0xf0
168 0 m 1
 168 190 l 1
 499 190 l 1
 499 1230 l 1
 168 1230 l 1
 168 1420 l 1
 1032 1420 l 1
 1032 1230 l 1
 699 1230 l 1
 699 190 l 1xc8
 1032 190 l 1
 1032 0 l 1
 168 0 l 1
EndSplineSet
EndChar

StartChar: uni1ECA
Encoding: 7882 7882 72
Width: 1200
GlyphClass: 2
Flags: MW
HStem: -420 268<563 637> 0 190<168 499 168 499 699 1032> 1230 190<168 499 168 1032 699 699 699 1032>
VStem: 466 268<-323 -248.5> 499 200<190 1230 190 1230>
AnchorPoint: "Anchor-3" 1080 10 basechar 0
AnchorPoint: "Anchor-2" 600 0 basechar 0
AnchorPoint: "Anchor-0" 600 1420 basechar 0
LayerCount: 2
Fore
SplineSet
168 0 m 1x68
 168 190 l 1
 499 190 l 1
 499 1230 l 1
 168 1230 l 1
 168 1420 l 1
 1032 1420 l 1
 1032 1230 l 1
 699 1230 l 1
 699 190 l 1
 1032 190 l 1
 1032 0 l 1
 168 0 l 1x68
600 -420 m 0xf0
 526 -420 466 -360 466 -286 c 0
 466 -211 526 -152 600 -152 c 0
 674 -152 734 -211 734 -286 c 0
 734 -360 674 -420 600 -420 c 0xf0
EndSplineSet
EndChar

StartChar: Igrave
Encoding: 204 204 73
Width: 1200
GlyphClass: 2
Flags: MW
HStem: 0 190<168 499 168 499 699 1032> 1230 190<168 499 168 1032 699 699 699 1032> 1580 250<499 499 499 521 239 741>
VStem: 499 200<190 1230 190 1230>
AnchorPoint: "Anchor-3" 1080 10 basechar 0
AnchorPoint: "Anchor-2" 600 0 basechar 0
AnchorPoint: "Anchor-0" 600 1420 basechar 0
LayerCount: 2
Fore
SplineSet
499 1580 m 1
 239 1830 l 1
 521 1830 l 1
 741 1580 l 1
 499 1580 l 1
168 0 m 1
 168 190 l 1
 499 190 l 1
 499 1230 l 1
 168 1230 l 1
 168 1420 l 1
 1032 1420 l 1
 1032 1230 l 1
 699 1230 l 1
 699 190 l 1
 1032 190 l 1
 1032 0 l 1
 168 0 l 1
EndSplineSet
EndChar

StartChar: uni1EC8
Encoding: 7880 7880 74
Width: 1200
GlyphClass: 2
Flags: MW
HStem: 0 190<168 499 168 499 699 1032> 1230 190<168 499 168 1032 699 699 699 1032> 1753 151<555 614.5>
VStem: 499 200<190 1230 190 1230> 532 155<1529 1535.5 1529 1550 1529 1562> 669 166<1701 1717.5>
AnchorPoint: "Anchor-3" 1080 10 basechar 0
AnchorPoint: "Anchor-2" 600 0 basechar 0
AnchorPoint: "Anchor-0" 600 1420 basechar 0
LayerCount: 2
Fore
SplineSet
532 1529 m 1xc8
 532 1550 l 2xc8
 532 1574 550 1595 598 1628 c 0
 650 1661 669 1681 669 1702 c 0
 669 1733 642 1753 587 1753 c 0
 523 1753 469 1739 423 1710 c 1
 356 1829 l 1
 410 1879 494 1904 608 1904 c 0
 760 1904 835 1850 835 1741 c 0xe4
 835 1661 803 1614 716 1564 c 0
 695 1552 687 1542 687 1529 c 1
 532 1529 l 1xc8
168 0 m 1
 168 190 l 1
 499 190 l 1
 499 1230 l 1
 168 1230 l 1
 168 1420 l 1
 1032 1420 l 1
 1032 1230 l 1
 699 1230 l 1
 699 190 l 1xd0
 1032 190 l 1
 1032 0 l 1
 168 0 l 1
EndSplineSet
EndChar

StartChar: Imacron
Encoding: 298 298 75
Width: 1200
GlyphClass: 2
Flags: MW
HStem: 0 190<168 499 168 499 699 1032> 1230 190<168 499 168 1032 699 699 699 1032> 1580 188<213 987 213 987>
VStem: 499 200<190 1230 190 1230>
AnchorPoint: "Anchor-3" 1080 10 basechar 0
AnchorPoint: "Anchor-2" 600 0 basechar 0
AnchorPoint: "Anchor-0" 600 1420 basechar 0
LayerCount: 2
Fore
SplineSet
213 1580 m 1
 213 1768 l 1
 987 1768 l 1
 987 1580 l 1
 213 1580 l 1
168 0 m 1
 168 190 l 1
 499 190 l 1
 499 1230 l 1
 168 1230 l 1
 168 1420 l 1
 1032 1420 l 1
 1032 1230 l 1
 699 1230 l 1
 699 190 l 1
 1032 190 l 1
 1032 0 l 1
 168 0 l 1
EndSplineSet
EndChar

StartChar: Iogonek
Encoding: 302 302 76
Width: 1200
GlyphClass: 2
Flags: MW
HStem: -424 168<625 649> 0 190<168 499 168 499 168 510 699 770 770 1032> 1230 190<168 499 168 1032 699 699 699 1032>
VStem: 396 150<-196 -163> 499 200<190 1230 190 1230> 510 189
AnchorPoint: "Anchor-3" 1080 10 basechar 0
AnchorPoint: "Anchor-2" 600 0 basechar 0
AnchorPoint: "Anchor-0" 600 1420 basechar 0
LayerCount: 2
Fore
SplineSet
168 0 m 1x68
 168 190 l 1
 499 190 l 1
 499 1230 l 1
 168 1230 l 1
 168 1420 l 1
 1032 1420 l 1
 1032 1230 l 1
 699 1230 l 1
 699 190 l 1x68
 1032 190 l 1
 1032 0 l 1
 770 0 l 2
 628 0 546 -61 546 -168 c 0
 546 -224 588 -256 662 -256 c 0
 685 -256 714 -252 744 -245 c 1
 726 -415 l 1
 695 -421 662 -424 636 -424 c 0
 483 -424 396 -347 396 -212 c 0xf0
 396 -114 437 -44 510 -20 c 1
 510 0 l 1x64
 168 0 l 1x68
EndSplineSet
EndChar

StartChar: Itilde
Encoding: 296 296 77
Width: 1200
GlyphClass: 2
Flags: MW
HStem: 0 190<168 499 168 499 699 1032> 1230 190<168 499 168 1032 699 699 699 1032> 1566 300<225 462 365 399> 1600 166<784.5 787 752.5 869.5> 1600 290<823 869.5> 1700 166<448.5 462 365 490>
VStem: 225 174<1566 1616 1616 1626 1566 1699.5> 499 200<190 1230 190 1230> 823 172<1830 1840 1840 1890 1760 1890>
AnchorPoint: "Anchor-3" 1080 10 basechar 0
AnchorPoint: "Anchor-2" 600 0 basechar 0
AnchorPoint: "Anchor-0" 600 1420 basechar 0
LayerCount: 2
Fore
SplineSet
225 1566 m 1xe380
 225 1616 l 2
 225 1783 295 1866 435 1866 c 0xc780
 489 1866 546 1849 623 1817 c 0
 701 1785 736 1766 769 1766 c 0
 805 1766 823 1787 823 1830 c 2xd380
 823 1890 l 1
 995 1890 l 1
 995 1840 l 2
 995 1680 932 1600 807 1600 c 0xcb80
 762 1600 700 1619 614 1655 c 0
 557 1679 507 1700 473 1700 c 0
 424 1700 399 1676 399 1626 c 2xc780
 399 1566 l 1
 225 1566 l 1xe380
168 0 m 1
 168 190 l 1
 499 190 l 1
 499 1230 l 1
 168 1230 l 1
 168 1420 l 1
 1032 1420 l 1
 1032 1230 l 1
 699 1230 l 1
 699 190 l 1
 1032 190 l 1
 1032 0 l 1
 168 0 l 1
EndSplineSet
EndChar

StartChar: J
Encoding: 74 74 78
Width: 1200
GlyphClass: 2
Flags: MW
HStem: -20 180<495.5 679.5 495.5 737> 1230 190<500 872 500 1072>
VStem: 96 200<376 476 376 476> 872 200<436 1230 1230 1230>
AnchorPoint: "Anchor-2" 600 0 basechar 0
AnchorPoint: "Anchor-0" 780 1420 basechar 0
LayerCount: 2
Fore
SplineSet
584 -20 m 0
 272 -20 96 162 96 476 c 1
 296 476 l 1
 296 276 402 160 589 160 c 0
 770 160 872 260 872 436 c 2
 872 1230 l 1
 500 1230 l 1
 500 1420 l 1
 1072 1420 l 1
 1072 436 l 2
 1072 146 890 -20 584 -20 c 0
EndSplineSet
EndChar

StartChar: Jcircumflex
Encoding: 308 308 79
Width: 1200
GlyphClass: 2
Flags: MW
HStem: -20 180<495.5 679.5 495.5 737> 1230 190<500 872 500 1072> 1580 260<439 871 699 909 699 1131>
VStem: 96 200<376 476 376 476> 872 200<436 1230 1230 1230>
AnchorPoint: "Anchor-2" 600 0 basechar 0
AnchorPoint: "Anchor-0" 780 1748 basechar 0
LayerCount: 2
Fore
SplineSet
439 1580 m 1
 699 1840 l 1
 871 1840 l 1
 1131 1580 l 1
 909 1580 l 1
 785 1724 l 1
 661 1580 l 1
 439 1580 l 1
584 -20 m 0
 272 -20 96 162 96 476 c 1
 296 476 l 1
 296 276 402 160 589 160 c 0
 770 160 872 260 872 436 c 2
 872 1230 l 1
 500 1230 l 1
 500 1420 l 1
 1072 1420 l 1
 1072 436 l 2
 1072 146 890 -20 584 -20 c 0
EndSplineSet
EndChar

StartChar: K
Encoding: 75 75 80
Width: 1200
GlyphClass: 2
Flags: MW
HStem: 0 21G<160 160 160 360 930 930 930 1172> 1400 20G<160 360 360 360 898 1104 1104 1104>
VStem: 160 200<0 455 652 1420> 898 206<1273.5 1420 1273.5 1420>
AnchorPoint: "Anchor-2" 640 0 basechar 0
AnchorPoint: "Anchor-0" 600 1420 basechar 0
LayerCount: 2
Fore
SplineSet
160 0 m 1
 160 1420 l 1
 360 1420 l 1
 360 652 l 1
 731 685 898 1047 898 1420 c 1
 1104 1420 l 1
 1104 1127 1003 849 818 666 c 1
 1172 0 l 1
 930 0 l 1
 649 541 l 1
 563 495 467 465 360 455 c 1
 360 0 l 1
 160 0 l 1
EndSplineSet
EndChar

StartChar: uni0136
Encoding: 310 310 81
Width: 1200
GlyphClass: 2
Flags: MW
HStem: -480 340<455 754 532 637> 0 21G<160 160 160 360 930 930 930 1172> 1400 20G<160 360 360 360 898 1104 1104 1104>
VStem: 160 200<0 455 652 1420> 898 206<1273.5 1420 1273.5 1420>
AnchorPoint: "Anchor-2" 640 0 basechar 0
AnchorPoint: "Anchor-0" 600 1420 basechar 0
LayerCount: 2
Fore
SplineSet
160 0 m 1
 160 1420 l 1
 360 1420 l 1
 360 652 l 1
 731 685 898 1047 898 1420 c 1
 1104 1420 l 1
 1104 1127 1003 849 818 666 c 1
 1172 0 l 1
 930 0 l 1
 649 541 l 1
 563 495 467 465 360 455 c 1
 360 0 l 1
 160 0 l 1
455 -480 m 1
 532 -140 l 1
 754 -140 l 1
 637 -480 l 1
 455 -480 l 1
EndSplineSet
EndChar

StartChar: L
Encoding: 76 76 82
Width: 1200
GlyphClass: 2
Flags: MW
HStem: 0 190<360 1100 360 1100> 1400 20G<160 360 360 360>
VStem: 160 200<190 1420 190 1420 190 1420>
AnchorPoint: "Anchor-2" 620 0 basechar 0
AnchorPoint: "Anchor-1" 1180 1420 basechar 0
AnchorPoint: "Anchor-0" 260 1420 basechar 0
LayerCount: 2
Fore
SplineSet
160 0 m 1
 160 1420 l 1
 360 1420 l 1
 360 190 l 1
 1100 190 l 1
 1100 0 l 1
 160 0 l 1
EndSplineSet
EndChar

StartChar: Lacute
Encoding: 313 313 83
Width: 1200
GlyphClass: 2
Flags: MW
HStem: 0 190<360 1100 360 1100> 1400 20G<160 360 360 360> 1580 250<129 631 349 371>
VStem: 160 200<190 1420 190 1420 190 1420>
AnchorPoint: "Anchor-2" 620 0 basechar 0
AnchorPoint: "Anchor-1" 1180 1420 basechar 0
AnchorPoint: "Anchor-0" 260 1420 basechar 0
LayerCount: 2
Fore
SplineSet
129 1580 m 1
 349 1830 l 1
 631 1830 l 1
 371 1580 l 1
 129 1580 l 1
160 0 m 1
 160 1420 l 1
 360 1420 l 1
 360 190 l 1
 1100 190 l 1
 1100 0 l 1
 160 0 l 1
EndSplineSet
EndChar

StartChar: Lcaron
Encoding: 317 317 84
Width: 1200
GlyphClass: 2
Flags: MW
HStem: 0 190<360 1100 360 1100> 1188 380<762 1024 812 934> 1400 20G<160 360 360 360>
VStem: 160 200<190 1420 190 1420 190 1420>
AnchorPoint: "Anchor-2" 620 0 basechar 0
AnchorPoint: "Anchor-1" 1180 1420 basechar 0
AnchorPoint: "Anchor-0" 260 1420 basechar 0
LayerCount: 2
Fore
SplineSet
762 1188 m 1xd0
 812 1568 l 1
 1024 1568 l 1
 934 1188 l 1
 762 1188 l 1xd0
160 0 m 1
 160 1420 l 1
 360 1420 l 1xb0
 360 190 l 1
 1100 190 l 1
 1100 0 l 1
 160 0 l 1
EndSplineSet
EndChar

StartChar: uni013B
Encoding: 315 315 85
Width: 1200
GlyphClass: 2
Flags: MW
HStem: -480 340<435 734 512 617> 0 190<360 1100 360 1100> 1400 20G<160 360 360 360>
VStem: 160 200<190 1420 190 1420 190 1420>
AnchorPoint: "Anchor-2" 620 0 basechar 0
AnchorPoint: "Anchor-1" 1180 1420 basechar 0
AnchorPoint: "Anchor-0" 260 1420 basechar 0
LayerCount: 2
Fore
SplineSet
160 0 m 1
 160 1420 l 1
 360 1420 l 1
 360 190 l 1
 1100 190 l 1
 1100 0 l 1
 160 0 l 1
435 -480 m 1
 512 -140 l 1
 734 -140 l 1
 617 -480 l 1
 435 -480 l 1
EndSplineSet
EndChar

StartChar: Ldot
Encoding: 319 319 86
Width: 1200
GlyphClass: 2
Flags: MW
HStem: 0 190<360 1100 360 1100> 932 296<709 791> 1400 20G<160 360 360 360>
VStem: 160 200<190 1420 190 1420 190 1420> 602 296<1039 1121>
AnchorPoint: "Anchor-2" 620 0 basechar 0
AnchorPoint: "Anchor-1" 1180 1420 basechar 0
AnchorPoint: "Anchor-0" 260 1420 basechar 0
LayerCount: 2
Fore
SplineSet
160 0 m 1
 160 1420 l 1
 360 1420 l 1
 360 190 l 1
 1100 190 l 1
 1100 0 l 1
 160 0 l 1
750 932 m 0
 668 932 602 998 602 1080 c 0
 602 1162 668 1228 750 1228 c 0
 832 1228 898 1162 898 1080 c 0
 898 998 832 932 750 932 c 0
EndSplineSet
Ligature2: "Ligature Substitution lookup 364 subtable" L periodcentered
EndChar

StartChar: Lslash
Encoding: 321 321 87
Width: 1200
GlyphClass: 2
Flags: MW
HStem: 0 190<460 1100 460 1100> 1040 20G<864 864> 1400 20G<260 460 460 460>
VStem: 260 200<190 560 560 560 849 1420>
AnchorPoint: "Anchor-2" 620 0 basechar 0
AnchorPoint: "Anchor-1" 1180 1420 basechar 0
AnchorPoint: "Anchor-0" 260 1420 basechar 0
LayerCount: 2
Fore
SplineSet
260 0 m 1
 260 560 l 1
 58 455 l 1
 58 640 l 1
 260 745 l 1
 260 1420 l 1
 460 1420 l 1
 460 849 l 1
 864 1060 l 1
 864 875 l 1
 460 664 l 1
 460 190 l 1
 1100 190 l 1
 1100 0 l 1
 260 0 l 1
EndSplineSet
EndChar

StartChar: M
Encoding: 77 77 88
Width: 1200
GlyphClass: 2
Flags: MW
HStem: 0 21G<128 128 128 320 880 880 880 1072> 580 230<592 608 592 692 508 608> 1168 252<320 346 320 320 854 880 854 854>
VStem: 128 192<0 1168 0 1420> 880 192<0 1168 1168 1168>
AnchorPoint: "Anchor-2" 600 0 basechar 0
AnchorPoint: "Anchor-0" 600 1420 basechar 0
LayerCount: 2
Fore
SplineSet
128 0 m 1
 128 1420 l 1
 430 1420 l 1
 592 810 l 1
 608 810 l 1
 770 1420 l 1
 1072 1420 l 1
 1072 0 l 1
 880 0 l 1
 880 1168 l 1
 854 1168 l 1
 692 580 l 1
 508 580 l 1
 346 1168 l 1
 320 1168 l 1
 320 0 l 1
 128 0 l 1
EndSplineSet
EndChar

StartChar: N
Encoding: 78 78 89
Width: 1200
GlyphClass: 2
Flags: MW
HStem: 0 21G<148 148 148 340 800 800 800 1052> 0 340<800 860 840 860 840 1052> 1080 340<340 360 340 340> 1400 20G<148 400 400 400 860 1052 1052 1052>
VStem: 148 192<0 1080 0 1420> 860 192<340 1420 0 1420>
AnchorPoint: "Anchor-2" 600 0 basechar 0
AnchorPoint: "Anchor-0" 600 1420 basechar 0
LayerCount: 2
Fore
SplineSet
148 0 m 1x9c
 148 1420 l 1
 400 1420 l 1
 840 340 l 1
 860 340 l 1x5c
 860 1420 l 1
 1052 1420 l 1
 1052 0 l 1
 800 0 l 1
 360 1080 l 1
 340 1080 l 1xac
 340 0 l 1
 148 0 l 1x9c
EndSplineSet
EndChar

StartChar: Nacute
Encoding: 323 323 90
Width: 1200
GlyphClass: 2
Flags: MW
HStem: 0 21G<148 148 148 340 800 800 800 1052> 0 340<800 860 840 860 840 1052> 1080 340<340 360 340 340> 1400 20G<148 400 400 400 860 1052 1052 1052> 1580 250<469 971 689 711>
VStem: 148 192<0 1080 0 1420> 860 192<340 1420 0 1420>
AnchorPoint: "Anchor-2" 600 0 basechar 0
AnchorPoint: "Anchor-0" 600 1420 basechar 0
LayerCount: 2
Fore
SplineSet
469 1580 m 1x9e
 689 1830 l 1
 971 1830 l 1
 711 1580 l 1
 469 1580 l 1x9e
148 0 m 1
 148 1420 l 1
 400 1420 l 1
 840 340 l 1
 860 340 l 1x5e
 860 1420 l 1
 1052 1420 l 1
 1052 0 l 1
 800 0 l 1
 360 1080 l 1
 340 1080 l 1xae
 340 0 l 1
 148 0 l 1
EndSplineSet
Substitution2: "'locl' Localized Forms in Latin lookup 360 subtable" Nacute.loclPLK
Substitution2: "'aalt' Access All Alternates lookup 0 subtable" Nacute.loclPLK
EndChar

StartChar: Ncaron
Encoding: 327 327 91
Width: 1200
GlyphClass: 2
Flags: MW
HStem: 0 21G<148 148 148 340 800 800 800 1052> 0 340<800 860 840 860 840 1052> 1080 340<340 360 340 340> 1400 20G<148 400 400 400 860 1052 1052 1052> 1580 260<254 514 254 686>
VStem: 148 192<0 1080 0 1420> 860 192<340 1420 0 1420>
AnchorPoint: "Anchor-2" 600 0 basechar 0
AnchorPoint: "Anchor-0" 600 1840 basechar 0
LayerCount: 2
Fore
SplineSet
514 1580 m 1x9e
 254 1840 l 1
 476 1840 l 1
 600 1696 l 1
 724 1840 l 1
 946 1840 l 1
 686 1580 l 1
 514 1580 l 1x9e
148 0 m 1
 148 1420 l 1
 400 1420 l 1
 840 340 l 1
 860 340 l 1x5e
 860 1420 l 1
 1052 1420 l 1
 1052 0 l 1
 800 0 l 1
 360 1080 l 1
 340 1080 l 1xae
 340 0 l 1
 148 0 l 1
EndSplineSet
EndChar

StartChar: uni0145
Encoding: 325 325 92
Width: 1200
GlyphClass: 2
Flags: MW
HStem: -480 340<415 714 492 597> 0 21G<148 148 148 340 800 800 800 1052> 0 340<800 860 840 860 840 1052> 1080 340<340 360 340 340> 1400 20G<148 400 400 400 860 1052 1052 1052>
VStem: 148 192<0 1080 0 1420> 860 192<340 1420 0 1420>
AnchorPoint: "Anchor-2" 600 0 basechar 0
AnchorPoint: "Anchor-0" 600 1420 basechar 0
LayerCount: 2
Fore
SplineSet
148 0 m 1xce
 148 1420 l 1
 400 1420 l 1
 840 340 l 1
 860 340 l 1xae
 860 1420 l 1
 1052 1420 l 1
 1052 0 l 1
 800 0 l 1
 360 1080 l 1
 340 1080 l 1xd6
 340 0 l 1
 148 0 l 1xce
415 -480 m 1
 492 -140 l 1
 714 -140 l 1
 597 -480 l 1
 415 -480 l 1
EndSplineSet
EndChar

StartChar: Eng
Encoding: 330 330 93
Width: 1200
GlyphClass: 2
Flags: MW
HStem: -480 21G<593 593> 0 21G<148 148 148 340 800 800 800 859> 1080 340<340 360 340 340> 1400 20G<148 400 400 400 860 1052 1052 1052>
VStem: 148 192<0 1080 0 1420> 859 193<-88 0 0 0> 860 192<340 1420>
AnchorPoint: "Anchor-2" 600 0 basechar 0
AnchorPoint: "Anchor-0" 600 1420 basechar 0
LayerCount: 2
Fore
SplineSet
148 0 m 1xda
 148 1420 l 1
 400 1420 l 1
 840 340 l 1
 860 340 l 1
 860 1420 l 1
 1052 1420 l 1
 1052 -96 l 2xda
 1052 -313 932 -449 723 -468 c 2
 593 -480 l 1
 583 -312 l 1
 703 -294 l 2
 807 -278 859 -214 859 -88 c 2
 859 0 l 1
 800 0 l 1
 360 1080 l 1
 340 1080 l 1xec
 340 0 l 1
 148 0 l 1xda
EndSplineSet
EndChar

StartChar: uni019D
Encoding: 413 413 94
Width: 1200
GlyphClass: 2
Flags: MW
HStem: -480 21G<-118 -118> 0 21G<800 1052 800 800> 1080 340<340 360 340 340> 1400 20G<148 400 400 400 860 1052 1052 1052>
VStem: 148 192<184 1080 184 1420> 860 192<340 1420 0 1420>
AnchorPoint: "Anchor-2" 600 0 basechar 0
AnchorPoint: "Anchor-0" 600 1420 basechar 0
LayerCount: 2
Fore
SplineSet
-118 -480 m 1xdc
 -128 -312 l 1
 -8 -294 l 2
 96 -282 148 -214 148 -88 c 2
 148 1420 l 1
 400 1420 l 1
 840 340 l 1
 860 340 l 1
 860 1420 l 1
 1052 1420 l 1
 1052 0 l 1
 800 0 l 1
 360 1080 l 1
 340 1080 l 1xec
 340 184 l 1
 341 184 l 1
 341 -96 l 2
 341 -316 221 -452 12 -468 c 2
 -118 -480 l 1xdc
EndSplineSet
EndChar

StartChar: Ntilde
Encoding: 209 209 95
Width: 1200
GlyphClass: 2
Flags: MW
HStem: 0 21G<148 148 148 340 800 800 800 1052> 0 340<800 860 840 860 840 1052> 1080 340<340 360 340 340> 1400 20G<148 400 400 400 860 1052 1052 1052> 1566 300<225 462 365 399> 1600 166<784.5 787 752.5 869.5> 1600 290<823 869.5> 1700 166<448.5 462 365 490>
VStem: 148 192<0 1080 0 1420> 225 174<1566 1616 1616 1626 1566 1699.5> 823 172<1830 1840 1840 1890 1760 1890> 860 192<340 1420 0 1420>
AnchorPoint: "Anchor-2" 600 0 basechar 0
AnchorPoint: "Anchor-0" 600 1420 basechar 0
LayerCount: 2
Fore
SplineSet
225 1566 m 1x9850
 225 1616 l 2
 225 1783 295 1866 435 1866 c 0x9150
 489 1866 546 1849 623 1817 c 0
 701 1785 736 1766 769 1766 c 0
 805 1766 823 1787 823 1830 c 2x94a0
 823 1890 l 1
 995 1890 l 1
 995 1840 l 2
 995 1680 932 1600 807 1600 c 0x92a0
 762 1600 700 1619 614 1655 c 0
 557 1679 507 1700 473 1700 c 0
 424 1700 399 1676 399 1626 c 2x9150
 399 1566 l 1
 225 1566 l 1x9850
148 0 m 1xa290
 148 1420 l 1
 400 1420 l 1
 840 340 l 1
 860 340 l 1x5290
 860 1420 l 1
 1052 1420 l 1
 1052 0 l 1
 800 0 l 1
 360 1080 l 1
 340 1080 l 1
 340 0 l 1
 148 0 l 1xa290
EndSplineSet
EndChar

StartChar: O
Encoding: 79 79 96
Width: 1200
GlyphClass: 2
Flags: MW
HStem: -20 184<495.5 704.5 495.5 774> 1256 184<495.5 704.5>
VStem: 76 210<521 886 521 947> 914 210<521 886>
AnchorPoint: "Anchor-3" 1080 10 basechar 0
AnchorPoint: "Anchor-2" 600 0 basechar 0
AnchorPoint: "Anchor-1" 1180 1420 basechar 0
AnchorPoint: "Anchor-0" 600 1420 basechar 0
LayerCount: 2
Fore
SplineSet
600 -20 m 0
 252 -20 76 218 76 700 c 0
 76 1194 252 1440 600 1440 c 0
 948 1440 1124 1194 1124 700 c 0
 1124 218 948 -20 600 -20 c 0
600 164 m 0
 809 164 914 342 914 700 c 0
 914 1072 809 1256 600 1256 c 0
 391 1256 286 1072 286 700 c 0
 286 342 391 164 600 164 c 0
EndSplineSet
Substitution2: "Single Substitution lookup 378 subtable" ordmasculine
Substitution2: "'aalt' Access All Alternates lookup 0 subtable" ordmasculine
EndChar

StartChar: Oacute
Encoding: 211 211 97
Width: 1200
GlyphClass: 2
Flags: MW
HStem: -20 184<495.5 704.5 495.5 774> 1256 184<495.5 704.5> 1580 250<469 971 689 711>
VStem: 76 210<521 886 521 947> 914 210<521 886>
AnchorPoint: "Anchor-3" 1080 10 basechar 0
AnchorPoint: "Anchor-2" 600 0 basechar 0
AnchorPoint: "Anchor-1" 1180 1420 basechar 0
AnchorPoint: "Anchor-0" 600 1420 basechar 0
LayerCount: 2
Fore
SplineSet
469 1580 m 1
 689 1830 l 1
 971 1830 l 1
 711 1580 l 1
 469 1580 l 1
600 -20 m 0
 252 -20 76 218 76 700 c 0
 76 1194 252 1440 600 1440 c 0
 948 1440 1124 1194 1124 700 c 0
 1124 218 948 -20 600 -20 c 0
600 164 m 0
 809 164 914 342 914 700 c 0
 914 1072 809 1256 600 1256 c 0
 391 1256 286 1072 286 700 c 0
 286 342 391 164 600 164 c 0
EndSplineSet
Substitution2: "'locl' Localized Forms in Latin lookup 360 subtable" Oacute.loclPLK
Substitution2: "'aalt' Access All Alternates lookup 0 subtable" Oacute.loclPLK
EndChar

StartChar: Obreve
Encoding: 334 334 98
Width: 1200
GlyphClass: 2
Flags: MW
HStem: -20 184<495.5 704.5 495.5 774> 1256 184<495.5 704.5> 1570 136<559 641 559 696.5> 1570 290<296 696.5>
VStem: 76 210<521 886 521 947> 296 175<1811 1860 1811 1860> 729 175<1811 1860> 914 210<521 886>
AnchorPoint: "Anchor-3" 1080 10 basechar 0
AnchorPoint: "Anchor-2" 600 0 basechar 0
AnchorPoint: "Anchor-1" 1180 1420 basechar 0
AnchorPoint: "Anchor-0" 600 1742 basechar 0
LayerCount: 2
Fore
SplineSet
600 1570 m 0xed
 407 1570 296 1676 296 1860 c 1
 471 1860 l 1xdd
 471 1762 518 1706 600 1706 c 0xeb
 682 1706 729 1762 729 1860 c 1
 904 1860 l 1xdb
 904 1676 793 1570 600 1570 c 0xed
600 -20 m 0xe9
 252 -20 76 218 76 700 c 0
 76 1194 252 1440 600 1440 c 0
 948 1440 1124 1194 1124 700 c 0
 1124 218 948 -20 600 -20 c 0xe9
600 164 m 0
 809 164 914 342 914 700 c 0
 914 1072 809 1256 600 1256 c 0
 391 1256 286 1072 286 700 c 0
 286 342 391 164 600 164 c 0
EndSplineSet
EndChar

StartChar: Ocircumflex
Encoding: 212 212 99
Width: 1200
GlyphClass: 2
Flags: MW
HStem: -20 184<495.5 704.5 495.5 774> 1256 184<495.5 704.5> 1580 260<259 691 519 729 519 951>
VStem: 76 210<521 886 521 947> 914 210<521 886>
AnchorPoint: "Anchor-3" 1080 10 basechar 0
AnchorPoint: "Anchor-2" 600 0 basechar 0
AnchorPoint: "Anchor-1" 1180 1420 basechar 0
AnchorPoint: "Anchor-0" 600 1748 basechar 0
LayerCount: 2
Fore
SplineSet
259 1580 m 1
 519 1840 l 1
 691 1840 l 1
 951 1580 l 1
 729 1580 l 1
 605 1724 l 1
 481 1580 l 1
 259 1580 l 1
600 -20 m 0
 252 -20 76 218 76 700 c 0
 76 1194 252 1440 600 1440 c 0
 948 1440 1124 1194 1124 700 c 0
 1124 218 948 -20 600 -20 c 0
600 164 m 0
 809 164 914 342 914 700 c 0
 914 1072 809 1256 600 1256 c 0
 391 1256 286 1072 286 700 c 0
 286 342 391 164 600 164 c 0
EndSplineSet
EndChar

StartChar: uni1ED0
Encoding: 7888 7888 100
Width: 1200
GlyphClass: 2
Flags: MW
HStem: -20 184<495.5 704.5 495.5 774> 1256 184<495.5 704.5> 1580 260<259 691 519 729 519 951> 1828 250<820 1322 1040 1062>
VStem: 76 210<521 886 521 947> 914 210<521 886>
AnchorPoint: "Anchor-3" 1080 10 basechar 0
AnchorPoint: "Anchor-2" 600 0 basechar 0
AnchorPoint: "Anchor-1" 1180 1420 basechar 0
AnchorPoint: "Anchor-0" 600 1748 basechar 0
LayerCount: 2
Fore
SplineSet
820 1828 m 1xdc
 1040 2078 l 1
 1322 2078 l 1
 1062 1828 l 1
 820 1828 l 1xdc
259 1580 m 1xec
 519 1840 l 1
 691 1840 l 1
 951 1580 l 1
 729 1580 l 1
 605 1724 l 1
 481 1580 l 1
 259 1580 l 1xec
600 -20 m 0
 252 -20 76 218 76 700 c 0
 76 1194 252 1440 600 1440 c 0
 948 1440 1124 1194 1124 700 c 0
 1124 218 948 -20 600 -20 c 0
600 164 m 0
 809 164 914 342 914 700 c 0
 914 1072 809 1256 600 1256 c 0
 391 1256 286 1072 286 700 c 0
 286 342 391 164 600 164 c 0
EndSplineSet
EndChar

StartChar: uni1ED8
Encoding: 7896 7896 101
Width: 1200
GlyphClass: 2
Flags: MW
HStem: -420 268<563 637> -20 184<495.5 704.5 495.5 774> 1256 184<495.5 704.5> 1580 260<259 691 519 729 519 951>
VStem: 76 210<521 886 521 947> 466 15 914 210<521 886>
AnchorPoint: "Anchor-3" 1080 10 basechar 0
AnchorPoint: "Anchor-2" 600 0 basechar 0
AnchorPoint: "Anchor-1" 1180 1420 basechar 0
AnchorPoint: "Anchor-0" 600 1748 basechar 0
LayerCount: 2
Fore
SplineSet
259 1580 m 1
 519 1840 l 1
 691 1840 l 1
 951 1580 l 1
 729 1580 l 1
 605 1724 l 1
 481 1580 l 1
 259 1580 l 1
600 -20 m 0
 252 -20 76 218 76 700 c 0
 76 1194 252 1440 600 1440 c 0
 948 1440 1124 1194 1124 700 c 0
 1124 218 948 -20 600 -20 c 0
600 164 m 0
 809 164 914 342 914 700 c 0
 914 1072 809 1256 600 1256 c 0
 391 1256 286 1072 286 700 c 0
 286 342 391 164 600 164 c 0
600 -420 m 0
 526 -420 466 -360 466 -286 c 0
 466 -211 526 -152 600 -152 c 0
 674 -152 734 -211 734 -286 c 0
 734 -360 674 -420 600 -420 c 0
EndSplineSet
EndChar

StartChar: uni1ED2
Encoding: 7890 7890 102
Width: 1200
GlyphClass: 2
Flags: MW
HStem: -20 184<495.5 704.5 495.5 774> 1256 184<495.5 704.5> 1580 260<259 691 519 729 519 951> 1828 250<850 850 850 872 590 1092>
VStem: 76 210<521 886 521 947> 914 210<521 886>
AnchorPoint: "Anchor-3" 1080 10 basechar 0
AnchorPoint: "Anchor-2" 600 0 basechar 0
AnchorPoint: "Anchor-1" 1180 1420 basechar 0
AnchorPoint: "Anchor-0" 600 1748 basechar 0
LayerCount: 2
Fore
SplineSet
850 1828 m 1xdc
 590 2078 l 1
 872 2078 l 1
 1092 1828 l 1
 850 1828 l 1xdc
259 1580 m 1xec
 519 1840 l 1
 691 1840 l 1
 951 1580 l 1
 729 1580 l 1
 605 1724 l 1
 481 1580 l 1
 259 1580 l 1xec
600 -20 m 0
 252 -20 76 218 76 700 c 0
 76 1194 252 1440 600 1440 c 0
 948 1440 1124 1194 1124 700 c 0
 1124 218 948 -20 600 -20 c 0
600 164 m 0
 809 164 914 342 914 700 c 0
 914 1072 809 1256 600 1256 c 0
 391 1256 286 1072 286 700 c 0
 286 342 391 164 600 164 c 0
EndSplineSet
EndChar

StartChar: uni1ED4
Encoding: 7892 7892 103
Width: 1200
GlyphClass: 2
Flags: MW
HStem: -20 184<495.5 704.5 495.5 774> 1256 184<495.5 704.5> 1580 260<259 691 519 729 519 951> 2001 151<906 965.5>
VStem: 76 210<521 886 521 947> 883 155<1777 1783.5 1777 1798 1777 1810> 914 210<521 886> 1020 166<1949 1965.5>
AnchorPoint: "Anchor-3" 1080 10 basechar 0
AnchorPoint: "Anchor-2" 600 0 basechar 0
AnchorPoint: "Anchor-1" 1180 1420 basechar 0
AnchorPoint: "Anchor-0" 600 1748 basechar 0
LayerCount: 2
Fore
SplineSet
883 1777 m 1xfc
 883 1798 l 2xfc
 883 1822 901 1843 949 1876 c 0
 1001 1909 1020 1929 1020 1950 c 0
 1020 1981 993 2001 938 2001 c 0
 874 2001 820 1987 774 1958 c 1
 707 2077 l 1
 761 2127 845 2152 959 2152 c 0
 1111 2152 1186 2098 1186 1989 c 0xf9
 1186 1909 1154 1862 1067 1812 c 0
 1046 1800 1038 1790 1038 1777 c 1
 883 1777 l 1xfc
259 1580 m 1
 519 1840 l 1
 691 1840 l 1
 951 1580 l 1
 729 1580 l 1
 605 1724 l 1
 481 1580 l 1
 259 1580 l 1
600 -20 m 0
 252 -20 76 218 76 700 c 0
 76 1194 252 1440 600 1440 c 0
 948 1440 1124 1194 1124 700 c 0xfa
 1124 218 948 -20 600 -20 c 0
600 164 m 0xfa
 809 164 914 342 914 700 c 0
 914 1072 809 1256 600 1256 c 0
 391 1256 286 1072 286 700 c 0
 286 342 391 164 600 164 c 0xfa
EndSplineSet
EndChar

StartChar: uni1ED6
Encoding: 7894 7894 104
Width: 1200
GlyphClass: 2
Flags: MW
HStem: -20 184<495.5 704.5 495.5 774> 1256 184<495.5 704.5> 1580 260<259 691 519 729 519 951> 1894 300<225 462 365 399> 1928 166<784.5 787 752.5 869.5> 1928 290<823 869.5> 2028 166<448.5 462 365 490>
VStem: 76 210<521 886 521 947> 225 174<1894 1944 1944 1954 1894 2027.5> 823 172<2158 2168 2168 2218 2088 2218> 914 210<521 886>
AnchorPoint: "Anchor-3" 1080 10 basechar 0
AnchorPoint: "Anchor-2" 600 0 basechar 0
AnchorPoint: "Anchor-1" 1180 1420 basechar 0
AnchorPoint: "Anchor-0" 600 1748 basechar 0
LayerCount: 2
Fore
SplineSet
225 1894 m 1xf0a0
 225 1944 l 2
 225 2111 295 2194 435 2194 c 0xe2a0
 489 2194 546 2177 623 2145 c 0
 701 2113 736 2094 769 2094 c 0
 805 2094 823 2115 823 2158 c 2xe940
 823 2218 l 1
 995 2218 l 1
 995 2168 l 2
 995 2008 932 1928 807 1928 c 0xe540
 762 1928 700 1947 614 1983 c 0
 557 2007 507 2028 473 2028 c 0
 424 2028 399 2004 399 1954 c 2xe2a0
 399 1894 l 1
 225 1894 l 1xf0a0
259 1580 m 1
 519 1840 l 1
 691 1840 l 1
 951 1580 l 1
 729 1580 l 1
 605 1724 l 1
 481 1580 l 1
 259 1580 l 1
600 -20 m 0xe520
 252 -20 76 218 76 700 c 0
 76 1194 252 1440 600 1440 c 0
 948 1440 1124 1194 1124 700 c 0
 1124 218 948 -20 600 -20 c 0xe520
600 164 m 0
 809 164 914 342 914 700 c 0
 914 1072 809 1256 600 1256 c 0
 391 1256 286 1072 286 700 c 0
 286 342 391 164 600 164 c 0
EndSplineSet
EndChar

StartChar: Odieresis
Encoding: 214 214 105
Width: 1200
GlyphClass: 2
Flags: MW
HStem: -20 184<495.5 704.5 495.5 774> 1256 184<495.5 704.5> 1580 268<351 425 771 845>
VStem: 76 210<521 886 521 947> 254 268<1677 1751.5> 674 268<1677 1751.5> 914 210<521 886>
AnchorPoint: "Anchor-3" 1080 10 basechar 0
AnchorPoint: "Anchor-2" 600 0 basechar 0
AnchorPoint: "Anchor-1" 1180 1420 basechar 0
AnchorPoint: "Anchor-0" 600 1420 basechar 0
LayerCount: 2
Fore
SplineSet
808 1580 m 0xec
 734 1580 674 1640 674 1714 c 0
 674 1789 734 1848 808 1848 c 0
 882 1848 942 1789 942 1714 c 0
 942 1640 882 1580 808 1580 c 0xec
388 1580 m 0
 314 1580 254 1640 254 1714 c 0
 254 1789 314 1848 388 1848 c 0
 462 1848 522 1789 522 1714 c 0
 522 1640 462 1580 388 1580 c 0
600 -20 m 0xd2
 252 -20 76 218 76 700 c 0
 76 1194 252 1440 600 1440 c 0
 948 1440 1124 1194 1124 700 c 0
 1124 218 948 -20 600 -20 c 0xd2
600 164 m 0
 809 164 914 342 914 700 c 0
 914 1072 809 1256 600 1256 c 0
 391 1256 286 1072 286 700 c 0
 286 342 391 164 600 164 c 0
EndSplineSet
EndChar

StartChar: uni1ECC
Encoding: 7884 7884 106
Width: 1200
GlyphClass: 2
Flags: MW
HStem: -420 268<563 637> -20 184<495.5 704.5 495.5 774> 1256 184<495.5 704.5>
VStem: 76 210<521 886 521 947> 466 268<-323 -248.5> 914 210<521 886>
AnchorPoint: "Anchor-3" 1080 10 basechar 0
AnchorPoint: "Anchor-2" 600 0 basechar 0
AnchorPoint: "Anchor-1" 1180 1420 basechar 0
AnchorPoint: "Anchor-0" 600 1420 basechar 0
LayerCount: 2
Fore
SplineSet
600 -20 m 0
 252 -20 76 218 76 700 c 0
 76 1194 252 1440 600 1440 c 0
 948 1440 1124 1194 1124 700 c 0
 1124 218 948 -20 600 -20 c 0
600 164 m 0
 809 164 914 342 914 700 c 0
 914 1072 809 1256 600 1256 c 0
 391 1256 286 1072 286 700 c 0
 286 342 391 164 600 164 c 0
600 -420 m 0
 526 -420 466 -360 466 -286 c 0
 466 -211 526 -152 600 -152 c 0
 674 -152 734 -211 734 -286 c 0
 734 -360 674 -420 600 -420 c 0
EndSplineSet
EndChar

StartChar: Ograve
Encoding: 210 210 107
Width: 1200
GlyphClass: 2
Flags: MW
HStem: -20 184<495.5 704.5 495.5 774> 1256 184<495.5 704.5> 1580 250<499 499 499 521 239 741>
VStem: 76 210<521 886 521 947> 914 210<521 886>
AnchorPoint: "Anchor-3" 1080 10 basechar 0
AnchorPoint: "Anchor-2" 600 0 basechar 0
AnchorPoint: "Anchor-1" 1180 1420 basechar 0
AnchorPoint: "Anchor-0" 600 1420 basechar 0
LayerCount: 2
Fore
SplineSet
499 1580 m 1
 239 1830 l 1
 521 1830 l 1
 741 1580 l 1
 499 1580 l 1
600 -20 m 0
 252 -20 76 218 76 700 c 0
 76 1194 252 1440 600 1440 c 0
 948 1440 1124 1194 1124 700 c 0
 1124 218 948 -20 600 -20 c 0
600 164 m 0
 809 164 914 342 914 700 c 0
 914 1072 809 1256 600 1256 c 0
 391 1256 286 1072 286 700 c 0
 286 342 391 164 600 164 c 0
EndSplineSet
EndChar

StartChar: uni1ECE
Encoding: 7886 7886 108
Width: 1200
GlyphClass: 2
Flags: MW
HStem: -20 184<495.5 704.5 495.5 774> 1256 184<495.5 704.5> 1753 151<555 614.5>
VStem: 76 210<521 886 521 947> 532 155<1529 1535.5 1529 1550 1529 1562> 669 166<1701 1717.5> 914 210<521 886>
AnchorPoint: "Anchor-3" 1080 10 basechar 0
AnchorPoint: "Anchor-2" 600 0 basechar 0
AnchorPoint: "Anchor-1" 1180 1420 basechar 0
AnchorPoint: "Anchor-0" 600 1420 basechar 0
LayerCount: 2
Fore
SplineSet
532 1529 m 1xfa
 532 1550 l 2xfa
 532 1574 550 1595 598 1628 c 0
 650 1661 669 1681 669 1702 c 0
 669 1733 642 1753 587 1753 c 0
 523 1753 469 1739 423 1710 c 1
 356 1829 l 1
 410 1879 494 1904 608 1904 c 0
 760 1904 835 1850 835 1741 c 0xf6
 835 1661 803 1614 716 1564 c 0
 695 1552 687 1542 687 1529 c 1
 532 1529 l 1xfa
600 -20 m 0
 252 -20 76 218 76 700 c 0
 76 1194 252 1440 600 1440 c 0
 948 1440 1124 1194 1124 700 c 0
 1124 218 948 -20 600 -20 c 0
600 164 m 0
 809 164 914 342 914 700 c 0
 914 1072 809 1256 600 1256 c 0
 391 1256 286 1072 286 700 c 0
 286 342 391 164 600 164 c 0
EndSplineSet
EndChar

StartChar: Ohorn
Encoding: 416 416 109
Width: 1200
GlyphClass: 2
Flags: MW
HStem: -20 184<495.5 704.5 495.5 774> 1256 184<495.5 649.5 426 704.5>
VStem: 76 210<521 886 521 947> 914 210<521 819 459 886> 1056 192<1574 1653>
AnchorPoint: "Anchor-3" 1080 10 basechar 0
AnchorPoint: "Anchor-2" 600 0 basechar 0
AnchorPoint: "Anchor-1" 1180 1420 basechar 0
AnchorPoint: "Anchor-0" 600 1420 basechar 0
LayerCount: 2
Fore
SplineSet
600 -20 m 0xf0
 252 -20 76 218 76 700 c 0
 76 1194 252 1440 600 1440 c 0
 699 1440 784 1420 854 1381 c 1
 989 1405 1056 1495 1056 1653 c 1
 1248 1653 l 1xe8
 1248 1439 1166 1302 1002 1241 c 1
 1083 1118 1124 938 1124 700 c 0
 1124 218 948 -20 600 -20 c 0xf0
600 164 m 0
 809 164 914 342 914 700 c 0
 914 1072 809 1256 600 1256 c 0
 391 1256 286 1072 286 700 c 0
 286 342 391 164 600 164 c 0
EndSplineSet
EndChar

StartChar: uni1EDA
Encoding: 7898 7898 110
Width: 1200
GlyphClass: 2
Flags: MW
HStem: -20 184<495.5 704.5 495.5 774> 1256 184<495.5 649.5 426 704.5> 1580 250<469 971 689 711>
VStem: 76 210<521 886 521 947> 914 210<521 819 459 886> 1056 192<1574 1653>
AnchorPoint: "Anchor-3" 1080 10 basechar 0
AnchorPoint: "Anchor-2" 600 0 basechar 0
AnchorPoint: "Anchor-1" 1180 1420 basechar 0
AnchorPoint: "Anchor-0" 600 1420 basechar 0
LayerCount: 2
Fore
SplineSet
469 1580 m 1xf8
 689 1830 l 1
 971 1830 l 1
 711 1580 l 1
 469 1580 l 1xf8
600 -20 m 0
 252 -20 76 218 76 700 c 0
 76 1194 252 1440 600 1440 c 0
 699 1440 784 1420 854 1381 c 1
 989 1405 1056 1495 1056 1653 c 1
 1248 1653 l 1xf4
 1248 1439 1166 1302 1002 1241 c 1
 1083 1118 1124 938 1124 700 c 0
 1124 218 948 -20 600 -20 c 0
600 164 m 0
 809 164 914 342 914 700 c 0
 914 1072 809 1256 600 1256 c 0
 391 1256 286 1072 286 700 c 0
 286 342 391 164 600 164 c 0
EndSplineSet
EndChar

StartChar: uni1EE2
Encoding: 7906 7906 111
Width: 1200
GlyphClass: 2
Flags: MW
HStem: -420 268<563 637> -20 184<495.5 704.5 495.5 774> 1256 184<495.5 649.5 426 704.5>
VStem: 76 210<521 886 521 947> 466 268<-323 -248.5> 914 210<521 819 459 886> 1056 192<1574 1653>
AnchorPoint: "Anchor-3" 1080 10 basechar 0
AnchorPoint: "Anchor-2" 600 0 basechar 0
AnchorPoint: "Anchor-1" 1180 1420 basechar 0
AnchorPoint: "Anchor-0" 600 1420 basechar 0
LayerCount: 2
Fore
SplineSet
600 -20 m 0x74
 252 -20 76 218 76 700 c 0
 76 1194 252 1440 600 1440 c 0
 699 1440 784 1420 854 1381 c 1
 989 1405 1056 1495 1056 1653 c 1
 1248 1653 l 1x72
 1248 1439 1166 1302 1002 1241 c 1
 1083 1118 1124 938 1124 700 c 0
 1124 218 948 -20 600 -20 c 0x74
600 164 m 0
 809 164 914 342 914 700 c 0
 914 1072 809 1256 600 1256 c 0
 391 1256 286 1072 286 700 c 0
 286 342 391 164 600 164 c 0
600 -420 m 0xfc
 526 -420 466 -360 466 -286 c 0
 466 -211 526 -152 600 -152 c 0
 674 -152 734 -211 734 -286 c 0
 734 -360 674 -420 600 -420 c 0xfc
EndSplineSet
EndChar

StartChar: uni1EDC
Encoding: 7900 7900 112
Width: 1200
GlyphClass: 2
Flags: MW
HStem: -20 184<495.5 704.5 495.5 774> 1256 184<495.5 649.5 426 704.5> 1580 250<499 499 499 521 239 741>
VStem: 76 210<521 886 521 947> 914 210<521 819 459 886> 1056 192<1574 1653>
AnchorPoint: "Anchor-3" 1080 10 basechar 0
AnchorPoint: "Anchor-2" 600 0 basechar 0
AnchorPoint: "Anchor-1" 1180 1420 basechar 0
AnchorPoint: "Anchor-0" 600 1420 basechar 0
LayerCount: 2
Fore
SplineSet
499 1580 m 1xf8
 239 1830 l 1
 521 1830 l 1
 741 1580 l 1
 499 1580 l 1xf8
600 -20 m 0
 252 -20 76 218 76 700 c 0
 76 1194 252 1440 600 1440 c 0
 699 1440 784 1420 854 1381 c 1
 989 1405 1056 1495 1056 1653 c 1
 1248 1653 l 1xf4
 1248 1439 1166 1302 1002 1241 c 1
 1083 1118 1124 938 1124 700 c 0
 1124 218 948 -20 600 -20 c 0
600 164 m 0
 809 164 914 342 914 700 c 0
 914 1072 809 1256 600 1256 c 0
 391 1256 286 1072 286 700 c 0
 286 342 391 164 600 164 c 0
EndSplineSet
EndChar

StartChar: uni1EDE
Encoding: 7902 7902 113
Width: 1200
GlyphClass: 2
Flags: MW
HStem: -20 184<495.5 704.5 495.5 774> 1256 184<495.5 649.5 426 704.5> 1753 151<555 614.5>
VStem: 76 210<521 886 521 947> 532 155<1529 1535.5 1529 1550 1529 1562> 669 166<1701 1717.5> 914 210<521 819 459 886> 1056 192<1574 1653>
AnchorPoint: "Anchor-3" 1080 10 basechar 0
AnchorPoint: "Anchor-2" 600 0 basechar 0
AnchorPoint: "Anchor-1" 1180 1420 basechar 0
AnchorPoint: "Anchor-0" 600 1420 basechar 0
LayerCount: 2
Fore
SplineSet
532 1529 m 1xfa
 532 1550 l 2xfa
 532 1574 550 1595 598 1628 c 0
 650 1661 669 1681 669 1702 c 0
 669 1733 642 1753 587 1753 c 0
 523 1753 469 1739 423 1710 c 1
 356 1829 l 1
 410 1879 494 1904 608 1904 c 0
 760 1904 835 1850 835 1741 c 0xf6
 835 1661 803 1614 716 1564 c 0
 695 1552 687 1542 687 1529 c 1
 532 1529 l 1xfa
600 -20 m 0
 252 -20 76 218 76 700 c 0
 76 1194 252 1440 600 1440 c 0
 699 1440 784 1420 854 1381 c 1
 989 1405 1056 1495 1056 1653 c 1
 1248 1653 l 1xf9
 1248 1439 1166 1302 1002 1241 c 1
 1083 1118 1124 938 1124 700 c 0
 1124 218 948 -20 600 -20 c 0
600 164 m 0
 809 164 914 342 914 700 c 0
 914 1072 809 1256 600 1256 c 0
 391 1256 286 1072 286 700 c 0
 286 342 391 164 600 164 c 0
EndSplineSet
EndChar

StartChar: uni1EE0
Encoding: 7904 7904 114
Width: 1200
GlyphClass: 2
Flags: MW
HStem: -20 184<495.5 704.5 495.5 774> 1256 184<495.5 649.5 426 704.5> 1566 300<225 462 365 399> 1600 166<784.5 787 752.5 869.5> 1600 290<823 869.5> 1700 166<448.5 462 365 490>
VStem: 76 210<521 886 521 947> 225 174<1566 1616 1616 1626 1566 1699.5> 823 172<1830 1840 1840 1890 1760 1890> 914 210<521 819 459 886> 1056 192<1574 1653>
AnchorPoint: "Anchor-3" 1080 10 basechar 0
AnchorPoint: "Anchor-2" 600 0 basechar 0
AnchorPoint: "Anchor-1" 1180 1420 basechar 0
AnchorPoint: "Anchor-0" 600 1420 basechar 0
LayerCount: 2
Fore
SplineSet
225 1566 m 1xe140
 225 1616 l 2
 225 1783 295 1866 435 1866 c 0xc540
 489 1866 546 1849 623 1817 c 0
 701 1785 736 1766 769 1766 c 0
 805 1766 823 1787 823 1830 c 2xd280
 823 1890 l 1
 995 1890 l 1
 995 1840 l 2
 995 1680 932 1600 807 1600 c 0xca80
 762 1600 700 1619 614 1655 c 0
 557 1679 507 1700 473 1700 c 0
 424 1700 399 1676 399 1626 c 2xc540
 399 1566 l 1
 225 1566 l 1xe140
600 -20 m 0xc240
 252 -20 76 218 76 700 c 0
 76 1194 252 1440 600 1440 c 0
 699 1440 784 1420 854 1381 c 1
 989 1405 1056 1495 1056 1653 c 1
 1248 1653 l 1xc220
 1248 1439 1166 1302 1002 1241 c 1
 1083 1118 1124 938 1124 700 c 0
 1124 218 948 -20 600 -20 c 0xc240
600 164 m 0
 809 164 914 342 914 700 c 0
 914 1072 809 1256 600 1256 c 0
 391 1256 286 1072 286 700 c 0
 286 342 391 164 600 164 c 0
EndSplineSet
EndChar

StartChar: Ohungarumlaut
Encoding: 336 336 115
Width: 1200
GlyphClass: 2
Flags: MW
HStem: -20 184<495.5 704.5 495.5 774> 1256 184<495.5 704.5> 1580 250<249 691 409 491 659 659 659 691 819 901>
VStem: 76 210<521 886 521 947> 914 210<521 886>
AnchorPoint: "Anchor-3" 1080 10 basechar 0
AnchorPoint: "Anchor-2" 600 0 basechar 0
AnchorPoint: "Anchor-1" 1180 1420 basechar 0
AnchorPoint: "Anchor-0" 600 1420 basechar 0
LayerCount: 2
Fore
SplineSet
659 1580 m 1
 819 1830 l 1
 1101 1830 l 1
 901 1580 l 1
 659 1580 l 1
249 1580 m 1
 409 1830 l 1
 691 1830 l 1
 491 1580 l 1
 249 1580 l 1
600 -20 m 0
 252 -20 76 218 76 700 c 0
 76 1194 252 1440 600 1440 c 0
 948 1440 1124 1194 1124 700 c 0
 1124 218 948 -20 600 -20 c 0
600 164 m 0
 809 164 914 342 914 700 c 0
 914 1072 809 1256 600 1256 c 0
 391 1256 286 1072 286 700 c 0
 286 342 391 164 600 164 c 0
EndSplineSet
EndChar

StartChar: Omacron
Encoding: 332 332 116
Width: 1200
GlyphClass: 2
Flags: MW
HStem: -20 184<495.5 704.5 495.5 774> 1256 184<495.5 704.5> 1580 188<213 987 213 987>
VStem: 76 210<521 886 521 947> 914 210<521 886>
AnchorPoint: "Anchor-3" 1080 10 basechar 0
AnchorPoint: "Anchor-2" 600 0 basechar 0
AnchorPoint: "Anchor-1" 1180 1420 basechar 0
AnchorPoint: "Anchor-0" 600 1420 basechar 0
LayerCount: 2
Fore
SplineSet
213 1580 m 1
 213 1768 l 1
 987 1768 l 1
 987 1580 l 1
 213 1580 l 1
600 -20 m 0
 252 -20 76 218 76 700 c 0
 76 1194 252 1440 600 1440 c 0
 948 1440 1124 1194 1124 700 c 0
 1124 218 948 -20 600 -20 c 0
600 164 m 0
 809 164 914 342 914 700 c 0
 914 1072 809 1256 600 1256 c 0
 391 1256 286 1072 286 700 c 0
 286 342 391 164 600 164 c 0
EndSplineSet
EndChar

StartChar: uni01EA
Encoding: 490 490 117
Width: 1200
GlyphClass: 2
Flags: MW
HStem: -424 168<637.5 671> -17 21G<532 532> 1256 184<495.5 704.5>
VStem: 76 210<521 886 521 947> 418 150<-185.5 -183> 914 210<521 886>
AnchorPoint: "Anchor-3" 1080 10 basechar 0
AnchorPoint: "Anchor-2" 600 0 basechar 0
AnchorPoint: "Anchor-1" 1180 1420 basechar 0
AnchorPoint: "Anchor-0" 600 1420 basechar 0
LayerCount: 2
Fore
SplineSet
658 -424 m 0
 505 -424 418 -354 418 -232 c 0
 418 -134 460 -64 532 -40 c 1
 532 -17 l 1
 229 13 76 250 76 700 c 0
 76 1194 252 1440 600 1440 c 0
 948 1440 1124 1194 1124 700 c 0
 1124 310 1009 80 781 6 c 0
 683 -28 568 -57 568 -168 c 0
 568 -203 591 -256 684 -256 c 0
 706 -256 733 -253 766 -245 c 1
 748 -415 l 1
 714 -421 684 -424 658 -424 c 0
600 164 m 0
 809 164 914 342 914 700 c 0
 914 1072 809 1256 600 1256 c 0
 391 1256 286 1072 286 700 c 0
 286 342 391 164 600 164 c 0
EndSplineSet
EndChar

StartChar: Oslash
Encoding: 216 216 118
Width: 1200
GlyphClass: 2
Flags: MW
HStem: -20 184<562 704.5 562 774> 1256 184<495.5 636.5>
VStem: 76 210<637.5 886 637.5 947> 914 210<521 768.5>
AnchorPoint: "Anchor-3" 1080 10 basechar 0
AnchorPoint: "Anchor-2" 600 0 basechar 0
AnchorPoint: "Anchor-1" 1180 1420 basechar 0
AnchorPoint: "Anchor-0" 600 1420 basechar 0
LayerCount: 2
Fore
SplineSet
201 -134 m 1
 66 -59 l 1
 199 172 l 1
 117 292 76 467 76 700 c 0
 76 1194 252 1440 600 1440 c 0
 712 1440 806 1415 882 1364 c 1
 979 1532 l 1
 1114 1457 l 1
 996 1251 l 1
 1081 1128 1124 944 1124 700 c 0
 1124 218 948 -20 600 -20 c 0
 485 -20 389 6 311 58 c 1
 201 -134 l 1
286 700 m 0
 286 575 299 472 324 391 c 1
 782 1188 l 1
 734 1233 673 1256 600 1256 c 0
 391 1256 286 1072 286 700 c 0
600 164 m 0
 809 164 914 342 914 700 c 0
 914 837 900 948 871 1034 c 1
 413 235 l 1
 461 188 524 164 600 164 c 0
EndSplineSet
EndChar

StartChar: Oslashacute
Encoding: 510 510 119
Width: 1200
GlyphClass: 2
Flags: MW
HStem: -20 184<562 704.5 562 774> 1256 184<495.5 636.5> 1580 250<469 971 689 711>
VStem: 76 210<637.5 886 637.5 947> 914 210<521 768.5>
AnchorPoint: "Anchor-3" 1080 10 basechar 0
AnchorPoint: "Anchor-2" 600 0 basechar 0
AnchorPoint: "Anchor-1" 1180 1420 basechar 0
AnchorPoint: "Anchor-0" 600 1420 basechar 0
LayerCount: 2
Fore
SplineSet
469 1580 m 1
 689 1830 l 1
 971 1830 l 1
 711 1580 l 1
 469 1580 l 1
201 -134 m 1
 66 -59 l 1
 199 172 l 1
 117 292 76 467 76 700 c 0
 76 1194 252 1440 600 1440 c 0
 712 1440 806 1415 882 1364 c 1
 979 1532 l 1
 1114 1457 l 1
 996 1251 l 1
 1081 1128 1124 944 1124 700 c 0
 1124 218 948 -20 600 -20 c 0
 485 -20 389 6 311 58 c 1
 201 -134 l 1
286 700 m 0
 286 575 299 472 324 391 c 1
 782 1188 l 1
 734 1233 673 1256 600 1256 c 0
 391 1256 286 1072 286 700 c 0
600 164 m 0
 809 164 914 342 914 700 c 0
 914 837 900 948 871 1034 c 1
 413 235 l 1
 461 188 524 164 600 164 c 0
EndSplineSet
EndChar

StartChar: Otilde
Encoding: 213 213 120
Width: 1200
GlyphClass: 2
Flags: MW
HStem: -20 184<495.5 704.5 495.5 774> 1256 184<495.5 704.5> 1566 300<225 462 365 399> 1600 166<784.5 787 752.5 869.5> 1600 290<823 869.5> 1700 166<448.5 462 365 490>
VStem: 76 210<521 886 521 947> 225 174<1566 1616 1616 1626 1566 1699.5> 823 172<1830 1840 1840 1890 1760 1890> 914 210<521 886>
AnchorPoint: "Anchor-3" 1080 10 basechar 0
AnchorPoint: "Anchor-2" 600 0 basechar 0
AnchorPoint: "Anchor-1" 1180 1420 basechar 0
AnchorPoint: "Anchor-0" 600 1420 basechar 0
LayerCount: 2
Fore
SplineSet
225 1566 m 1xe140
 225 1616 l 2
 225 1783 295 1866 435 1866 c 0xc540
 489 1866 546 1849 623 1817 c 0
 701 1785 736 1766 769 1766 c 0
 805 1766 823 1787 823 1830 c 2xd280
 823 1890 l 1
 995 1890 l 1
 995 1840 l 2
 995 1680 932 1600 807 1600 c 0xca80
 762 1600 700 1619 614 1655 c 0
 557 1679 507 1700 473 1700 c 0
 424 1700 399 1676 399 1626 c 2xc540
 399 1566 l 1
 225 1566 l 1xe140
600 -20 m 0xc240
 252 -20 76 218 76 700 c 0
 76 1194 252 1440 600 1440 c 0
 948 1440 1124 1194 1124 700 c 0
 1124 218 948 -20 600 -20 c 0xc240
600 164 m 0
 809 164 914 342 914 700 c 0
 914 1072 809 1256 600 1256 c 0
 391 1256 286 1072 286 700 c 0
 286 342 391 164 600 164 c 0
EndSplineSet
EndChar

StartChar: OE
Encoding: 338 338 121
Width: 1200
GlyphClass: 2
Flags: MW
HStem: -20 184<452.5 542.5 452.5 557.5> 0 180<676.5 1100 780 1100 780 1100> 621 180<780 1040 780 1040> 1240 180<780 1100 780 780> 1256 184<445.5 535>
VStem: 76 210<529.5 876.5 529.5 935> 600 180<180 621 801 1234 1234 1234>
AnchorPoint: "Anchor-2" 640 0 basechar 0
AnchorPoint: "Anchor-0" 640 1420 basechar 0
LayerCount: 2
Fore
SplineSet
520 -20 m 0xb6
 238 -20 76 242 76 700 c 0x6e
 76 1170 238 1440 520 1440 c 0
 592 1440 638 1420 700 1420 c 2
 1100 1420 l 1
 1100 1240 l 1
 780 1240 l 1
 780 801 l 1
 1040 801 l 1
 1040 621 l 1
 780 621 l 1
 780 180 l 1
 1100 180 l 1
 1100 0 l 1
 700 0 l 2x76
 653 0 595 -20 520 -20 c 0xb6
530 164 m 0
 555 164 580 166 600 170 c 1
 600 1234 l 1
 578 1248 550 1256 520 1256 c 0xae
 371 1256 286 1053 286 700 c 0
 286 359 375 164 530 164 c 0
EndSplineSet
EndChar

StartChar: P
Encoding: 80 80 122
Width: 1200
GlyphClass: 2
Flags: MW
HStem: 0 21G<160 160 160 360> 440 190<360 578 360 578> 1230 190<360 578 360 360>
VStem: 160 200<0 440 0 630 630 1230> 910 210<828 1018.5>
AnchorPoint: "Anchor-2" 560 0 basechar 0
AnchorPoint: "Anchor-0" 560 1420 basechar 0
LayerCount: 2
Fore
SplineSet
160 0 m 1
 160 1420 l 1
 578 1420 l 2
 923 1420 1120 1245 1120 940 c 0
 1120 622 923 440 578 440 c 2
 360 440 l 1
 360 0 l 1
 160 0 l 1
578 1230 m 2
 360 1230 l 1
 360 630 l 1
 578 630 l 2
 789 630 910 736 910 920 c 0
 910 1117 789 1230 578 1230 c 2
EndSplineSet
EndChar

StartChar: Thorn
Encoding: 222 222 123
Width: 1200
GlyphClass: 2
Flags: MW
HStem: 0 21G<160 160 160 360> 220 190<360 578 360 578> 1010 190<360 578 360 578> 1400 20G<160 360 360 360>
VStem: 160 200<0 220 0 410 410 1010 1200 1420> 910 210<608 799>
AnchorPoint: "Anchor-2" 560 0 basechar 0
AnchorPoint: "Anchor-0" 560 1420 basechar 0
LayerCount: 2
Fore
SplineSet
160 0 m 1
 160 1420 l 1
 360 1420 l 1
 360 1200 l 1
 578 1200 l 2
 922 1200 1120 1026 1120 720 c 0
 1120 402 922 220 578 220 c 2
 360 220 l 1
 360 0 l 1
 160 0 l 1
578 1010 m 2
 360 1010 l 1
 360 410 l 1
 578 410 l 2
 789 410 910 516 910 700 c 0
 910 898 789 1010 578 1010 c 2
EndSplineSet
EndChar

StartChar: Q
Encoding: 81 81 124
Width: 1200
GlyphClass: 2
Flags: MW
HStem: -460 180<786 1032 930 1012> -12 21G<496 496> 1256 184<495.5 704.5>
VStem: 76 210<521 886 521 947> 496 198<-20 -14 -108 -12 -108 -12> 914 210<521 886>
AnchorPoint: "Anchor-3" 1080 10 basechar 0
AnchorPoint: "Anchor-2" 600 0 basechar 0
AnchorPoint: "Anchor-1" 1180 1420 basechar 0
AnchorPoint: "Anchor-0" 600 1420 basechar 0
LayerCount: 2
Fore
SplineSet
930 -460 m 2
 642 -460 496 -314 496 -20 c 2
 496 -12 l 1
 217 33 76 269 76 700 c 0
 76 1194 252 1440 600 1440 c 0
 948 1440 1124 1194 1124 700 c 0
 1124 264 980 27 694 -14 c 1
 694 -22 l 2
 694 -194 772 -280 930 -280 c 2
 1032 -280 l 1
 1012 -460 l 1
 930 -460 l 2
600 164 m 0
 809 164 914 342 914 700 c 0
 914 1072 809 1256 600 1256 c 0
 391 1256 286 1072 286 700 c 0
 286 342 391 164 600 164 c 0
EndSplineSet
EndChar

StartChar: R
Encoding: 82 82 125
Width: 1200
GlyphClass: 2
Flags: MW
HStem: 0 21G<140 140 140 340 902 902 902 1142> 540 190<340 628 340 628 628 645> 1230 190<340 628 340 340>
VStem: 140 200<0 540 0 730 730 1230> 880 210<894 1053>
AnchorPoint: "Anchor-2" 610 0 basechar 0
AnchorPoint: "Anchor-0" 560 1420 basechar 0
LayerCount: 2
Fore
SplineSet
140 0 m 1
 140 1420 l 1
 628 1420 l 2
 922 1420 1090 1264 1090 990 c 0
 1090 786 1005 644 849 579 c 1
 1142 0 l 1
 902 0 l 1
 645 540 l 1
 639 540 634 540 628 540 c 2
 340 540 l 1
 340 0 l 1
 140 0 l 1
628 1230 m 2
 340 1230 l 1
 340 730 l 1
 628 730 l 2
 787 730 880 818 880 970 c 0
 880 1136 787 1230 628 1230 c 2
EndSplineSet
EndChar

StartChar: Racute
Encoding: 340 340 126
Width: 1200
GlyphClass: 2
Flags: MW
HStem: 0 21G<140 140 140 340 902 902 902 1142> 540 190<340 628 340 628 628 645> 1230 190<340 628 340 340> 1580 250<429 931 649 671>
VStem: 140 200<0 540 0 730 730 1230> 880 210<894 1053>
AnchorPoint: "Anchor-2" 610 0 basechar 0
AnchorPoint: "Anchor-0" 560 1420 basechar 0
LayerCount: 2
Fore
SplineSet
429 1580 m 1
 649 1830 l 1
 931 1830 l 1
 671 1580 l 1
 429 1580 l 1
140 0 m 1
 140 1420 l 1
 628 1420 l 2
 922 1420 1090 1264 1090 990 c 0
 1090 786 1005 644 849 579 c 1
 1142 0 l 1
 902 0 l 1
 645 540 l 1
 639 540 634 540 628 540 c 2
 340 540 l 1
 340 0 l 1
 140 0 l 1
628 1230 m 2
 340 1230 l 1
 340 730 l 1
 628 730 l 2
 787 730 880 818 880 970 c 0
 880 1136 787 1230 628 1230 c 2
EndSplineSet
EndChar

StartChar: Rcaron
Encoding: 344 344 127
Width: 1200
GlyphClass: 2
Flags: MW
HStem: 0 21G<140 140 140 340 902 902 902 1142> 540 190<340 628 340 628 628 645> 1230 190<340 628 340 340> 1580 260<214 474 214 646>
VStem: 140 200<0 540 0 730 730 1230> 880 210<894 1053>
AnchorPoint: "Anchor-2" 610 0 basechar 0
AnchorPoint: "Anchor-0" 560 1840 basechar 0
LayerCount: 2
Fore
SplineSet
474 1580 m 1
 214 1840 l 1
 436 1840 l 1
 560 1696 l 1
 684 1840 l 1
 906 1840 l 1
 646 1580 l 1
 474 1580 l 1
140 0 m 1
 140 1420 l 1
 628 1420 l 2
 922 1420 1090 1264 1090 990 c 0
 1090 786 1005 644 849 579 c 1
 1142 0 l 1
 902 0 l 1
 645 540 l 1
 639 540 634 540 628 540 c 2
 340 540 l 1
 340 0 l 1
 140 0 l 1
628 1230 m 2
 340 1230 l 1
 340 730 l 1
 628 730 l 2
 787 730 880 818 880 970 c 0
 880 1136 787 1230 628 1230 c 2
EndSplineSet
EndChar

StartChar: uni0156
Encoding: 342 342 128
Width: 1200
GlyphClass: 2
Flags: MW
HStem: -480 340<425 724 502 607> 0 21G<140 140 140 340 902 902 902 1142> 540 190<340 628 340 628 628 645> 1230 190<340 628 340 340>
VStem: 140 200<0 540 0 730 730 1230> 880 210<894 1053>
AnchorPoint: "Anchor-2" 610 0 basechar 0
AnchorPoint: "Anchor-0" 560 1420 basechar 0
LayerCount: 2
Fore
SplineSet
140 0 m 1
 140 1420 l 1
 628 1420 l 2
 922 1420 1090 1264 1090 990 c 0
 1090 786 1005 644 849 579 c 1
 1142 0 l 1
 902 0 l 1
 645 540 l 1
 639 540 634 540 628 540 c 2
 340 540 l 1
 340 0 l 1
 140 0 l 1
628 1230 m 2
 340 1230 l 1
 340 730 l 1
 628 730 l 2
 787 730 880 818 880 970 c 0
 880 1136 787 1230 628 1230 c 2
425 -480 m 1
 502 -140 l 1
 724 -140 l 1
 607 -480 l 1
 425 -480 l 1
EndSplineSet
EndChar

StartChar: S
Encoding: 83 83 129
Width: 1200
GlyphClass: 2
Flags: MW
HStem: -20 184<502 660 502 721> 1256 184<549 677>
VStem: 167 214<1014 1124.5 1014 1174> 843 214<295.5 406>
AnchorPoint: "Anchor-2" 610 0 basechar 0
AnchorPoint: "Anchor-0" 600 1420 basechar 0
LayerCount: 2
Fore
SplineSet
551 -20 m 0
 389 -20 249 6 129 58 c 1
 155 260 l 1
 301 197 437 164 567 164 c 0
 753 164 843 229 843 362 c 0
 843 450 797 510 713 548 c 2
 467 660 l 2
 273 748 167 866 167 1050 c 0
 167 1298 334 1440 626 1440 c 0
 805 1440 934 1387 1061 1261 c 1
 921 1119 l 1
 814 1215 727 1256 627 1256 c 0
 471 1256 381 1189 381 1060 c 0
 381 968 431 915 527 870 c 2
 735 772 l 2
 945 673 1057 560 1057 366 c 0
 1057 109 891 -20 551 -20 c 0
EndSplineSet
EndChar

StartChar: Sacute
Encoding: 346 346 130
Width: 1200
GlyphClass: 2
Flags: MW
HStem: -20 184<502 660 502 721> 1256 184<549 677> 1580 250<469 971 689 711>
VStem: 167 214<1014 1124.5 1014 1174> 843 214<295.5 406>
AnchorPoint: "Anchor-2" 610 0 basechar 0
AnchorPoint: "Anchor-0" 600 1420 basechar 0
LayerCount: 2
Fore
SplineSet
469 1580 m 1
 689 1830 l 1
 971 1830 l 1
 711 1580 l 1
 469 1580 l 1
551 -20 m 0
 389 -20 249 6 129 58 c 1
 155 260 l 1
 301 197 437 164 567 164 c 0
 753 164 843 229 843 362 c 0
 843 450 797 510 713 548 c 2
 467 660 l 2
 273 748 167 866 167 1050 c 0
 167 1298 334 1440 626 1440 c 0
 805 1440 934 1387 1061 1261 c 1
 921 1119 l 1
 814 1215 727 1256 627 1256 c 0
 471 1256 381 1189 381 1060 c 0
 381 968 431 915 527 870 c 2
 735 772 l 2
 945 673 1057 560 1057 366 c 0
 1057 109 891 -20 551 -20 c 0
EndSplineSet
Substitution2: "'locl' Localized Forms in Latin lookup 360 subtable" Sacute.loclPLK
Substitution2: "'aalt' Access All Alternates lookup 0 subtable" Sacute.loclPLK
EndChar

StartChar: Scaron
Encoding: 352 352 131
Width: 1200
GlyphClass: 2
Flags: MW
HStem: -20 184<502 660 502 721> 1256 184<549 677> 1580 260<254 514 254 686>
VStem: 167 214<1014 1124.5 1014 1174> 843 214<295.5 406>
AnchorPoint: "Anchor-2" 610 0 basechar 0
AnchorPoint: "Anchor-0" 600 1840 basechar 0
LayerCount: 2
Fore
SplineSet
514 1580 m 1
 254 1840 l 1
 476 1840 l 1
 600 1696 l 1
 724 1840 l 1
 946 1840 l 1
 686 1580 l 1
 514 1580 l 1
551 -20 m 0
 389 -20 249 6 129 58 c 1
 155 260 l 1
 301 197 437 164 567 164 c 0
 753 164 843 229 843 362 c 0
 843 450 797 510 713 548 c 2
 467 660 l 2
 273 748 167 866 167 1050 c 0
 167 1298 334 1440 626 1440 c 0
 805 1440 934 1387 1061 1261 c 1
 921 1119 l 1
 814 1215 727 1256 627 1256 c 0
 471 1256 381 1189 381 1060 c 0
 381 968 431 915 527 870 c 2
 735 772 l 2
 945 673 1057 560 1057 366 c 0
 1057 109 891 -20 551 -20 c 0
EndSplineSet
EndChar

StartChar: Scedilla
Encoding: 350 350 132
Width: 1200
GlyphClass: 2
Flags: MW
HStem: -480 150<449 512 449 575.5> -20 184<535 535> 1256 184<549 677>
VStem: 167 214<1014 1124.5 1014 1174> 637 190<-282 -235> 843 214<295.5 406>
AnchorPoint: "Anchor-2" 610 0 basechar 0
AnchorPoint: "Anchor-0" 600 1420 basechar 0
LayerCount: 2
Fore
SplineSet
449 -480 m 1
 449 -330 l 1
 575 -330 637 -306 637 -258 c 0xf8
 637 -212 584 -190 475 -190 c 1
 535 -20 l 1
 380 -18 245 8 129 58 c 1
 155 260 l 1
 301 197 437 164 567 164 c 0
 753 164 843 229 843 362 c 0
 843 450 797 510 713 548 c 2
 467 660 l 2
 273 748 167 866 167 1050 c 0
 167 1298 334 1440 626 1440 c 0
 805 1440 934 1387 1061 1261 c 1
 921 1119 l 1
 814 1215 727 1256 627 1256 c 0
 471 1256 381 1189 381 1060 c 0
 381 968 431 915 527 870 c 2
 735 772 l 2
 945 673 1057 560 1057 366 c 0xfc
 1057 143 932 17 678 -13 c 1
 655 -100 l 1
 770 -124 827 -179 827 -267 c 0
 827 -409 702 -480 449 -480 c 1
EndSplineSet
Substitution2: "'locl' Localized Forms in Latin lookup 359 subtable" uni0218
Substitution2: "'aalt' Access All Alternates lookup 0 subtable" uni0218
EndChar

StartChar: Scircumflex
Encoding: 348 348 133
Width: 1200
GlyphClass: 2
Flags: MW
HStem: -20 184<502 660 502 721> 1256 184<549 677> 1580 260<259 691 519 729 519 951>
VStem: 167 214<1014 1124.5 1014 1174> 843 214<295.5 406>
AnchorPoint: "Anchor-2" 610 0 basechar 0
AnchorPoint: "Anchor-0" 600 1748 basechar 0
LayerCount: 2
Fore
SplineSet
259 1580 m 1
 519 1840 l 1
 691 1840 l 1
 951 1580 l 1
 729 1580 l 1
 605 1724 l 1
 481 1580 l 1
 259 1580 l 1
551 -20 m 0
 389 -20 249 6 129 58 c 1
 155 260 l 1
 301 197 437 164 567 164 c 0
 753 164 843 229 843 362 c 0
 843 450 797 510 713 548 c 2
 467 660 l 2
 273 748 167 866 167 1050 c 0
 167 1298 334 1440 626 1440 c 0
 805 1440 934 1387 1061 1261 c 1
 921 1119 l 1
 814 1215 727 1256 627 1256 c 0
 471 1256 381 1189 381 1060 c 0
 381 968 431 915 527 870 c 2
 735 772 l 2
 945 673 1057 560 1057 366 c 0
 1057 109 891 -20 551 -20 c 0
EndSplineSet
EndChar

StartChar: uni0218
Encoding: 536 536 134
Width: 1200
GlyphClass: 2
Flags: MW
HStem: -480 340<425 724 502 607> -20 184<502 660 502 721> 1256 184<549 677>
VStem: 167 214<1014 1124.5 1014 1174> 843 214<295.5 406>
AnchorPoint: "Anchor-2" 610 0 basechar 0
AnchorPoint: "Anchor-0" 600 1420 basechar 0
LayerCount: 2
Fore
SplineSet
551 -20 m 0
 389 -20 249 6 129 58 c 1
 155 260 l 1
 301 197 437 164 567 164 c 0
 753 164 843 229 843 362 c 0
 843 450 797 510 713 548 c 2
 467 660 l 2
 273 748 167 866 167 1050 c 0
 167 1298 334 1440 626 1440 c 0
 805 1440 934 1387 1061 1261 c 1
 921 1119 l 1
 814 1215 727 1256 627 1256 c 0
 471 1256 381 1189 381 1060 c 0
 381 968 431 915 527 870 c 2
 735 772 l 2
 945 673 1057 560 1057 366 c 0
 1057 109 891 -20 551 -20 c 0
425 -480 m 1
 502 -140 l 1
 724 -140 l 1
 607 -480 l 1
 425 -480 l 1
EndSplineSet
EndChar

StartChar: uni1E9E
Encoding: 7838 7838 135
Width: 1200
Flags: MW
HStem: -20 192<646 761.5 646 818.5> 0 21G<140 140 140 340> 1250 190<656 686>
VStem: 140 200<0 930 0 1109> 943 214<349.5 496>
LayerCount: 2
Fore
SplineSet
140 0 m 1x78
 140 930 l 2
 140 1288 294 1440 656 1440 c 0
 826 1440 974 1384 1104 1270 c 1
 1105 1270 l 1
 825 867 l 1
 1037 815 1157 664 1157 446 c 0
 1157 150 976 -20 661 -20 c 0
 583 -20 509 -11 459 3 c 1
 485 190 l 1
 545 179 615 172 677 172 c 0xb8
 846 172 943 267 943 432 c 0
 943 560 862 659 721 704 c 1
 546 754 l 1
 834 1200 l 1
 775 1233 716 1250 656 1250 c 0
 434 1251 340 1154 340 930 c 2
 340 0 l 1
 140 0 l 1x78
EndSplineSet
EndChar

StartChar: uni018F
Encoding: 399 399 136
Width: 1200
Flags: MW
HStem: -20 184<503 695 503 774> 608 190<288 910 80 911 288 288> 1256 184<446.5 625.5>
VStem: 76 212<608 608 608 700.5> 911 213<608 608>
LayerCount: 2
Fore
SplineSet
600 -20 m 0
 252 -20 76 211 76 680 c 0
 76 721 77 761 80 798 c 1
 910 798 l 1
 887 1104 751 1256 500 1256 c 0
 393 1256 290 1243 196 1217 c 1
 168 1394 l 1
 273 1425 385 1440 500 1440 c 0
 914 1440 1124 1194 1124 700 c 0
 1124 218 948 -20 600 -20 c 0
600 164 m 0
 790 164 894 311 911 608 c 1
 288 608 l 1
 302 311 406 164 600 164 c 0
EndSplineSet
EndChar

StartChar: T
Encoding: 84 84 137
Width: 1200
GlyphClass: 2
Flags: MW
HStem: 0 21G<500 500 500 700> 1230 190<80 500 80 1120 700 700 700 1120>
VStem: 500 200<0 1230 0 1230>
AnchorPoint: "Anchor-2" 595 0 basechar 0
AnchorPoint: "Anchor-0" 600 1420 basechar 0
LayerCount: 2
Fore
SplineSet
500 0 m 1
 500 1230 l 1
 80 1230 l 1
 80 1420 l 1
 1120 1420 l 1
 1120 1230 l 1
 700 1230 l 1
 700 0 l 1
 500 0 l 1
EndSplineSet
EndChar

StartChar: Tbar
Encoding: 358 358 138
Width: 1200
GlyphClass: 2
Flags: MW
HStem: 0 21G<500 500 500 700> 592 180<192 500 192 500 700 1008> 1230 190<80 500 80 1120 700 700 700 1120>
VStem: 500 200<0 592 0 592 772 1230>
AnchorPoint: "Anchor-2" 595 0 basechar 0
AnchorPoint: "Anchor-0" 600 1420 basechar 0
LayerCount: 2
Fore
SplineSet
500 0 m 1
 500 592 l 1
 192 592 l 1
 192 772 l 1
 500 772 l 1
 500 1230 l 1
 80 1230 l 1
 80 1420 l 1
 1120 1420 l 1
 1120 1230 l 1
 700 1230 l 1
 700 772 l 1
 1008 772 l 1
 1008 592 l 1
 700 592 l 1
 700 0 l 1
 500 0 l 1
EndSplineSet
EndChar

StartChar: Tcaron
Encoding: 356 356 139
Width: 1200
GlyphClass: 2
Flags: MW
HStem: 0 21G<500 500 500 700> 1230 190<80 500 80 1120 700 700 700 1120> 1580 260<254 514 254 686>
VStem: 500 200<0 1230 0 1230>
AnchorPoint: "Anchor-2" 595 0 basechar 0
AnchorPoint: "Anchor-0" 600 1840 basechar 0
LayerCount: 2
Fore
SplineSet
514 1580 m 1
 254 1840 l 1
 476 1840 l 1
 600 1696 l 1
 724 1840 l 1
 946 1840 l 1
 686 1580 l 1
 514 1580 l 1
500 0 m 1
 500 1230 l 1
 80 1230 l 1
 80 1420 l 1
 1120 1420 l 1
 1120 1230 l 1
 700 1230 l 1
 700 0 l 1
 500 0 l 1
EndSplineSet
EndChar

StartChar: uni0162
Encoding: 354 354 140
Width: 1200
GlyphClass: 2
Flags: MW
HStem: -480 150<434 497 434 560.5> 0 21G<500 500 500 527 667 667 667 700> 1230 190<80 500 80 1120 700 700 700 1120>
VStem: 500 200<0 1230 0 1230> 622 190<-282 -235>
AnchorPoint: "Anchor-2" 595 0 basechar 0
AnchorPoint: "Anchor-0" 600 1420 basechar 0
LayerCount: 2
Fore
SplineSet
500 0 m 1xf0
 500 1230 l 1
 80 1230 l 1
 80 1420 l 1
 1120 1420 l 1
 1120 1230 l 1
 700 1230 l 1
 700 0 l 1
 667 0 l 1xf0
 640 -100 l 1
 755 -124 812 -179 812 -267 c 0
 812 -409 687 -480 434 -480 c 1
 434 -330 l 1
 560 -330 622 -306 622 -258 c 0xe8
 622 -212 569 -190 460 -190 c 1
 527 0 l 1
 500 0 l 1xf0
EndSplineSet
Substitution2: "'locl' Localized Forms in Latin lookup 359 subtable" uni021A
Substitution2: "'aalt' Access All Alternates lookup 0 subtable" uni021A
EndChar

StartChar: uni021A
Encoding: 538 538 141
Width: 1200
GlyphClass: 2
Flags: MW
HStem: -480 340<410 709 487 592> 0 21G<500 500 500 700> 1230 190<80 500 80 1120 700 700 700 1120>
VStem: 500 200<0 1230 0 1230>
AnchorPoint: "Anchor-2" 595 0 basechar 0
AnchorPoint: "Anchor-0" 600 1420 basechar 0
LayerCount: 2
Fore
SplineSet
500 0 m 1
 500 1230 l 1
 80 1230 l 1
 80 1420 l 1
 1120 1420 l 1
 1120 1230 l 1
 700 1230 l 1
 700 0 l 1
 500 0 l 1
410 -480 m 1
 487 -140 l 1
 709 -140 l 1
 592 -480 l 1
 410 -480 l 1
EndSplineSet
EndChar

StartChar: U
Encoding: 85 85 142
Width: 1200
GlyphClass: 2
Flags: MW
HStem: -20 190<510 686 510 748> 1400 20G<140 340 340 340 860 1060 1060 1060>
VStem: 140 200<456 1420> 860 200<456 1420>
AnchorPoint: "Anchor-3" 1080 10 basechar 0
AnchorPoint: "Anchor-2" 600 0 basechar 0
AnchorPoint: "Anchor-1" 1180 1420 basechar 0
AnchorPoint: "Anchor-0" 600 1420 basechar 0
LayerCount: 2
Fore
SplineSet
596 -20 m 0
 292 -20 140 138 140 456 c 2
 140 1420 l 1
 340 1420 l 1
 340 456 l 2
 340 266 420 170 600 170 c 0
 772 170 860 266 860 456 c 2
 860 1420 l 1
 1060 1420 l 1
 1060 456 l 2
 1060 138 900 -20 596 -20 c 0
EndSplineSet
EndChar

StartChar: Uacute
Encoding: 218 218 143
Width: 1200
GlyphClass: 2
Flags: MW
HStem: -20 190<510 686 510 748> 1400 20G<140 340 340 340 860 1060 1060 1060> 1580 250<469 971 689 711>
VStem: 140 200<456 1420> 860 200<456 1420>
AnchorPoint: "Anchor-3" 1080 10 basechar 0
AnchorPoint: "Anchor-2" 600 0 basechar 0
AnchorPoint: "Anchor-1" 1180 1420 basechar 0
AnchorPoint: "Anchor-0" 600 1420 basechar 0
LayerCount: 2
Fore
SplineSet
469 1580 m 1
 689 1830 l 1
 971 1830 l 1
 711 1580 l 1
 469 1580 l 1
596 -20 m 0
 292 -20 140 138 140 456 c 2
 140 1420 l 1
 340 1420 l 1
 340 456 l 2
 340 266 420 170 600 170 c 0
 772 170 860 266 860 456 c 2
 860 1420 l 1
 1060 1420 l 1
 1060 456 l 2
 1060 138 900 -20 596 -20 c 0
EndSplineSet
EndChar

StartChar: Ubreve
Encoding: 364 364 144
Width: 1200
GlyphClass: 2
Flags: MW
HStem: -20 190<510 686 510 748> 1400 20G<140 340 340 340 860 1060 1060 1060> 1570 136<559 641 559 696.5> 1570 290<296 696.5>
VStem: 140 200<456 1420> 296 175<1811 1860 1811 1860> 729 175<1811 1860> 860 200<456 1420>
AnchorPoint: "Anchor-3" 1080 10 basechar 0
AnchorPoint: "Anchor-2" 600 0 basechar 0
AnchorPoint: "Anchor-1" 1180 1420 basechar 0
AnchorPoint: "Anchor-0" 600 1742 basechar 0
LayerCount: 2
Fore
SplineSet
600 1570 m 0xe5
 407 1570 296 1676 296 1860 c 1
 471 1860 l 1xd5
 471 1762 518 1706 600 1706 c 0xea
 682 1706 729 1762 729 1860 c 1
 904 1860 l 1xda
 904 1676 793 1570 600 1570 c 0xe5
596 -20 m 0xe9
 292 -20 140 138 140 456 c 2
 140 1420 l 1
 340 1420 l 1
 340 456 l 2
 340 266 420 170 600 170 c 0
 772 170 860 266 860 456 c 2
 860 1420 l 1
 1060 1420 l 1
 1060 456 l 2
 1060 138 900 -20 596 -20 c 0xe9
EndSplineSet
EndChar

StartChar: Ucircumflex
Encoding: 219 219 145
Width: 1200
GlyphClass: 2
Flags: MW
HStem: -20 190<510 686 510 748> 1400 20G<140 340 340 340 860 1060 1060 1060> 1580 260<259 691 519 729 519 951>
VStem: 140 200<456 1420> 860 200<456 1420>
AnchorPoint: "Anchor-3" 1080 10 basechar 0
AnchorPoint: "Anchor-2" 600 0 basechar 0
AnchorPoint: "Anchor-1" 1180 1420 basechar 0
AnchorPoint: "Anchor-0" 600 1748 basechar 0
LayerCount: 2
Fore
SplineSet
259 1580 m 1
 519 1840 l 1
 691 1840 l 1
 951 1580 l 1
 729 1580 l 1
 605 1724 l 1
 481 1580 l 1
 259 1580 l 1
596 -20 m 0
 292 -20 140 138 140 456 c 2
 140 1420 l 1
 340 1420 l 1
 340 456 l 2
 340 266 420 170 600 170 c 0
 772 170 860 266 860 456 c 2
 860 1420 l 1
 1060 1420 l 1
 1060 456 l 2
 1060 138 900 -20 596 -20 c 0
EndSplineSet
EndChar

StartChar: Udieresis
Encoding: 220 220 146
Width: 1200
GlyphClass: 2
Flags: MW
HStem: -20 190<510 686 510 748> 1400 20G<140 340 340 340 860 1060 1060 1060> 1580 268<351 425 771 845>
VStem: 140 200<456 1420> 254 268<1677 1751.5> 674 268<1677 1751.5> 860 200<456 1420>
AnchorPoint: "Anchor-3" 1080 10 basechar 0
AnchorPoint: "Anchor-2" 600 0 basechar 0
AnchorPoint: "Anchor-1" 1180 1420 basechar 0
AnchorPoint: "Anchor-0" 600 1420 basechar 0
LayerCount: 2
Fore
SplineSet
808 1580 m 0xec
 734 1580 674 1640 674 1714 c 0
 674 1789 734 1848 808 1848 c 0
 882 1848 942 1789 942 1714 c 0
 942 1640 882 1580 808 1580 c 0xec
388 1580 m 0
 314 1580 254 1640 254 1714 c 0
 254 1789 314 1848 388 1848 c 0
 462 1848 522 1789 522 1714 c 0
 522 1640 462 1580 388 1580 c 0
596 -20 m 0xf2
 292 -20 140 138 140 456 c 2
 140 1420 l 1
 340 1420 l 1
 340 456 l 2
 340 266 420 170 600 170 c 0
 772 170 860 266 860 456 c 2
 860 1420 l 1
 1060 1420 l 1
 1060 456 l 2
 1060 138 900 -20 596 -20 c 0xf2
EndSplineSet
EndChar

StartChar: uni1EE4
Encoding: 7908 7908 147
Width: 1200
GlyphClass: 2
Flags: MW
HStem: -420 268<563 637> -20 190<510 686 510 748> 1400 20G<140 340 340 340 860 1060 1060 1060>
VStem: 140 200<456 1420> 466 268<-323 -248.5> 860 200<456 1420>
AnchorPoint: "Anchor-3" 1080 10 basechar 0
AnchorPoint: "Anchor-2" 600 0 basechar 0
AnchorPoint: "Anchor-1" 1180 1420 basechar 0
AnchorPoint: "Anchor-0" 600 1420 basechar 0
LayerCount: 2
Fore
SplineSet
596 -20 m 0
 292 -20 140 138 140 456 c 2
 140 1420 l 1
 340 1420 l 1
 340 456 l 2
 340 266 420 170 600 170 c 0
 772 170 860 266 860 456 c 2
 860 1420 l 1
 1060 1420 l 1
 1060 456 l 2
 1060 138 900 -20 596 -20 c 0
600 -420 m 0
 526 -420 466 -360 466 -286 c 0
 466 -211 526 -152 600 -152 c 0
 674 -152 734 -211 734 -286 c 0
 734 -360 674 -420 600 -420 c 0
EndSplineSet
EndChar

StartChar: Ugrave
Encoding: 217 217 148
Width: 1200
GlyphClass: 2
Flags: MW
HStem: -20 190<510 686 510 748> 1400 20G<140 340 340 340 860 1060 1060 1060> 1580 250<499 499 499 521 239 741>
VStem: 140 200<456 1420> 860 200<456 1420>
AnchorPoint: "Anchor-3" 1080 10 basechar 0
AnchorPoint: "Anchor-2" 600 0 basechar 0
AnchorPoint: "Anchor-1" 1180 1420 basechar 0
AnchorPoint: "Anchor-0" 600 1420 basechar 0
LayerCount: 2
Fore
SplineSet
499 1580 m 1
 239 1830 l 1
 521 1830 l 1
 741 1580 l 1
 499 1580 l 1
596 -20 m 0
 292 -20 140 138 140 456 c 2
 140 1420 l 1
 340 1420 l 1
 340 456 l 2
 340 266 420 170 600 170 c 0
 772 170 860 266 860 456 c 2
 860 1420 l 1
 1060 1420 l 1
 1060 456 l 2
 1060 138 900 -20 596 -20 c 0
EndSplineSet
EndChar

StartChar: uni1EE6
Encoding: 7910 7910 149
Width: 1200
GlyphClass: 2
Flags: MW
HStem: -20 190<510 686 510 748> 1400 20G<140 340 340 340 860 1060 1060 1060> 1753 151<555 614.5>
VStem: 140 200<456 1420> 532 155<1529 1535.5 1529 1550 1529 1562> 669 166<1701 1717.5> 860 200<456 1420>
AnchorPoint: "Anchor-3" 1080 10 basechar 0
AnchorPoint: "Anchor-2" 600 0 basechar 0
AnchorPoint: "Anchor-1" 1180 1420 basechar 0
AnchorPoint: "Anchor-0" 600 1420 basechar 0
LayerCount: 2
Fore
SplineSet
532 1529 m 1xfa
 532 1550 l 2xfa
 532 1574 550 1595 598 1628 c 0
 650 1661 669 1681 669 1702 c 0
 669 1733 642 1753 587 1753 c 0
 523 1753 469 1739 423 1710 c 1
 356 1829 l 1
 410 1879 494 1904 608 1904 c 0
 760 1904 835 1850 835 1741 c 0xf6
 835 1661 803 1614 716 1564 c 0
 695 1552 687 1542 687 1529 c 1
 532 1529 l 1xfa
596 -20 m 0
 292 -20 140 138 140 456 c 2
 140 1420 l 1
 340 1420 l 1
 340 456 l 2
 340 266 420 170 600 170 c 0
 772 170 860 266 860 456 c 2
 860 1420 l 1
 1060 1420 l 1
 1060 456 l 2
 1060 138 900 -20 596 -20 c 0
EndSplineSet
EndChar

StartChar: Uhorn
Encoding: 431 431 150
Width: 1200
GlyphClass: 2
Flags: MW
HStem: -20 190<510 686 510 748> 1400 20G<140 340 340 340 860 860>
VStem: 140 200<456 1420> 860 200<456 1287> 1106 192<1588 1653>
AnchorPoint: "Anchor-3" 1080 10 basechar 0
AnchorPoint: "Anchor-2" 600 0 basechar 0
AnchorPoint: "Anchor-1" 1180 1420 basechar 0
AnchorPoint: "Anchor-0" 600 1420 basechar 0
LayerCount: 2
Fore
SplineSet
596 -20 m 0
 292 -20 140 138 140 456 c 2
 140 1420 l 1
 340 1420 l 1
 340 456 l 2
 340 266 420 170 600 170 c 0
 772 170 860 266 860 456 c 2
 860 1420 l 1
 921 1430 l 2
 1045 1450 1106 1523 1106 1653 c 1
 1298 1653 l 1
 1298 1461 1219 1340 1060 1287 c 1
 1060 456 l 2
 1060 138 900 -20 596 -20 c 0
EndSplineSet
EndChar

StartChar: uni1EE8
Encoding: 7912 7912 151
Width: 1200
GlyphClass: 2
Flags: MW
HStem: -20 190<510 686 510 748> 1400 20G<140 340 340 340 860 860> 1580 250<469 971 689 711>
VStem: 140 200<456 1420> 860 200<456 1287> 1106 192<1588 1653>
AnchorPoint: "Anchor-3" 1080 10 basechar 0
AnchorPoint: "Anchor-2" 600 0 basechar 0
AnchorPoint: "Anchor-1" 1180 1420 basechar 0
AnchorPoint: "Anchor-0" 600 1420 basechar 0
LayerCount: 2
Fore
SplineSet
469 1580 m 1
 689 1830 l 1
 971 1830 l 1
 711 1580 l 1
 469 1580 l 1
596 -20 m 0
 292 -20 140 138 140 456 c 2
 140 1420 l 1
 340 1420 l 1
 340 456 l 2
 340 266 420 170 600 170 c 0
 772 170 860 266 860 456 c 2
 860 1420 l 1
 921 1430 l 2
 1045 1450 1106 1523 1106 1653 c 1
 1298 1653 l 1
 1298 1461 1219 1340 1060 1287 c 1
 1060 456 l 2
 1060 138 900 -20 596 -20 c 0
EndSplineSet
EndChar

StartChar: uni1EF0
Encoding: 7920 7920 152
Width: 1200
GlyphClass: 2
Flags: MW
HStem: -420 268<563 637> -20 190<510 686 510 748> 1400 20G<140 340 340 340 860 860>
VStem: 140 200<456 1420> 466 268<-323 -248.5> 860 200<456 1287> 1106 192<1588 1653>
AnchorPoint: "Anchor-3" 1080 10 basechar 0
AnchorPoint: "Anchor-2" 600 0 basechar 0
AnchorPoint: "Anchor-1" 1180 1420 basechar 0
AnchorPoint: "Anchor-0" 600 1420 basechar 0
LayerCount: 2
Fore
SplineSet
596 -20 m 0
 292 -20 140 138 140 456 c 2
 140 1420 l 1
 340 1420 l 1
 340 456 l 2
 340 266 420 170 600 170 c 0
 772 170 860 266 860 456 c 2
 860 1420 l 1
 921 1430 l 2
 1045 1450 1106 1523 1106 1653 c 1
 1298 1653 l 1
 1298 1461 1219 1340 1060 1287 c 1
 1060 456 l 2
 1060 138 900 -20 596 -20 c 0
600 -420 m 0
 526 -420 466 -360 466 -286 c 0
 466 -211 526 -152 600 -152 c 0
 674 -152 734 -211 734 -286 c 0
 734 -360 674 -420 600 -420 c 0
EndSplineSet
EndChar

StartChar: uni1EEA
Encoding: 7914 7914 153
Width: 1200
GlyphClass: 2
Flags: MW
HStem: -20 190<510 686 510 748> 1400 20G<140 340 340 340 860 860> 1580 250<499 499 499 521 239 741>
VStem: 140 200<456 1420> 860 200<456 1287> 1106 192<1588 1653>
AnchorPoint: "Anchor-3" 1080 10 basechar 0
AnchorPoint: "Anchor-2" 600 0 basechar 0
AnchorPoint: "Anchor-1" 1180 1420 basechar 0
AnchorPoint: "Anchor-0" 600 1420 basechar 0
LayerCount: 2
Fore
SplineSet
499 1580 m 1
 239 1830 l 1
 521 1830 l 1
 741 1580 l 1
 499 1580 l 1
596 -20 m 0
 292 -20 140 138 140 456 c 2
 140 1420 l 1
 340 1420 l 1
 340 456 l 2
 340 266 420 170 600 170 c 0
 772 170 860 266 860 456 c 2
 860 1420 l 1
 921 1430 l 2
 1045 1450 1106 1523 1106 1653 c 1
 1298 1653 l 1
 1298 1461 1219 1340 1060 1287 c 1
 1060 456 l 2
 1060 138 900 -20 596 -20 c 0
EndSplineSet
EndChar

StartChar: uni1EEC
Encoding: 7916 7916 154
Width: 1200
GlyphClass: 2
Flags: MW
HStem: -20 190<510 686 510 748> 1400 20G<140 340 340 340 860 860> 1753 151<555 614.5>
VStem: 140 200<456 1420> 532 155<1529 1535.5 1529 1550 1529 1562> 669 166<1701 1717.5> 860 200<456 1287> 1106 192<1588 1653>
AnchorPoint: "Anchor-3" 1080 10 basechar 0
AnchorPoint: "Anchor-2" 600 0 basechar 0
AnchorPoint: "Anchor-1" 1180 1420 basechar 0
AnchorPoint: "Anchor-0" 600 1420 basechar 0
LayerCount: 2
Fore
SplineSet
532 1529 m 1xfa
 532 1550 l 2xfb
 532 1574 550 1595 598 1628 c 0
 650 1661 669 1681 669 1702 c 0
 669 1733 642 1753 587 1753 c 0
 523 1753 469 1739 423 1710 c 1
 356 1829 l 1
 410 1879 494 1904 608 1904 c 0
 760 1904 835 1850 835 1741 c 0xf6
 835 1661 803 1614 716 1564 c 0
 695 1552 687 1542 687 1529 c 1
 532 1529 l 1xfa
596 -20 m 0
 292 -20 140 138 140 456 c 2
 140 1420 l 1
 340 1420 l 1
 340 456 l 2
 340 266 420 170 600 170 c 0
 772 170 860 266 860 456 c 2
 860 1420 l 1
 921 1430 l 2
 1045 1450 1106 1523 1106 1653 c 1
 1298 1653 l 1
 1298 1461 1219 1340 1060 1287 c 1
 1060 456 l 2
 1060 138 900 -20 596 -20 c 0
EndSplineSet
EndChar

StartChar: uni1EEE
Encoding: 7918 7918 155
Width: 1200
GlyphClass: 2
Flags: MW
HStem: -20 190<510 686 510 748> 1400 20G<140 340 340 340 860 860> 1566 300<225 462 365 399> 1600 166<784.5 787 752.5 869.5> 1600 290<823 869.5> 1700 166<448.5 462 365 490>
VStem: 140 200<456 1420> 225 174<1566 1616 1616 1626 1566 1699.5> 823 172<1830 1840 1840 1890 1760 1890> 860 200<456 1287> 1106 192<1588 1653>
AnchorPoint: "Anchor-3" 1080 10 basechar 0
AnchorPoint: "Anchor-2" 600 0 basechar 0
AnchorPoint: "Anchor-1" 1180 1420 basechar 0
AnchorPoint: "Anchor-0" 600 1420 basechar 0
LayerCount: 2
Fore
SplineSet
225 1566 m 1xe140
 225 1616 l 2
 225 1783 295 1866 435 1866 c 0xc540
 489 1866 546 1849 623 1817 c 0
 701 1785 736 1766 769 1766 c 0
 805 1766 823 1787 823 1830 c 2xd280
 823 1890 l 1
 995 1890 l 1
 995 1840 l 2
 995 1680 932 1600 807 1600 c 0xca80
 762 1600 700 1619 614 1655 c 0
 557 1679 507 1700 473 1700 c 0
 424 1700 399 1676 399 1626 c 2xc540
 399 1566 l 1
 225 1566 l 1xe140
596 -20 m 0xca60
 292 -20 140 138 140 456 c 2
 140 1420 l 1
 340 1420 l 1
 340 456 l 2
 340 266 420 170 600 170 c 0
 772 170 860 266 860 456 c 2
 860 1420 l 1
 921 1430 l 2
 1045 1450 1106 1523 1106 1653 c 1
 1298 1653 l 1
 1298 1461 1219 1340 1060 1287 c 1
 1060 456 l 2
 1060 138 900 -20 596 -20 c 0xca60
EndSplineSet
EndChar

StartChar: Uhungarumlaut
Encoding: 368 368 156
Width: 1200
GlyphClass: 2
Flags: MW
HStem: -20 190<510 686 510 748> 1400 20G<140 340 340 340 860 1060 1060 1060> 1580 250<249 691 409 491 659 659 659 691 819 901>
VStem: 140 200<456 1420> 860 200<456 1420>
AnchorPoint: "Anchor-3" 1080 10 basechar 0
AnchorPoint: "Anchor-2" 600 0 basechar 0
AnchorPoint: "Anchor-1" 1180 1420 basechar 0
AnchorPoint: "Anchor-0" 600 1420 basechar 0
LayerCount: 2
Fore
SplineSet
659 1580 m 1
 819 1830 l 1
 1101 1830 l 1
 901 1580 l 1
 659 1580 l 1
249 1580 m 1
 409 1830 l 1
 691 1830 l 1
 491 1580 l 1
 249 1580 l 1
596 -20 m 0
 292 -20 140 138 140 456 c 2
 140 1420 l 1
 340 1420 l 1
 340 456 l 2
 340 266 420 170 600 170 c 0
 772 170 860 266 860 456 c 2
 860 1420 l 1
 1060 1420 l 1
 1060 456 l 2
 1060 138 900 -20 596 -20 c 0
EndSplineSet
EndChar

StartChar: Umacron
Encoding: 362 362 157
Width: 1200
GlyphClass: 2
Flags: MW
HStem: -20 190<510 686 510 748> 1400 20G<140 340 340 340 860 1060 1060 1060> 1580 188<213 987 213 987>
VStem: 140 200<456 1420> 213 127 860 127 860 200<456 1420>
AnchorPoint: "Anchor-3" 1080 10 basechar 0
AnchorPoint: "Anchor-2" 600 0 basechar 0
AnchorPoint: "Anchor-1" 1180 1420 basechar 0
AnchorPoint: "Anchor-0" 600 1420 basechar 0
LayerCount: 2
Fore
SplineSet
213 1580 m 1xec
 213 1768 l 1
 987 1768 l 1
 987 1580 l 1
 213 1580 l 1xec
596 -20 m 0xf2
 292 -20 140 138 140 456 c 2
 140 1420 l 1
 340 1420 l 1
 340 456 l 2
 340 266 420 170 600 170 c 0
 772 170 860 266 860 456 c 2
 860 1420 l 1
 1060 1420 l 1
 1060 456 l 2
 1060 138 900 -20 596 -20 c 0xf2
EndSplineSet
EndChar

StartChar: Uogonek
Encoding: 370 370 158
Width: 1200
GlyphClass: 2
Flags: MW
HStem: -424 168<647.5 681> -18 21G<542 542> 1400 20G<140 340 340 340 860 1060 1060 1060>
VStem: 140 200<456 1420> 428 150<-185.5 -183> 860 200<456 1420>
AnchorPoint: "Anchor-3" 1080 10 basechar 0
AnchorPoint: "Anchor-2" 600 0 basechar 0
AnchorPoint: "Anchor-1" 1180 1420 basechar 0
AnchorPoint: "Anchor-0" 600 1420 basechar 0
LayerCount: 2
Fore
SplineSet
668 -424 m 0
 515 -424 428 -354 428 -232 c 0
 428 -134 470 -64 542 -40 c 1
 542 -18 l 1
 274 0 140 157 140 456 c 2
 140 1420 l 1
 340 1420 l 1
 340 456 l 2
 340 266 420 170 600 170 c 0
 772 170 860 266 860 456 c 2
 860 1420 l 1
 1060 1420 l 1
 1060 456 l 2
 1060 205 961 54 770 1 c 0
 675 -29 578 -65 578 -168 c 0
 578 -203 601 -256 694 -256 c 0
 716 -256 743 -253 776 -245 c 1
 758 -415 l 1
 724 -421 694 -424 668 -424 c 0
EndSplineSet
EndChar

StartChar: Uring
Encoding: 366 366 159
Width: 1200
GlyphClass: 2
Flags: MW
HStem: -20 190<510 686 510 748> 1400 20G<140 340 340 340 860 1060 1060 1060> 1488 116<569 631 569 675.5> 1785 115<569 631>
VStem: 140 200<456 1420> 362 142<1665 1723 1665 1759.5> 696 142<1665 1723> 860 200<456 1420>
AnchorPoint: "Anchor-3" 1080 10 basechar 0
AnchorPoint: "Anchor-2" 600 0 basechar 0
AnchorPoint: "Anchor-1" 1180 1420 basechar 0
AnchorPoint: "Anchor-0" 600 1900 basechar 0
LayerCount: 2
Fore
SplineSet
600 1488 m 0
 449 1488 362 1563 362 1694 c 0
 362 1825 449 1900 600 1900 c 0
 751 1900 838 1825 838 1694 c 0
 838 1563 751 1488 600 1488 c 0
600 1604 m 0
 662 1604 696 1636 696 1694 c 0
 696 1752 662 1785 600 1785 c 0
 538 1785 504 1752 504 1694 c 0
 504 1636 538 1604 600 1604 c 0
596 -20 m 0xf9
 292 -20 140 138 140 456 c 2
 140 1420 l 1
 340 1420 l 1
 340 456 l 2
 340 266 420 170 600 170 c 0
 772 170 860 266 860 456 c 2
 860 1420 l 1
 1060 1420 l 1
 1060 456 l 2
 1060 138 900 -20 596 -20 c 0xf9
EndSplineSet
EndChar

StartChar: Utilde
Encoding: 360 360 160
Width: 1200
GlyphClass: 2
Flags: MW
HStem: -20 190<510 686 510 748> 1400 20G<140 340 340 340 860 1060 1060 1060> 1566 300<225 462 365 399> 1600 166<784.5 787 752.5 869.5> 1600 290<823 869.5> 1700 166<448.5 462 365 490>
VStem: 140 200<456 1420> 225 174<1566 1616 1616 1626 1566 1699.5> 823 172<1830 1840 1840 1890 1760 1890> 860 200<456 1420>
AnchorPoint: "Anchor-3" 1080 10 basechar 0
AnchorPoint: "Anchor-2" 600 0 basechar 0
AnchorPoint: "Anchor-1" 1180 1420 basechar 0
AnchorPoint: "Anchor-0" 600 1420 basechar 0
LayerCount: 2
Fore
SplineSet
225 1566 m 1xe140
 225 1616 l 2
 225 1783 295 1866 435 1866 c 0xc540
 489 1866 546 1849 623 1817 c 0
 701 1785 736 1766 769 1766 c 0
 805 1766 823 1787 823 1830 c 2xd280
 823 1890 l 1
 995 1890 l 1
 995 1840 l 2
 995 1680 932 1600 807 1600 c 0xca80
 762 1600 700 1619 614 1655 c 0
 557 1679 507 1700 473 1700 c 0
 424 1700 399 1676 399 1626 c 2xc540
 399 1566 l 1
 225 1566 l 1xe140
596 -20 m 0xca40
 292 -20 140 138 140 456 c 2
 140 1420 l 1
 340 1420 l 1
 340 456 l 2
 340 266 420 170 600 170 c 0
 772 170 860 266 860 456 c 2
 860 1420 l 1
 1060 1420 l 1
 1060 456 l 2
 1060 138 900 -20 596 -20 c 0xca40
EndSplineSet
EndChar

StartChar: V
Encoding: 86 86 161
Width: 1200
GlyphClass: 2
Flags: MW
HStem: 0 170<444 608 590 608 590 754> 1400 20G<44 258 258 258 940 1154 1154 1154>
VStem: 44 1110<1420 1420>
AnchorPoint: "Anchor-2" 600 0 basechar 0
AnchorPoint: "Anchor-0" 600 1420 basechar 0
LayerCount: 2
Fore
SplineSet
444 0 m 1
 44 1420 l 1
 258 1420 l 1
 590 170 l 1
 608 170 l 1
 940 1420 l 1
 1154 1420 l 1
 754 0 l 1
 444 0 l 1
EndSplineSet
EndChar

StartChar: W
Encoding: 87 87 162
Width: 1200
GlyphClass: 2
Flags: MW
HStem: 0 160<350 370 350 489 830 850> 862 198<594 606 594 594> 1400 20G<20 230 230 230 970 1180 1180 1180>
VStem: 20 1160<1420 1420>
AnchorPoint: "Anchor-2" 600 0 basechar 0
AnchorPoint: "Anchor-0" 600 1420 basechar 0
LayerCount: 2
Fore
SplineSet
180 0 m 1
 20 1420 l 1
 230 1420 l 1
 350 160 l 1
 370 160 l 1
 501 1060 l 1
 701 1060 l 1
 830 160 l 1
 850 160 l 1
 970 1420 l 1
 1180 1420 l 1
 1020 0 l 1
 711 0 l 1
 606 862 l 1
 594 862 l 1
 489 0 l 1
 180 0 l 1
EndSplineSet
EndChar

StartChar: Wacute
Encoding: 7810 7810 163
Width: 1200
GlyphClass: 2
Flags: MW
HStem: 0 160<350 370 350 489 830 850> 862 198<594 606 594 594> 1400 20G<20 230 230 230 970 1180 1180 1180> 1580 250<469 971 689 711>
VStem: 20 1160<1420 1420>
AnchorPoint: "Anchor-2" 600 0 basechar 0
AnchorPoint: "Anchor-0" 600 1420 basechar 0
LayerCount: 2
Fore
SplineSet
469 1580 m 1
 689 1830 l 1
 971 1830 l 1
 711 1580 l 1
 469 1580 l 1
180 0 m 1
 20 1420 l 1
 230 1420 l 1
 350 160 l 1
 370 160 l 1
 501 1060 l 1
 701 1060 l 1
 830 160 l 1
 850 160 l 1
 970 1420 l 1
 1180 1420 l 1
 1020 0 l 1
 711 0 l 1
 606 862 l 1
 594 862 l 1
 489 0 l 1
 180 0 l 1
EndSplineSet
EndChar

StartChar: Wcircumflex
Encoding: 372 372 164
Width: 1200
GlyphClass: 2
Flags: MW
HStem: 0 160<350 370 350 489 830 850> 862 198<594 606 594 594> 1400 20G<20 230 230 230 970 1180 1180 1180> 1580 260<259 691 519 729 519 951>
VStem: 20 1160<1420 1420>
AnchorPoint: "Anchor-2" 600 0 basechar 0
AnchorPoint: "Anchor-0" 600 1748 basechar 0
LayerCount: 2
Fore
SplineSet
259 1580 m 1
 519 1840 l 1
 691 1840 l 1
 951 1580 l 1
 729 1580 l 1
 605 1724 l 1
 481 1580 l 1
 259 1580 l 1
180 0 m 1
 20 1420 l 1
 230 1420 l 1
 350 160 l 1
 370 160 l 1
 501 1060 l 1
 701 1060 l 1
 830 160 l 1
 850 160 l 1
 970 1420 l 1
 1180 1420 l 1
 1020 0 l 1
 711 0 l 1
 606 862 l 1
 594 862 l 1
 489 0 l 1
 180 0 l 1
EndSplineSet
EndChar

StartChar: Wdieresis
Encoding: 7812 7812 165
Width: 1200
GlyphClass: 2
Flags: MW
HStem: 0 160<350 370 350 489 830 850> 862 198<594 606 594 594> 1400 20G<20 230 230 230 970 1180 1180 1180> 1580 268<351 425 771 845>
VStem: 254 268<1677 1751.5> 674 268<1677 1751.5>
AnchorPoint: "Anchor-2" 600 0 basechar 0
AnchorPoint: "Anchor-0" 600 1420 basechar 0
LayerCount: 2
Fore
SplineSet
808 1580 m 0
 734 1580 674 1640 674 1714 c 0
 674 1789 734 1848 808 1848 c 0
 882 1848 942 1789 942 1714 c 0
 942 1640 882 1580 808 1580 c 0
388 1580 m 0
 314 1580 254 1640 254 1714 c 0
 254 1789 314 1848 388 1848 c 0
 462 1848 522 1789 522 1714 c 0
 522 1640 462 1580 388 1580 c 0
180 0 m 1
 20 1420 l 1
 230 1420 l 1
 350 160 l 1
 370 160 l 1
 501 1060 l 1
 701 1060 l 1
 830 160 l 1
 850 160 l 1
 970 1420 l 1
 1180 1420 l 1
 1020 0 l 1
 711 0 l 1
 606 862 l 1
 594 862 l 1
 489 0 l 1
 180 0 l 1
EndSplineSet
EndChar

StartChar: Wgrave
Encoding: 7808 7808 166
Width: 1200
GlyphClass: 2
Flags: MW
HStem: 0 160<350 370 350 489 830 850> 862 198<594 606 594 594> 1400 20G<20 230 230 230 970 1180 1180 1180> 1580 250<499 499 499 521 239 741>
VStem: 20 1160<1420 1420>
AnchorPoint: "Anchor-2" 600 0 basechar 0
AnchorPoint: "Anchor-0" 600 1420 basechar 0
LayerCount: 2
Fore
SplineSet
499 1580 m 1
 239 1830 l 1
 521 1830 l 1
 741 1580 l 1
 499 1580 l 1
180 0 m 1
 20 1420 l 1
 230 1420 l 1
 350 160 l 1
 370 160 l 1
 501 1060 l 1
 701 1060 l 1
 830 160 l 1
 850 160 l 1
 970 1420 l 1
 1180 1420 l 1
 1020 0 l 1
 711 0 l 1
 606 862 l 1
 594 862 l 1
 489 0 l 1
 180 0 l 1
EndSplineSet
EndChar

StartChar: X
Encoding: 88 88 167
Width: 1200
GlyphClass: 2
Flags: MW
HStem: 0 21G<66 66 66 296 906 906 906 1136> 1400 20G<66 296 296 296 906 1136 1136 1136>
VStem: 66 1070<0 0>
AnchorPoint: "Anchor-2" 600 0 basechar 0
AnchorPoint: "Anchor-0" 600 1420 basechar 0
LayerCount: 2
Fore
SplineSet
66 0 m 1
 501 703 l 1
 66 1420 l 1
 296 1420 l 1
 601 876 l 1
 906 1420 l 1
 1136 1420 l 1
 701 703 l 1
 1136 0 l 1
 906 0 l 1
 601 533 l 1
 296 0 l 1
 66 0 l 1
EndSplineSet
EndChar

StartChar: Y
Encoding: 89 89 168
Width: 1200
GlyphClass: 2
Flags: MW
HStem: 0 21G<500 500 500 700> 1400 20G<25 245 245 245 955 1175 1175 1175>
VStem: 500 200<0 503 0 503>
AnchorPoint: "Anchor-2" 600 0 basechar 0
AnchorPoint: "Anchor-0" 600 1420 basechar 0
LayerCount: 2
Fore
SplineSet
500 0 m 1
 500 503 l 1
 25 1420 l 1
 245 1420 l 1
 591 710 l 1
 609 710 l 1
 955 1420 l 1
 1175 1420 l 1
 700 503 l 1
 700 0 l 1
 500 0 l 1
EndSplineSet
EndChar

StartChar: Yacute
Encoding: 221 221 169
Width: 1200
GlyphClass: 2
Flags: MW
HStem: 0 21G<500 500 500 700> 1400 20G<25 245 245 245 955 1175 1175 1175> 1580 250<469 971 689 711>
VStem: 500 200<0 503 0 503>
AnchorPoint: "Anchor-2" 600 0 basechar 0
AnchorPoint: "Anchor-0" 600 1420 basechar 0
LayerCount: 2
Fore
SplineSet
469 1580 m 1
 689 1830 l 1
 971 1830 l 1
 711 1580 l 1
 469 1580 l 1
500 0 m 1
 500 503 l 1
 25 1420 l 1
 245 1420 l 1
 591 710 l 1
 609 710 l 1
 955 1420 l 1
 1175 1420 l 1
 700 503 l 1
 700 0 l 1
 500 0 l 1
EndSplineSet
EndChar

StartChar: Ycircumflex
Encoding: 374 374 170
Width: 1200
GlyphClass: 2
Flags: MW
HStem: 0 21G<500 500 500 700> 1400 20G<25 245 245 245 955 1175 1175 1175> 1580 260<259 691 519 729 519 951>
VStem: 500 200<0 503 0 503>
AnchorPoint: "Anchor-2" 600 0 basechar 0
AnchorPoint: "Anchor-0" 600 1748 basechar 0
LayerCount: 2
Fore
SplineSet
259 1580 m 1
 519 1840 l 1
 691 1840 l 1
 951 1580 l 1
 729 1580 l 1
 605 1724 l 1
 481 1580 l 1
 259 1580 l 1
500 0 m 1
 500 503 l 1
 25 1420 l 1
 245 1420 l 1
 591 710 l 1
 609 710 l 1
 955 1420 l 1
 1175 1420 l 1
 700 503 l 1
 700 0 l 1
 500 0 l 1
EndSplineSet
EndChar

StartChar: Ydieresis
Encoding: 376 376 171
Width: 1200
GlyphClass: 2
Flags: MW
HStem: 0 21G<500 500 500 700> 1400 20G<25 245 245 245 955 1175 1175 1175> 1580 268<351 425 771 845>
VStem: 254 268<1677 1751.5> 500 200<0 503 0 503> 674 268<1677 1751.5>
AnchorPoint: "Anchor-2" 600 0 basechar 0
AnchorPoint: "Anchor-0" 600 1420 basechar 0
LayerCount: 2
Fore
SplineSet
808 1580 m 0xf4
 734 1580 674 1640 674 1714 c 0
 674 1789 734 1848 808 1848 c 0
 882 1848 942 1789 942 1714 c 0
 942 1640 882 1580 808 1580 c 0xf4
388 1580 m 0
 314 1580 254 1640 254 1714 c 0
 254 1789 314 1848 388 1848 c 0
 462 1848 522 1789 522 1714 c 0
 522 1640 462 1580 388 1580 c 0
500 0 m 1xe8
 500 503 l 1
 25 1420 l 1
 245 1420 l 1
 591 710 l 1
 609 710 l 1
 955 1420 l 1
 1175 1420 l 1
 700 503 l 1
 700 0 l 1
 500 0 l 1xe8
EndSplineSet
EndChar

StartChar: uni1EF4
Encoding: 7924 7924 172
Width: 1200
GlyphClass: 2
Flags: MW
HStem: -420 268<563 637> 0 21G<500 500 500 700> 1400 20G<25 245 245 245 955 1175 1175 1175>
VStem: 466 268<-323 -248.5> 500 200<0 503 0 503>
AnchorPoint: "Anchor-2" 600 0 basechar 0
AnchorPoint: "Anchor-0" 600 1420 basechar 0
LayerCount: 2
Fore
SplineSet
500 0 m 1xe8
 500 503 l 1
 25 1420 l 1
 245 1420 l 1
 591 710 l 1
 609 710 l 1
 955 1420 l 1
 1175 1420 l 1
 700 503 l 1
 700 0 l 1
 500 0 l 1xe8
600 -420 m 0xf0
 526 -420 466 -360 466 -286 c 0
 466 -211 526 -152 600 -152 c 0
 674 -152 734 -211 734 -286 c 0
 734 -360 674 -420 600 -420 c 0xf0
EndSplineSet
EndChar

StartChar: Ygrave
Encoding: 7922 7922 173
Width: 1200
GlyphClass: 2
Flags: MW
HStem: 0 21G<500 500 500 700> 1400 20G<25 245 245 245 955 1175 1175 1175> 1580 250<499 499 499 521 239 741>
VStem: 500 200<0 503 0 503>
AnchorPoint: "Anchor-2" 600 0 basechar 0
AnchorPoint: "Anchor-0" 600 1420 basechar 0
LayerCount: 2
Fore
SplineSet
499 1580 m 1
 239 1830 l 1
 521 1830 l 1
 741 1580 l 1
 499 1580 l 1
500 0 m 1
 500 503 l 1
 25 1420 l 1
 245 1420 l 1
 591 710 l 1
 609 710 l 1
 955 1420 l 1
 1175 1420 l 1
 700 503 l 1
 700 0 l 1
 500 0 l 1
EndSplineSet
EndChar

StartChar: uni1EF6
Encoding: 7926 7926 174
Width: 1200
GlyphClass: 2
Flags: MW
HStem: 0 21G<500 500 500 700> 1400 20G<25 245 245 245 955 1175 1175 1175> 1753 151<555 614.5>
VStem: 500 200<0 503 0 503> 532 155<1529 1535.5 1529 1550 1529 1562> 669 166<1701 1717.5>
AnchorPoint: "Anchor-2" 600 0 basechar 0
AnchorPoint: "Anchor-0" 600 1420 basechar 0
LayerCount: 2
Fore
SplineSet
532 1529 m 1xe8
 532 1550 l 2xe8
 532 1574 550 1595 598 1628 c 0
 650 1661 669 1681 669 1702 c 0
 669 1733 642 1753 587 1753 c 0
 523 1753 469 1739 423 1710 c 1
 356 1829 l 1
 410 1879 494 1904 608 1904 c 0
 760 1904 835 1850 835 1741 c 0xe4
 835 1661 803 1614 716 1564 c 0
 695 1552 687 1542 687 1529 c 1
 532 1529 l 1xe8
500 0 m 1xf0
 500 503 l 1
 25 1420 l 1
 245 1420 l 1
 591 710 l 1
 609 710 l 1
 955 1420 l 1
 1175 1420 l 1
 700 503 l 1
 700 0 l 1
 500 0 l 1xf0
EndSplineSet
EndChar

StartChar: uni0232
Encoding: 562 562 175
Width: 1200
GlyphClass: 2
Flags: MW
HStem: 0 21G<500 500 500 700> 1400 20G<25 245 245 245 955 1175 1175 1175> 1580 188<213 987 213 987>
VStem: 500 200<0 503 0 503>
AnchorPoint: "Anchor-2" 600 0 basechar 0
AnchorPoint: "Anchor-0" 600 1420 basechar 0
LayerCount: 2
Fore
SplineSet
213 1580 m 1
 213 1768 l 1
 987 1768 l 1
 987 1580 l 1
 213 1580 l 1
500 0 m 1
 500 503 l 1
 25 1420 l 1
 245 1420 l 1
 591 710 l 1
 609 710 l 1
 955 1420 l 1
 1175 1420 l 1
 700 503 l 1
 700 0 l 1
 500 0 l 1
EndSplineSet
EndChar

StartChar: uni1EF8
Encoding: 7928 7928 176
Width: 1200
GlyphClass: 2
Flags: MW
HStem: 0 21G<500 500 500 700> 1400 20G<25 245 245 245 955 1175 1175 1175> 1566 300<225 462 365 399> 1600 166<784.5 787 752.5 869.5> 1600 290<823 869.5> 1700 166<448.5 462 365 490>
VStem: 225 174<1566 1616 1616 1626 1566 1699.5> 500 200<0 503 0 503> 823 172<1830 1840 1840 1890 1760 1890>
AnchorPoint: "Anchor-2" 600 0 basechar 0
AnchorPoint: "Anchor-0" 600 1420 basechar 0
LayerCount: 2
Fore
SplineSet
225 1566 m 1xe380
 225 1616 l 2
 225 1783 295 1866 435 1866 c 0xc780
 489 1866 546 1849 623 1817 c 0
 701 1785 736 1766 769 1766 c 0
 805 1766 823 1787 823 1830 c 2xd380
 823 1890 l 1
 995 1890 l 1
 995 1840 l 2
 995 1680 932 1600 807 1600 c 0xcb80
 762 1600 700 1619 614 1655 c 0
 557 1679 507 1700 473 1700 c 0
 424 1700 399 1676 399 1626 c 2xc780
 399 1566 l 1
 225 1566 l 1xe380
500 0 m 1
 500 503 l 1
 25 1420 l 1
 245 1420 l 1
 591 710 l 1
 609 710 l 1
 955 1420 l 1
 1175 1420 l 1
 700 503 l 1
 700 0 l 1
 500 0 l 1
EndSplineSet
EndChar

StartChar: Z
Encoding: 90 90 177
Width: 1200
GlyphClass: 2
Flags: MW
HStem: 0 176<150 150 374 1070> 1230 190<150 806 150 1050 150 1050>
VStem: 150 920<0 176 0 176>
AnchorPoint: "Anchor-2" 600 0 basechar 0
AnchorPoint: "Anchor-0" 600 1420 basechar 0
LayerCount: 2
Fore
SplineSet
150 0 m 1
 150 176 l 1
 806 1230 l 1
 150 1230 l 1
 150 1420 l 1
 1050 1420 l 1
 1050 1230 l 1
 374 176 l 1
 1070 176 l 1
 1070 0 l 1
 150 0 l 1
EndSplineSet
EndChar

StartChar: Zacute
Encoding: 377 377 178
Width: 1200
GlyphClass: 2
Flags: MW
HStem: 0 176<150 150 374 1070> 1230 190<150 806 150 1050 150 1050> 1580 250<469 971 689 711>
VStem: 150 920<0 176 0 176>
AnchorPoint: "Anchor-2" 600 0 basechar 0
AnchorPoint: "Anchor-0" 600 1420 basechar 0
LayerCount: 2
Fore
SplineSet
469 1580 m 1
 689 1830 l 1
 971 1830 l 1
 711 1580 l 1
 469 1580 l 1
150 0 m 1
 150 176 l 1
 806 1230 l 1
 150 1230 l 1
 150 1420 l 1
 1050 1420 l 1
 1050 1230 l 1
 374 176 l 1
 1070 176 l 1
 1070 0 l 1
 150 0 l 1
EndSplineSet
Substitution2: "'locl' Localized Forms in Latin lookup 360 subtable" Zacute.loclPLK
Substitution2: "'aalt' Access All Alternates lookup 0 subtable" Zacute.loclPLK
EndChar

StartChar: Zcaron
Encoding: 381 381 179
Width: 1200
GlyphClass: 2
Flags: MW
HStem: 0 176<150 150 374 1070> 1230 190<150 806 150 1050 150 1050> 1580 260<254 514 254 686>
VStem: 150 920<0 176 0 176>
AnchorPoint: "Anchor-2" 600 0 basechar 0
AnchorPoint: "Anchor-0" 600 1840 basechar 0
LayerCount: 2
Fore
SplineSet
514 1580 m 1
 254 1840 l 1
 476 1840 l 1
 600 1696 l 1
 724 1840 l 1
 946 1840 l 1
 686 1580 l 1
 514 1580 l 1
150 0 m 1
 150 176 l 1
 806 1230 l 1
 150 1230 l 1
 150 1420 l 1
 1050 1420 l 1
 1050 1230 l 1
 374 176 l 1
 1070 176 l 1
 1070 0 l 1
 150 0 l 1
EndSplineSet
EndChar

StartChar: Zdotaccent
Encoding: 379 379 180
Width: 1200
GlyphClass: 2
Flags: MW
HStem: 0 176<150 150 374 1070> 1230 190<150 806 150 1050 150 1050> 1580 268<563 637>
VStem: 466 268<1677 1751.5>
AnchorPoint: "Anchor-2" 600 0 basechar 0
AnchorPoint: "Anchor-0" 600 1848 basechar 0
LayerCount: 2
Fore
SplineSet
600 1580 m 0
 526 1580 466 1640 466 1714 c 0
 466 1789 526 1848 600 1848 c 0
 674 1848 734 1789 734 1714 c 0
 734 1640 674 1580 600 1580 c 0
150 0 m 1
 150 176 l 1
 806 1230 l 1
 150 1230 l 1
 150 1420 l 1
 1050 1420 l 1
 1050 1230 l 1
 374 176 l 1
 1070 176 l 1
 1070 0 l 1
 150 0 l 1
EndSplineSet
EndChar

StartChar: Iacute_J.loclNLD
Encoding: 65537 -1 181
Width: 1200
Flags: MW
HStem: 0 180<558 710 558 774> 517 190<45 221 45 221 411 589> 1230 190<45 221 45 569 411 411 411 569 680 872 45 680> 1580 250<169 671 389 411> 1927 250<169 671 389 411>
VStem: 216 200<310.5 376 310.5 376> 221 190<707 1230 707 1230> 872 200<456 1230 1230 1230>
LayerCount: 2
Fore
SplineSet
169 1927 m 1xfb
 389 2177 l 1
 671 2177 l 1
 411 1927 l 1
 169 1927 l 1xfb
169 1580 m 1
 389 1830 l 1
 671 1830 l 1
 411 1580 l 1
 169 1580 l 1
624 0 m 0xfd
 351 0 216 125 216 376 c 1
 416 376 l 1
 416 245 487 180 629 180 c 0
 791 180 872 271 872 456 c 2
 872 1230 l 1
 680 1230 l 1
 680 1420 l 1
 1072 1420 l 1
 1072 456 l 2
 1072 151 924 0 624 0 c 0xfd
45 517 m 1
 45 707 l 1
 221 707 l 1
 221 1230 l 1
 45 1230 l 1
 45 1420 l 1
 569 1420 l 1
 569 1230 l 1
 411 1230 l 1
 411 707 l 1xfb
 589 707 l 1
 589 517 l 1
 45 517 l 1
EndSplineSet
Ligature2: "'locl' Localized Forms in Latin lookup 361 subtable" Iacute J
EndChar

StartChar: Cacute.loclPLK
Encoding: 65538 -1 182
Width: 1200
GlyphClass: 2
Flags: MW
HStem: -20 184<632 821> 1256 184<607 790> 1540 300<624 896 654 806>
VStem: 96 214<536 892.5 536 943>
AnchorPoint: "Anchor-2" 675 0 basechar 0
AnchorPoint: "Anchor-0" 705 1420 basechar 0
LayerCount: 2
Fore
SplineSet
624 1540 m 1
 654 1840 l 1
 896 1840 l 1
 806 1540 l 1
 624 1540 l 1
758 -20 m 0
 318 -20 96 224 96 712 c 0
 96 1174 328 1440 734 1440 c 0
 930 1440 1082 1375 1149 1261 c 1
 1001 1114 l 1
 941 1204 844 1256 736 1256 c 0
 478 1256 310 1063 310 722 c 0
 310 350 472 164 792 164 c 0
 890 164 984 184 1078 224 c 1
 1124 48 l 1
 1006 2 884 -20 758 -20 c 0
EndSplineSet
EndChar

StartChar: Nacute.loclPLK
Encoding: 65539 -1 183
Width: 1200
GlyphClass: 2
Flags: MW
HStem: 0 21G<148 148 148 340 800 800 800 1052> 0 340<800 860 840 860 840 1052> 1080 340<340 360 340 340> 1400 20G<148 400 400 400 860 1052 1052 1052> 1540 300<519 791 549 701>
VStem: 148 192<0 1080 0 1420> 860 192<340 1420 0 1420>
AnchorPoint: "Anchor-2" 600 0 basechar 0
AnchorPoint: "Anchor-0" 600 1420 basechar 0
LayerCount: 2
Fore
SplineSet
519 1540 m 1x9e
 549 1840 l 1
 791 1840 l 1
 701 1540 l 1
 519 1540 l 1x9e
148 0 m 1
 148 1420 l 1
 400 1420 l 1
 840 340 l 1
 860 340 l 1x5e
 860 1420 l 1
 1052 1420 l 1
 1052 0 l 1
 800 0 l 1
 360 1080 l 1
 340 1080 l 1xae
 340 0 l 1
 148 0 l 1
EndSplineSet
EndChar

StartChar: Oacute.loclPLK
Encoding: 65540 -1 184
Width: 1200
GlyphClass: 2
Flags: MW
HStem: -20 184<495.5 704.5 495.5 774> 1256 184<495.5 704.5> 1540 300<519 791 549 701>
VStem: 76 210<521 886 521 947> 914 210<521 886>
AnchorPoint: "Anchor-3" 1080 10 basechar 0
AnchorPoint: "Anchor-2" 600 0 basechar 0
AnchorPoint: "Anchor-1" 1180 1420 basechar 0
AnchorPoint: "Anchor-0" 600 1420 basechar 0
LayerCount: 2
Fore
SplineSet
519 1540 m 1
 549 1840 l 1
 791 1840 l 1
 701 1540 l 1
 519 1540 l 1
600 -20 m 0
 252 -20 76 218 76 700 c 0
 76 1194 252 1440 600 1440 c 0
 948 1440 1124 1194 1124 700 c 0
 1124 218 948 -20 600 -20 c 0
600 164 m 0
 809 164 914 342 914 700 c 0
 914 1072 809 1256 600 1256 c 0
 391 1256 286 1072 286 700 c 0
 286 342 391 164 600 164 c 0
EndSplineSet
EndChar

StartChar: Sacute.loclPLK
Encoding: 65541 -1 185
Width: 1200
GlyphClass: 2
Flags: MW
HStem: -20 184<502 660 502 721> 1256 184<549 677> 1540 300<519 791 549 701>
VStem: 167 214<1014 1124.5 1014 1174> 843 214<295.5 406>
AnchorPoint: "Anchor-2" 610 0 basechar 0
AnchorPoint: "Anchor-0" 600 1420 basechar 0
LayerCount: 2
Fore
SplineSet
519 1540 m 1
 549 1840 l 1
 791 1840 l 1
 701 1540 l 1
 519 1540 l 1
551 -20 m 0
 389 -20 249 6 129 58 c 1
 155 260 l 1
 301 197 437 164 567 164 c 0
 753 164 843 229 843 362 c 0
 843 450 797 510 713 548 c 2
 467 660 l 2
 273 748 167 866 167 1050 c 0
 167 1298 334 1440 626 1440 c 0
 805 1440 934 1387 1061 1261 c 1
 921 1119 l 1
 814 1215 727 1256 627 1256 c 0
 471 1256 381 1189 381 1060 c 0
 381 968 431 915 527 870 c 2
 735 772 l 2
 945 673 1057 560 1057 366 c 0
 1057 109 891 -20 551 -20 c 0
EndSplineSet
EndChar

StartChar: Zacute.loclPLK
Encoding: 65542 -1 186
Width: 1200
GlyphClass: 2
Flags: MW
HStem: 0 176<150 150 374 1070> 1230 190<150 806 150 1050 150 1050> 1540 300<519 791 549 701>
VStem: 150 920<0 176 0 176>
AnchorPoint: "Anchor-2" 600 0 basechar 0
AnchorPoint: "Anchor-0" 600 1420 basechar 0
LayerCount: 2
Fore
SplineSet
519 1540 m 1
 549 1840 l 1
 791 1840 l 1
 701 1540 l 1
 519 1540 l 1
150 0 m 1
 150 176 l 1
 806 1230 l 1
 150 1230 l 1
 150 1420 l 1
 1050 1420 l 1
 1050 1230 l 1
 374 176 l 1
 1070 176 l 1
 1070 0 l 1
 150 0 l 1
EndSplineSet
EndChar

StartChar: a
Encoding: 97 97 187
Width: 1200
GlyphClass: 2
Flags: MW
HStem: -20 170<431.5 557> -10 21G<818 818> 0 21G<1158 1158> 464 170<468 590> 878.5 191.5
VStem: 96 200<255 358 255 398> 776 202<380 444 444 444 609 634 192 666 192 736.5> 813 165
AnchorPoint: "Anchor-3" 1080 10 basechar 0
AnchorPoint: "Anchor-2" 600 0 basechar 0
AnchorPoint: "Anchor-0" 580 1060 basechar 0
LayerCount: 2
Fore
SplineSet
464 -20 m 0x9e
 231 -20 96 90 96 286 c 0
 96 510 266 634 566 634 c 0
 646 634 716 626 776 609 c 1
 776 666 l 2
 776 807 676 870 480 875 c 2
 226 882 l 1
 246 1070 l 1
 460 1067 l 2
 810 1062 978 914 978 634 c 2
 978 192 l 1
 1158 170 l 1
 1158 0 l 1x3e
 818 -10 l 1x5d
 808 224 l 1
 787 224 l 1x9d
 773 61 650 -20 464 -20 c 0x9e
498 150 m 0
 683 150 776 268 776 380 c 2
 776 444 l 1
 701 464 628 464 552 464 c 0
 384 464 296 410 296 306 c 0
 296 204 365 150 498 150 c 0
EndSplineSet
Substitution2: "Single Substitution lookup 378 subtable" ordfeminine
Substitution2: "'aalt' Access All Alternates lookup 0 subtable" ordfeminine
EndChar

StartChar: aacute
Encoding: 225 225 188
Width: 1200
GlyphClass: 2
Flags: MW
HStem: -20 170<431.5 557> -10 21G<818 818> 0 21G<1158 1158> 464 170<468 590> 878.5 191.5 1248 380<479 861 649 671>
VStem: 96 200<255 358 255 398> 776 202<380 444 444 444 609 634 192 666 192 736.5> 813 165
AnchorPoint: "Anchor-3" 1080 10 basechar 0
AnchorPoint: "Anchor-2" 600 0 basechar 0
AnchorPoint: "Anchor-0" 580 1618 basechar 0
LayerCount: 2
Fore
SplineSet
479 1248 m 1x9f
 649 1628 l 1
 861 1628 l 1
 671 1248 l 1
 479 1248 l 1x9f
464 -20 m 0
 231 -20 96 90 96 286 c 0
 96 510 266 634 566 634 c 0
 646 634 716 626 776 609 c 1
 776 666 l 2
 776 807 676 870 480 875 c 2
 226 882 l 1
 246 1070 l 1
 460 1067 l 2
 810 1062 978 914 978 634 c 2
 978 192 l 1
 1158 170 l 1
 1158 0 l 1x3f
 818 -10 l 1x5e80
 808 224 l 1
 787 224 l 1x9e80
 773 61 650 -20 464 -20 c 0
498 150 m 0
 683 150 776 268 776 380 c 2
 776 444 l 1
 701 464 628 464 552 464 c 0
 384 464 296 410 296 306 c 0
 296 204 365 150 498 150 c 0
EndSplineSet
EndChar

StartChar: abreve
Encoding: 259 259 189
Width: 1200
GlyphClass: 2
Flags: MW
HStem: -20 170<431.5 557> -10 21G<818 818> 0 21G<1158 1158> 464 170<468 590> 878.5 191.5 1238 136<529 631 529 686>
VStem: 96 200<255 358 255 398> 246 175<1560 1603 1500.5 1603> 739 175<1560 1603 1457.5 1603> 776 202<380 444 444 444 609 634 192 666 192 736.5> 813 165
AnchorPoint: "Anchor-3" 1080 10 basechar 0
AnchorPoint: "Anchor-2" 600 0 basechar 0
AnchorPoint: "Anchor-0" 580 1453 basechar 0
LayerCount: 2
Fore
SplineSet
580 1238 m 0x9d40
 368 1238 246 1355 246 1560 c 2
 246 1603 l 1
 421 1603 l 1
 421 1560 l 2
 421 1441 478 1374 580 1374 c 0
 682 1374 739 1441 739 1560 c 2
 739 1603 l 1
 914 1603 l 1
 914 1560 l 2x9d80
 914 1355 792 1238 580 1238 c 0x9d40
464 -20 m 0x9e20
 231 -20 96 90 96 286 c 0
 96 510 266 634 566 634 c 0
 646 634 716 626 776 609 c 1
 776 666 l 2
 776 807 676 870 480 875 c 2
 226 882 l 1
 246 1070 l 1
 460 1067 l 2
 810 1062 978 914 978 634 c 2
 978 192 l 1
 1158 170 l 1
 1158 0 l 1x3e40
 818 -10 l 1x5d20
 808 224 l 1
 787 224 l 1
 773 61 650 -20 464 -20 c 0x9e20
498 150 m 0x9e40
 683 150 776 268 776 380 c 2
 776 444 l 1
 701 464 628 464 552 464 c 0
 384 464 296 410 296 306 c 0
 296 204 365 150 498 150 c 0x9e40
EndSplineSet
EndChar

StartChar: uni1EAF
Encoding: 7855 7855 190
Width: 1200
GlyphClass: 2
Flags: MW
HStem: -20 170<431.5 557> -10 21G<818 818> 0 21G<1158 1158> 464 170<468 590> 878.5 191.5 1238 136<529 631 529 686> 1641 380<479 861 649 671>
VStem: 96 200<255 358 255 398> 246 175<1560 1603 1500.5 1603> 739 175<1560 1603 1457.5 1603> 776 202<380 444 444 444 609 634 192 666 192 736.5> 813 165
AnchorPoint: "Anchor-3" 1080 10 basechar 0
AnchorPoint: "Anchor-2" 600 0 basechar 0
AnchorPoint: "Anchor-0" 580 2011 basechar 0
LayerCount: 2
Fore
SplineSet
479 1641 m 1x9ea0
 649 2021 l 1
 861 2021 l 1
 671 1641 l 1
 479 1641 l 1x9ea0
580 1238 m 0
 368 1238 246 1355 246 1560 c 2
 246 1603 l 1
 421 1603 l 1
 421 1560 l 2
 421 1441 478 1374 580 1374 c 0
 682 1374 739 1441 739 1560 c 2
 739 1603 l 1
 914 1603 l 1
 914 1560 l 2x9ec0
 914 1355 792 1238 580 1238 c 0
464 -20 m 0x9f10
 231 -20 96 90 96 286 c 0
 96 510 266 634 566 634 c 0
 646 634 716 626 776 609 c 1
 776 666 l 2
 776 807 676 870 480 875 c 2
 226 882 l 1
 246 1070 l 1
 460 1067 l 2
 810 1062 978 914 978 634 c 2
 978 192 l 1
 1158 170 l 1
 1158 0 l 1x3f20
 818 -10 l 1x5e90
 808 224 l 1
 787 224 l 1
 773 61 650 -20 464 -20 c 0x9f10
498 150 m 0x9f20
 683 150 776 268 776 380 c 2
 776 444 l 1
 701 464 628 464 552 464 c 0
 384 464 296 410 296 306 c 0
 296 204 365 150 498 150 c 0x9f20
EndSplineSet
EndChar

StartChar: uni1EB7
Encoding: 7863 7863 191
Width: 1200
GlyphClass: 2
Flags: MW
HStem: -420 268<563 637> -20 170<431.5 557> -10 21G<818 818> 0 21G<1158 1158> 464 170<468 590> 878.5 191.5 1238 136<529 631 529 686>
VStem: 96 200<255 358 255 398> 246 175<1560 1603 1500.5 1603> 466 268<-323 -248.5> 739 175<1560 1603 1457.5 1603> 776 202<380 444 444 444 609 634 192 666 192 736.5> 813 165
AnchorPoint: "Anchor-3" 1080 10 basechar 0
AnchorPoint: "Anchor-2" 600 0 basechar 0
AnchorPoint: "Anchor-0" 580 1453 basechar 0
LayerCount: 2
Fore
SplineSet
580 1238 m 0x4e90
 368 1238 246 1355 246 1560 c 2
 246 1603 l 1
 421 1603 l 1
 421 1560 l 2
 421 1441 478 1374 580 1374 c 0
 682 1374 739 1441 739 1560 c 2
 739 1603 l 1
 914 1603 l 1
 914 1560 l 2x4ea0
 914 1355 792 1238 580 1238 c 0x4e90
464 -20 m 0x4f08
 231 -20 96 90 96 286 c 0
 96 510 266 634 566 634 c 0
 646 634 716 626 776 609 c 1
 776 666 l 2
 776 807 676 870 480 875 c 2
 226 882 l 1
 246 1070 l 1
 460 1067 l 2
 810 1062 978 914 978 634 c 2
 978 192 l 1
 1158 170 l 1
 1158 0 l 1x1f10
 818 -10 l 1x2e88
 808 224 l 1
 787 224 l 1
 773 61 650 -20 464 -20 c 0x4f08
498 150 m 0xcf50
 683 150 776 268 776 380 c 2
 776 444 l 1
 701 464 628 464 552 464 c 0
 384 464 296 410 296 306 c 0
 296 204 365 150 498 150 c 0xcf50
600 -420 m 0
 526 -420 466 -360 466 -286 c 0
 466 -211 526 -152 600 -152 c 0
 674 -152 734 -211 734 -286 c 0
 734 -360 674 -420 600 -420 c 0
EndSplineSet
EndChar

StartChar: uni1EB1
Encoding: 7857 7857 192
Width: 1200
GlyphClass: 2
Flags: MW
HStem: -20 170<431.5 557> -10 21G<818 818> 0 21G<1158 1158> 464 170<468 590> 878.5 191.5 1238 136<529 631 529 686> 1641 380<504 504 504 526 314 696>
VStem: 96 200<255 358 255 398> 246 175<1560 1603 1500.5 1603> 739 175<1560 1603 1457.5 1603> 776 202<380 444 444 444 609 634 192 666 192 736.5> 813 165
AnchorPoint: "Anchor-3" 1080 10 basechar 0
AnchorPoint: "Anchor-2" 600 0 basechar 0
AnchorPoint: "Anchor-0" 580 2021 basechar 0
LayerCount: 2
Fore
SplineSet
504 1641 m 1x9ea0
 314 2021 l 1
 526 2021 l 1
 696 1641 l 1
 504 1641 l 1x9ea0
580 1238 m 0
 368 1238 246 1355 246 1560 c 2
 246 1603 l 1
 421 1603 l 1
 421 1560 l 2
 421 1441 478 1374 580 1374 c 0
 682 1374 739 1441 739 1560 c 2
 739 1603 l 1
 914 1603 l 1
 914 1560 l 2x9ec0
 914 1355 792 1238 580 1238 c 0
464 -20 m 0x9f10
 231 -20 96 90 96 286 c 0
 96 510 266 634 566 634 c 0
 646 634 716 626 776 609 c 1
 776 666 l 2
 776 807 676 870 480 875 c 2
 226 882 l 1
 246 1070 l 1
 460 1067 l 2
 810 1062 978 914 978 634 c 2
 978 192 l 1
 1158 170 l 1
 1158 0 l 1x3f20
 818 -10 l 1x5e90
 808 224 l 1
 787 224 l 1
 773 61 650 -20 464 -20 c 0x9f10
498 150 m 0x9f20
 683 150 776 268 776 380 c 2
 776 444 l 1
 701 464 628 464 552 464 c 0
 384 464 296 410 296 306 c 0
 296 204 365 150 498 150 c 0x9f20
EndSplineSet
EndChar

StartChar: uni1EB3
Encoding: 7859 7859 193
Width: 1200
GlyphClass: 2
Flags: MW
HStem: -20 170<431.5 557> -10 21G<818 818> 0 21G<1158 1158> 464 170<468 590> 878.5 191.5 1238 136<529 631 529 686> 1934 151<525 565.5>
VStem: 96 200<255 358 255 398> 246 175<1560 1603 1500.5 1603> 502 155<1641 1650 1641 1677 1641 1729.5> 609 166<1844.5 1895> 739 175<1560 1603 1457.5 1603> 776 202<380 444 444 444 609 634 192 666 192 736.5> 813 165
AnchorPoint: "Anchor-3" 1080 10 basechar 0
AnchorPoint: "Anchor-2" 600 0 basechar 0
AnchorPoint: "Anchor-0" 580 1453 basechar 0
LayerCount: 2
Fore
SplineSet
502 1641 m 1x9ec8
 502 1677 l 2x9ed0
 502 1782 609 1811 609 1878 c 0
 609 1912 584 1934 547 1934 c 0
 503 1934 454 1917 423 1891 c 1
 356 2010 l 1
 397 2055 481 2085 568 2085 c 0
 693 2085 775 2008 775 1892 c 0x9ea0
 775 1765 657 1754 657 1650 c 2
 657 1641 l 1
 502 1641 l 1x9ec8
580 1238 m 0
 368 1238 246 1355 246 1560 c 2
 246 1603 l 1
 421 1603 l 1
 421 1560 l 2
 421 1441 478 1374 580 1374 c 0
 682 1374 739 1441 739 1560 c 2
 739 1603 l 1
 914 1603 l 1
 914 1560 l 2
 914 1355 792 1238 580 1238 c 0
464 -20 m 0x9f44
 231 -20 96 90 96 286 c 0
 96 510 266 634 566 634 c 0
 646 634 716 626 776 609 c 1
 776 666 l 2
 776 807 676 870 480 875 c 2
 226 882 l 1
 246 1070 l 1
 460 1067 l 2
 810 1062 978 914 978 634 c 2
 978 192 l 1
 1158 170 l 1
 1158 0 l 1x3f48
 818 -10 l 1x5ec4
 808 224 l 1
 787 224 l 1
 773 61 650 -20 464 -20 c 0x9f44
498 150 m 0x9f48
 683 150 776 268 776 380 c 2
 776 444 l 1
 701 464 628 464 552 464 c 0
 384 464 296 410 296 306 c 0
 296 204 365 150 498 150 c 0x9f48
EndSplineSet
EndChar

StartChar: uni1EB5
Encoding: 7861 7861 194
Width: 1200
GlyphClass: 2
Flags: MW
HStem: -20 170<431.5 557> -10 21G<818 818> 0 21G<1158 1158> 464 170<468 590> 878.5 191.5 1238 136<529 631 529 686> 1619 320<225 461.5 365 399> 1673 166<712.5 829.5> 1673 320<783 829.5> 1773 166<448.5 461.5 365 494>
VStem: 96 200<255 358 255 398> 225 174<1619 1689 1689 1699 1619 1772.5> 246 175<1560 1603 1500.5 1603> 739 175<1560 1603 1457.5 1603> 776 202<380 444 444 444 609 634 192 666 192 736.5> 783 172<1903 1913 1913 1993 1833 1993> 813 165
AnchorPoint: "Anchor-3" 1080 10 basechar 0
AnchorPoint: "Anchor-2" 600 0 basechar 0
AnchorPoint: "Anchor-0" 580 1453 basechar 0
LayerCount: 2
Fore
SplineSet
225 1619 m 1x9e12
 225 1689 l 2
 225 1856 295 1939 435 1939 c 0x9c52
 488 1939 532 1920 583 1895 c 0
 649 1862 696 1839 729 1839 c 0
 765 1839 783 1860 783 1903 c 2x9d11
 783 1993 l 1
 955 1993 l 1x9c91
 955 1913 l 2
 955 1753 892 1673 767 1673 c 0x9d11
 729 1673 674 1688 604 1723 c 0
 560 1745 515 1773 473 1773 c 0
 424 1773 399 1749 399 1699 c 2x9c52
 399 1619 l 1
 225 1619 l 1x9e12
580 1238 m 0x9e0c
 368 1238 246 1355 246 1560 c 2
 246 1603 l 1
 421 1603 l 1
 421 1560 l 2
 421 1441 478 1374 580 1374 c 0
 682 1374 739 1441 739 1560 c 2
 739 1603 l 1
 914 1603 l 1
 914 1560 l 2
 914 1355 792 1238 580 1238 c 0x9e0c
464 -20 m 0x9e2080
 231 -20 96 90 96 286 c 0
 96 510 266 634 566 634 c 0
 646 634 716 626 776 609 c 1
 776 666 l 2
 776 807 676 870 480 875 c 2
 226 882 l 1
 246 1070 l 1
 460 1067 l 2
 810 1062 978 914 978 634 c 2
 978 192 l 1
 1158 170 l 1
 1158 0 l 1x3e22
 818 -10 l 1x5e1080
 808 224 l 1
 787 224 l 1
 773 61 650 -20 464 -20 c 0x9e2080
498 150 m 0x9e22
 683 150 776 268 776 380 c 2
 776 444 l 1
 701 464 628 464 552 464 c 0
 384 464 296 410 296 306 c 0
 296 204 365 150 498 150 c 0x9e22
EndSplineSet
EndChar

StartChar: acircumflex
Encoding: 226 226 195
Width: 1200
GlyphClass: 2
Flags: MW
HStem: -20 170<431.5 557> -10 21G<818 818> 0 21G<1158 1158> 464 170<468 590> 878.5 191.5 1248 380<254 666 254 666 494 694 494 906>
VStem: 96 200<255 358 255 398> 776 202<380 444 444 444 609 634 192 666 192 736.5> 813 165
AnchorPoint: "Anchor-3" 1080 10 basechar 0
AnchorPoint: "Anchor-2" 600 0 basechar 0
AnchorPoint: "Anchor-0" 580 1518 basechar 0
LayerCount: 2
Fore
SplineSet
254 1248 m 1x9f
 494 1628 l 1
 666 1628 l 1
 906 1248 l 1
 694 1248 l 1
 580 1474 l 1
 466 1248 l 1
 254 1248 l 1x9f
464 -20 m 0
 231 -20 96 90 96 286 c 0
 96 510 266 634 566 634 c 0
 646 634 716 626 776 609 c 1
 776 666 l 2
 776 807 676 870 480 875 c 2
 226 882 l 1
 246 1070 l 1
 460 1067 l 2
 810 1062 978 914 978 634 c 2
 978 192 l 1
 1158 170 l 1
 1158 0 l 1x3f
 818 -10 l 1x5e80
 808 224 l 1
 787 224 l 1x9e80
 773 61 650 -20 464 -20 c 0
498 150 m 0
 683 150 776 268 776 380 c 2
 776 444 l 1
 701 464 628 464 552 464 c 0
 384 464 296 410 296 306 c 0
 296 204 365 150 498 150 c 0
EndSplineSet
EndChar

StartChar: uni1EA5
Encoding: 7845 7845 196
Width: 1200
GlyphClass: 2
Flags: MW
HStem: -20 170<431.5 557> -10 21G<818 818> 0 21G<1158 1158> 464 170<468 590> 878.5 191.5 1248 380<254 666 254 666 494 694 494 906> 1588 380<836 1218 1006 1028>
VStem: 96 200<255 358 255 398> 776 202<380 444 444 444 609 634 192 666 192 736.5> 813 165
AnchorPoint: "Anchor-3" 1080 10 basechar 0
AnchorPoint: "Anchor-2" 600 0 basechar 0
AnchorPoint: "Anchor-0" 937 1958 basechar 0
LayerCount: 2
Fore
SplineSet
836 1588 m 1x9b80
 1006 1968 l 1
 1218 1968 l 1
 1028 1588 l 1
 836 1588 l 1x9b80
254 1248 m 1
 494 1628 l 1
 666 1628 l 1
 906 1248 l 1
 694 1248 l 1x9d40
 580 1474 l 1
 466 1248 l 1
 254 1248 l 1
464 -20 m 0
 231 -20 96 90 96 286 c 0
 96 510 266 634 566 634 c 0
 646 634 716 626 776 609 c 1
 776 666 l 2
 776 807 676 870 480 875 c 2
 226 882 l 1
 246 1070 l 1
 460 1067 l 2
 810 1062 978 914 978 634 c 2
 978 192 l 1
 1158 170 l 1
 1158 0 l 1x3b80
 818 -10 l 1x5b40
 808 224 l 1
 787 224 l 1
 773 61 650 -20 464 -20 c 0
498 150 m 0x9b80
 683 150 776 268 776 380 c 2
 776 444 l 1
 701 464 628 464 552 464 c 0
 384 464 296 410 296 306 c 0
 296 204 365 150 498 150 c 0x9b80
EndSplineSet
EndChar

StartChar: uni1EAD
Encoding: 7853 7853 197
Width: 1200
GlyphClass: 2
Flags: MW
HStem: -420 268<563 637> -20 170<431.5 557> -10 21G<818 818> 0 21G<1158 1158> 464 170<468 590> 878.5 191.5 1248 380<254 666 254 666 494 694 494 906>
VStem: 96 200<255 358 255 398> 466 268<-323 -248.5> 776 202<380 444 444 444 609 634 192 666 192 736.5> 813 165
AnchorPoint: "Anchor-3" 1080 10 basechar 0
AnchorPoint: "Anchor-2" 600 0 basechar 0
AnchorPoint: "Anchor-0" 580 1518 basechar 0
LayerCount: 2
Fore
SplineSet
254 1248 m 1x4f40
 494 1628 l 1
 666 1628 l 1
 906 1248 l 1
 694 1248 l 1
 580 1474 l 1
 466 1248 l 1
 254 1248 l 1x4f40
464 -20 m 0
 231 -20 96 90 96 286 c 0
 96 510 266 634 566 634 c 0
 646 634 716 626 776 609 c 1
 776 666 l 2
 776 807 676 870 480 875 c 2
 226 882 l 1
 246 1070 l 1
 460 1067 l 2
 810 1062 978 914 978 634 c 2
 978 192 l 1
 1158 170 l 1
 1158 0 l 1x1f40
 818 -10 l 1x2f20
 808 224 l 1
 787 224 l 1x4f20
 773 61 650 -20 464 -20 c 0
498 150 m 0
 683 150 776 268 776 380 c 2
 776 444 l 1
 701 464 628 464 552 464 c 0
 384 464 296 410 296 306 c 0
 296 204 365 150 498 150 c 0
600 -420 m 0xcfc0
 526 -420 466 -360 466 -286 c 0
 466 -211 526 -152 600 -152 c 0
 674 -152 734 -211 734 -286 c 0
 734 -360 674 -420 600 -420 c 0xcfc0
EndSplineSet
EndChar

StartChar: uni1EA7
Encoding: 7847 7847 198
Width: 1200
GlyphClass: 2
Flags: MW
HStem: -20 170<431.5 557> -10 21G<818 818> 0 21G<1158 1158> 464 170<468 590> 878.5 191.5 1248 380<254 666 254 666 494 694 494 906> 1588 380<860 860 860 882 670 1052>
VStem: 96 200<255 358 255 398> 776 202<380 444 444 444 609 634 192 666 192 736.5> 813 165
AnchorPoint: "Anchor-3" 1080 10 basechar 0
AnchorPoint: "Anchor-2" 600 0 basechar 0
AnchorPoint: "Anchor-0" 936 1968 basechar 0
LayerCount: 2
Fore
SplineSet
860 1588 m 1x9b80
 670 1968 l 1
 882 1968 l 1
 1052 1588 l 1
 860 1588 l 1x9b80
254 1248 m 1
 494 1628 l 1
 666 1628 l 1
 906 1248 l 1
 694 1248 l 1x9d40
 580 1474 l 1
 466 1248 l 1
 254 1248 l 1
464 -20 m 0
 231 -20 96 90 96 286 c 0
 96 510 266 634 566 634 c 0
 646 634 716 626 776 609 c 1
 776 666 l 2
 776 807 676 870 480 875 c 2
 226 882 l 1
 246 1070 l 1
 460 1067 l 2
 810 1062 978 914 978 634 c 2
 978 192 l 1
 1158 170 l 1
 1158 0 l 1x3b80
 818 -10 l 1x5b40
 808 224 l 1
 787 224 l 1
 773 61 650 -20 464 -20 c 0
498 150 m 0x9b80
 683 150 776 268 776 380 c 2
 776 444 l 1
 701 464 628 464 552 464 c 0
 384 464 296 410 296 306 c 0
 296 204 365 150 498 150 c 0x9b80
EndSplineSet
EndChar

StartChar: uni1EA9
Encoding: 7849 7849 199
Width: 1200
GlyphClass: 2
Flags: MW
HStem: -20 170<431.5 557> -10 21G<818 818> 0 21G<1158 1158> 464 170<468 590> 878.5 191.5 1248 380<254 666 254 666 494 694 494 906> 1881 151<882 922.5>
VStem: 96 200<255 358 255 398> 776 202<380 444 444 444 609 634 192 666 192 736.5> 813 165 859 155<1588 1597 1588 1624 1588 1676.5> 966 166<1791.5 1842>
AnchorPoint: "Anchor-3" 1080 10 basechar 0
AnchorPoint: "Anchor-2" 600 0 basechar 0
AnchorPoint: "Anchor-0" 580 1518 basechar 0
LayerCount: 2
Fore
SplineSet
859 1588 m 1x9f20
 859 1624 l 2x9f20
 859 1729 966 1758 966 1825 c 0
 966 1859 941 1881 904 1881 c 0
 860 1881 811 1864 780 1838 c 1
 713 1957 l 1
 754 2002 838 2032 925 2032 c 0
 1050 2032 1132 1955 1132 1839 c 0x9f10
 1132 1712 1014 1701 1014 1597 c 2
 1014 1588 l 1
 859 1588 l 1x9f20
254 1248 m 1
 494 1628 l 1
 666 1628 l 1
 906 1248 l 1
 694 1248 l 1
 580 1474 l 1
 466 1248 l 1
 254 1248 l 1
464 -20 m 0
 231 -20 96 90 96 286 c 0
 96 510 266 634 566 634 c 0
 646 634 716 626 776 609 c 1
 776 666 l 2
 776 807 676 870 480 875 c 2
 226 882 l 1
 246 1070 l 1
 460 1067 l 2
 810 1062 978 914 978 634 c 2
 978 192 l 1
 1158 170 l 1
 1158 0 l 1x3f80
 818 -10 l 1x5f40
 808 224 l 1
 787 224 l 1x9f40
 773 61 650 -20 464 -20 c 0
498 150 m 0x9f80
 683 150 776 268 776 380 c 2
 776 444 l 1
 701 464 628 464 552 464 c 0
 384 464 296 410 296 306 c 0
 296 204 365 150 498 150 c 0x9f80
EndSplineSet
EndChar

StartChar: uni1EAB
Encoding: 7851 7851 200
Width: 1200
GlyphClass: 2
Flags: MW
HStem: -20 170<431.5 557> -10 21G<818 818> 0 21G<1158 1158> 464 170<468 590> 878.5 191.5 1248 380<254 666 254 666 494 694 494 906> 1684 320<225 461.5 365 399> 1738 166<712.5 829.5> 1738 320<783 829.5> 1838 166<448.5 461.5 365 494>
VStem: 96 200<255 358 255 398> 225 174<1684 1754 1754 1764 1684 1837.5> 776 202<380 444 444 444 609 634 192 666 192 736.5> 783 172<1968 1978 1978 2058 1898 2058> 813 165
AnchorPoint: "Anchor-3" 1080 10 basechar 0
AnchorPoint: "Anchor-2" 600 0 basechar 0
AnchorPoint: "Anchor-0" 580 1518 basechar 0
LayerCount: 2
Fore
SplineSet
225 1684 m 1x9a18
 225 1754 l 2
 225 1921 295 2004 435 2004 c 0x9c58
 488 2004 532 1985 583 1960 c 0
 649 1927 696 1904 729 1904 c 0
 765 1904 783 1925 783 1968 c 2x9914
 783 2058 l 1
 955 2058 l 1x9894
 955 1978 l 2
 955 1818 892 1738 767 1738 c 0x9914
 729 1738 674 1753 604 1788 c 0
 560 1810 515 1838 473 1838 c 0
 424 1838 399 1814 399 1764 c 2x9858
 399 1684 l 1
 225 1684 l 1x9a18
254 1248 m 1
 494 1628 l 1
 666 1628 l 1
 906 1248 l 1
 694 1248 l 1
 580 1474 l 1
 466 1248 l 1
 254 1248 l 1
464 -20 m 0x9a22
 231 -20 96 90 96 286 c 0
 96 510 266 634 566 634 c 0
 646 634 716 626 776 609 c 1
 776 666 l 2
 776 807 676 870 480 875 c 2
 226 882 l 1
 246 1070 l 1
 460 1067 l 2
 810 1062 978 914 978 634 c 2
 978 192 l 1
 1158 170 l 1
 1158 0 l 1x3a28
 818 -10 l 1x5a12
 808 224 l 1
 787 224 l 1
 773 61 650 -20 464 -20 c 0x9a22
498 150 m 0x9a28
 683 150 776 268 776 380 c 2
 776 444 l 1
 701 464 628 464 552 464 c 0
 384 464 296 410 296 306 c 0
 296 204 365 150 498 150 c 0x9a28
EndSplineSet
EndChar

StartChar: adieresis
Encoding: 228 228 201
Width: 1200
GlyphClass: 2
Flags: MW
HStem: -20 170<431.5 557> -10 21G<818 818> 0 21G<1158 1158> 464 170<468 590> 878.5 191.5 1238 268<335 409 755 829>
VStem: 96 200<255 358 255 398> 238 268<1335 1409.5> 658 268<1335 1409.5> 776 202<380 444 444 444 609 634 192 666 192 736.5> 813 165
AnchorPoint: "Anchor-3" 1080 10 basechar 0
AnchorPoint: "Anchor-2" 600 0 basechar 0
AnchorPoint: "Anchor-0" 582 1506 basechar 0
LayerCount: 2
Fore
SplineSet
792 1238 m 0x9d80
 718 1238 658 1298 658 1372 c 0
 658 1447 718 1506 792 1506 c 0
 866 1506 926 1447 926 1372 c 0
 926 1298 866 1238 792 1238 c 0x9d80
372 1238 m 0
 298 1238 238 1298 238 1372 c 0
 238 1447 298 1506 372 1506 c 0
 446 1506 506 1447 506 1372 c 0
 506 1298 446 1238 372 1238 c 0
464 -20 m 0x9e20
 231 -20 96 90 96 286 c 0
 96 510 266 634 566 634 c 0
 646 634 716 626 776 609 c 1
 776 666 l 2
 776 807 676 870 480 875 c 2
 226 882 l 1
 246 1070 l 1
 460 1067 l 2
 810 1062 978 914 978 634 c 2
 978 192 l 1
 1158 170 l 1
 1158 0 l 1x3e40
 818 -10 l 1x5e20
 808 224 l 1
 787 224 l 1
 773 61 650 -20 464 -20 c 0x9e20
498 150 m 0x9e40
 683 150 776 268 776 380 c 2
 776 444 l 1
 701 464 628 464 552 464 c 0
 384 464 296 410 296 306 c 0
 296 204 365 150 498 150 c 0x9e40
EndSplineSet
EndChar

StartChar: uni1EA1
Encoding: 7841 7841 202
Width: 1200
GlyphClass: 2
Flags: MW
HStem: -420 268<563 637> -20 170<431.5 557> -10 21G<818 818> 0 21G<1158 1158> 464 170<468 590> 878.5 191.5
VStem: 96 200<255 358 255 398> 466 268<-323 -248.5> 776 202<380 444 444 444 609 634 192 666 192 736.5> 813 165
AnchorPoint: "Anchor-3" 1080 10 basechar 0
AnchorPoint: "Anchor-2" 600 0 basechar 0
AnchorPoint: "Anchor-0" 580 1060 basechar 0
LayerCount: 2
Fore
SplineSet
464 -20 m 0x4e80
 231 -20 96 90 96 286 c 0
 96 510 266 634 566 634 c 0
 646 634 716 626 776 609 c 1
 776 666 l 2
 776 807 676 870 480 875 c 2
 226 882 l 1
 246 1070 l 1
 460 1067 l 2
 810 1062 978 914 978 634 c 2
 978 192 l 1
 1158 170 l 1
 1158 0 l 1x1e80
 818 -10 l 1x2e40
 808 224 l 1
 787 224 l 1x4e40
 773 61 650 -20 464 -20 c 0x4e80
498 150 m 0
 683 150 776 268 776 380 c 2
 776 444 l 1
 701 464 628 464 552 464 c 0
 384 464 296 410 296 306 c 0
 296 204 365 150 498 150 c 0
600 -420 m 0xcf80
 526 -420 466 -360 466 -286 c 0
 466 -211 526 -152 600 -152 c 0
 674 -152 734 -211 734 -286 c 0
 734 -360 674 -420 600 -420 c 0xcf80
EndSplineSet
EndChar

StartChar: agrave
Encoding: 224 224 203
Width: 1200
GlyphClass: 2
Flags: MW
HStem: -20 170<431.5 557> -10 21G<818 818> 0 21G<1158 1158> 464 170<468 590> 878.5 191.5 1248 380<504 504 504 526 314 696>
VStem: 96 200<255 358 255 398> 776 202<380 444 444 444 609 634 192 666 192 736.5> 813 165
AnchorPoint: "Anchor-3" 1080 10 basechar 0
AnchorPoint: "Anchor-2" 600 0 basechar 0
AnchorPoint: "Anchor-0" 580 1628 basechar 0
LayerCount: 2
Fore
SplineSet
504 1248 m 1x9f
 314 1628 l 1
 526 1628 l 1
 696 1248 l 1
 504 1248 l 1x9f
464 -20 m 0
 231 -20 96 90 96 286 c 0
 96 510 266 634 566 634 c 0
 646 634 716 626 776 609 c 1
 776 666 l 2
 776 807 676 870 480 875 c 2
 226 882 l 1
 246 1070 l 1
 460 1067 l 2
 810 1062 978 914 978 634 c 2
 978 192 l 1
 1158 170 l 1
 1158 0 l 1x3f
 818 -10 l 1x5e80
 808 224 l 1
 787 224 l 1x9e80
 773 61 650 -20 464 -20 c 0
498 150 m 0
 683 150 776 268 776 380 c 2
 776 444 l 1
 701 464 628 464 552 464 c 0
 384 464 296 410 296 306 c 0
 296 204 365 150 498 150 c 0
EndSplineSet
EndChar

StartChar: uni1EA3
Encoding: 7843 7843 204
Width: 1200
GlyphClass: 2
Flags: MW
HStem: -20 170<431.5 557> -10 21G<818 818> 0 21G<1158 1158> 464 170<468 590> 878.5 191.5 1541 151<525 565.5>
VStem: 96 200<255 358 255 398> 502 155<1248 1257 1248 1284 1248 1336.5> 609 166<1451.5 1502> 776 202<380 444 444 444 609 634 192 666 192 736.5> 813 165
AnchorPoint: "Anchor-3" 1080 10 basechar 0
AnchorPoint: "Anchor-2" 600 0 basechar 0
AnchorPoint: "Anchor-0" 580 1060 basechar 0
LayerCount: 2
Fore
SplineSet
502 1248 m 1x9f40
 502 1284 l 2x9f20
 502 1389 609 1418 609 1485 c 0
 609 1519 584 1541 547 1541 c 0
 503 1541 454 1524 423 1498 c 1
 356 1617 l 1
 397 1662 481 1692 568 1692 c 0
 693 1692 775 1615 775 1499 c 0x9e80
 775 1372 657 1361 657 1257 c 2
 657 1248 l 1
 502 1248 l 1x9f40
464 -20 m 0
 231 -20 96 90 96 286 c 0
 96 510 266 634 566 634 c 0
 646 634 716 626 776 609 c 1
 776 666 l 2
 776 807 676 870 480 875 c 2
 226 882 l 1
 246 1070 l 1
 460 1067 l 2
 810 1062 978 914 978 634 c 2
 978 192 l 1
 1158 170 l 1
 1158 0 l 1x3f40
 818 -10 l 1x5f20
 808 224 l 1
 787 224 l 1
 773 61 650 -20 464 -20 c 0
498 150 m 0x9f40
 683 150 776 268 776 380 c 2
 776 444 l 1
 701 464 628 464 552 464 c 0
 384 464 296 410 296 306 c 0
 296 204 365 150 498 150 c 0x9f40
EndSplineSet
EndChar

StartChar: amacron
Encoding: 257 257 205
Width: 1200
GlyphClass: 2
Flags: MW
HStem: -20 170<431.5 557> -10 21G<818 818> 0 21G<1158 1158> 464 170<468 590> 878.5 191.5 1248 188<150 1010 150 1010>
VStem: 96 200<255 358 255 398> 776 202<380 444 444 444 609 634 192 666 192 736.5> 813 165
AnchorPoint: "Anchor-3" 1080 10 basechar 0
AnchorPoint: "Anchor-2" 600 0 basechar 0
AnchorPoint: "Anchor-0" 580 1436 basechar 0
LayerCount: 2
Fore
SplineSet
150 1248 m 1x9f
 150 1436 l 1
 1010 1436 l 1
 1010 1248 l 1
 150 1248 l 1x9f
464 -20 m 0
 231 -20 96 90 96 286 c 0
 96 510 266 634 566 634 c 0
 646 634 716 626 776 609 c 1
 776 666 l 2
 776 807 676 870 480 875 c 2
 226 882 l 1
 246 1070 l 1
 460 1067 l 2
 810 1062 978 914 978 634 c 2
 978 192 l 1
 1158 170 l 1
 1158 0 l 1x3f
 818 -10 l 1x5e80
 808 224 l 1
 787 224 l 1x9e80
 773 61 650 -20 464 -20 c 0
498 150 m 0
 683 150 776 268 776 380 c 2
 776 444 l 1
 701 464 628 464 552 464 c 0
 384 464 296 410 296 306 c 0
 296 204 365 150 498 150 c 0
EndSplineSet
EndChar

StartChar: aogonek
Encoding: 261 261 206
Width: 1200
GlyphClass: 2
Flags: MW
HStem: -424 168<1009 1033> -20 170<431.5 557> -8 21G<894 894> 0 21G<1158 1158> 464 170<468 590> 878.5 191.5
VStem: 96 200<255 358 255 398> 776 202<380 444 444 444 609 634 192 666 192 736.5> 780 150<-196 -167> 813 165 894 264<-35 170 -8 170>
AnchorPoint: "Anchor-3" 1080 10 basechar 0
AnchorPoint: "Anchor-2" 600 0 basechar 0
AnchorPoint: "Anchor-0" 580 1060 basechar 0
LayerCount: 2
Fore
SplineSet
464 -20 m 0xcf
 231 -20 96 90 96 286 c 0
 96 510 266 634 566 634 c 0
 646 634 716 626 776 609 c 1
 776 666 l 2
 776 807 676 870 480 875 c 2
 226 882 l 1
 246 1070 l 1
 460 1067 l 2
 810 1062 978 914 978 634 c 2
 978 192 l 1xcf
 1158 170 l 1
 1158 0 l 1x9e20
 1123 -1 l 1
 1000 -9 930 -69 930 -168 c 0
 930 -224 972 -256 1046 -256 c 0
 1069 -256 1098 -252 1128 -245 c 1
 1110 -415 l 1
 1079 -421 1046 -424 1020 -424 c 0
 867 -424 780 -347 780 -212 c 0x9e80
 780 -122 821 -57 894 -35 c 1
 894 -8 l 1xae20
 818 -10 l 1xae40
 808 224 l 1
 787 224 l 1xce40
 773 61 650 -20 464 -20 c 0xcf
498 150 m 0
 683 150 776 268 776 380 c 2
 776 444 l 1
 701 464 628 464 552 464 c 0
 384 464 296 410 296 306 c 0
 296 204 365 150 498 150 c 0
EndSplineSet
EndChar

StartChar: aring
Encoding: 229 229 207
Width: 1200
GlyphClass: 2
Flags: MW
HStem: -20 170<431.5 557> -10 21G<818 818> 0 21G<1158 1158> 464 170<468 590> 878.5 191.5 1198 116<549 611 549 655.5> 1515 115<549 611>
VStem: 96 200<255 358 255 398> 342 142<1382 1446 1382 1482.5> 676 142<1382 1446> 776 202<380 444 444 444 609 634 192 666 192 736.5> 813 165
AnchorPoint: "Anchor-3" 1080 10 basechar 0
AnchorPoint: "Anchor-2" 600 0 basechar 0
AnchorPoint: "Anchor-0" 580 1630 basechar 0
LayerCount: 2
Fore
SplineSet
580 1198 m 0x9fa0
 429 1198 342 1277 342 1414 c 0
 342 1551 429 1630 580 1630 c 0
 731 1630 818 1551 818 1414 c 0x9fc0
 818 1277 731 1198 580 1198 c 0x9fa0
580 1314 m 0x9fc0
 642 1314 676 1350 676 1414 c 0
 676 1478 642 1515 580 1515 c 0
 518 1515 484 1478 484 1414 c 0
 484 1350 518 1314 580 1314 c 0x9fc0
464 -20 m 0
 231 -20 96 90 96 286 c 0
 96 510 266 634 566 634 c 0
 646 634 716 626 776 609 c 1
 776 666 l 2
 776 807 676 870 480 875 c 2
 226 882 l 1
 246 1070 l 1
 460 1067 l 2
 810 1062 978 914 978 634 c 2
 978 192 l 1
 1158 170 l 1
 1158 0 l 1x3fa0
 818 -10 l 1x5f90
 808 224 l 1
 787 224 l 1x9f90
 773 61 650 -20 464 -20 c 0
498 150 m 0x9fa0
 683 150 776 268 776 380 c 2
 776 444 l 1
 701 464 628 464 552 464 c 0
 384 464 296 410 296 306 c 0
 296 204 365 150 498 150 c 0x9fa0
EndSplineSet
EndChar

StartChar: aringacute
Encoding: 507 507 208
Width: 1200
GlyphClass: 2
Flags: MW
HStem: -20 170<431.5 557> -10 21G<818 818> 0 21G<1158 1158> 464 170<468 590> 878.5 191.5 1198 116<549 611 549 655.5>
VStem: 96 200<255 358 255 398> 342 142<1382 1446 1382 1473.5> 676 142<1382 1446> 776 202<380 444 444 444 609 634 192 666 192 736.5> 813 165
AnchorPoint: "Anchor-3" 1080 10 basechar 0
AnchorPoint: "Anchor-2" 600 0 basechar 0
AnchorPoint: "Anchor-0" 580 1898 basechar 0
LayerCount: 2
Fore
SplineSet
580 1198 m 0x9f40
 429 1198 342 1277 342 1414 c 0
 342 1533 407 1608 523 1626 c 1
 649 1908 l 1
 861 1908 l 1
 709 1604 l 1
 779 1571 818 1505 818 1414 c 0x9f80
 818 1277 731 1198 580 1198 c 0x9f40
580 1314 m 0x9f80
 642 1314 676 1350 676 1414 c 0
 676 1478 642 1515 580 1515 c 0
 518 1515 484 1478 484 1414 c 0
 484 1350 518 1314 580 1314 c 0x9f80
464 -20 m 0
 231 -20 96 90 96 286 c 0
 96 510 266 634 566 634 c 0
 646 634 716 626 776 609 c 1
 776 666 l 2
 776 807 676 870 480 875 c 2
 226 882 l 1
 246 1070 l 1
 460 1067 l 2
 810 1062 978 914 978 634 c 2
 978 192 l 1
 1158 170 l 1
 1158 0 l 1x3f40
 818 -10 l 1x5f20
 808 224 l 1
 787 224 l 1x9f20
 773 61 650 -20 464 -20 c 0
498 150 m 0x9f40
 683 150 776 268 776 380 c 2
 776 444 l 1
 701 464 628 464 552 464 c 0
 384 464 296 410 296 306 c 0
 296 204 365 150 498 150 c 0x9f40
EndSplineSet
EndChar

StartChar: atilde
Encoding: 227 227 209
Width: 1200
GlyphClass: 2
Flags: MW
HStem: -20 170<431.5 557> -10 21G<818 818> 0 21G<1158 1158> 464 170<468 590> 878.5 191.5 1226 320<225 461.5 365 399> 1280 166<712.5 829.5> 1280 320<783 829.5> 1380 166<448.5 461.5 365 494>
VStem: 96 200<255 358 255 398> 225 174<1226 1296 1296 1306 1226 1379.5> 776 202<380 444 444 444 609 634 192 666 192 736.5> 783 172<1510 1520 1520 1600 1440 1600> 813 165
AnchorPoint: "Anchor-3" 1080 10 basechar 0
AnchorPoint: "Anchor-2" 600 0 basechar 0
AnchorPoint: "Anchor-0" 580 1060 basechar 0
LayerCount: 2
Fore
SplineSet
225 1226 m 1x9c30
 225 1296 l 2
 225 1463 295 1546 435 1546 c 0x98b0
 488 1546 532 1527 583 1502 c 0
 649 1469 696 1446 729 1446 c 0
 765 1446 783 1467 783 1510 c 2x9a28
 783 1600 l 1
 955 1600 l 1x9928
 955 1520 l 2
 955 1360 892 1280 767 1280 c 0x9a28
 729 1280 674 1295 604 1330 c 0
 560 1352 515 1380 473 1380 c 0
 424 1380 399 1356 399 1306 c 2x98b0
 399 1226 l 1
 225 1226 l 1x9c30
464 -20 m 0x9c44
 231 -20 96 90 96 286 c 0
 96 510 266 634 566 634 c 0
 646 634 716 626 776 609 c 1
 776 666 l 2
 776 807 676 870 480 875 c 2
 226 882 l 1
 246 1070 l 1
 460 1067 l 2
 810 1062 978 914 978 634 c 2
 978 192 l 1
 1158 170 l 1
 1158 0 l 1x3c50
 818 -10 l 1x5c24
 808 224 l 1
 787 224 l 1
 773 61 650 -20 464 -20 c 0x9c44
498 150 m 0x9c50
 683 150 776 268 776 380 c 2
 776 444 l 1
 701 464 628 464 552 464 c 0
 384 464 296 410 296 306 c 0
 296 204 365 150 498 150 c 0x9c50
EndSplineSet
EndChar

StartChar: ae
Encoding: 230 230 210
Width: 1200
GlyphClass: 2
Flags: MW
HStem: -20 170<308 386.5> -20 176<911 990.5> 436 152<710 993 704 1169 710 710> 474 160<331 413.5> 886.5 183.5 894 186<811.5 898.5>
VStem: 21 190<256.5 359 256.5 396.5> 521 183<380 588 454 588 588 666 588 732> 993 182<588 695.5>
AnchorPoint: "Anchor-2" 600 0 basechar 0
AnchorPoint: "Anchor-0" 600 1060 basechar 0
LayerCount: 2
Fore
SplineSet
299 -20 m 0xa780
 122 -20 21 91 21 286 c 0
 21 507 156 634 391 634 c 0
 438 634 482 627 521 613 c 1
 521 666 l 2
 521 798 412 879 225 885 c 2
 131 888 l 1
 151 1070 l 1
 245 1067 l 2x9b80
 418 1061 544 996 613 881 c 1
 665 1010 753 1080 870 1080 c 0
 1064 1080 1175 895 1175 572 c 0
 1175 526 1173 476 1169 436 c 1
 710 436 l 1
 737 257 835 156 987 156 c 0
 1024 156 1068 161 1107 169 c 1x6780
 1133 -2 l 1
 1080 -13 1018 -20 963 -20 c 0
 798 -20 678 62 613 214 c 1
 588 214 l 1
 560 65 474 -20 299 -20 c 0xa780
847 894 m 0
 753 894 709 802 704 588 c 1
 993 588 l 1
 993 803 950 894 847 894 c 0
353 150 m 0
 459 150 521 234 521 380 c 2
 521 454 l 1
 486 467 440 474 387 474 c 0x9780
 275 474 211 412 211 306 c 0
 211 207 263 150 353 150 c 0
EndSplineSet
EndChar

StartChar: aeacute
Encoding: 509 509 211
Width: 1200
GlyphClass: 2
Flags: MW
HStem: -20 170<308 386.5> -20 176<911 990.5> 436 152<710 993 704 1169 710 710> 474 160<331 413.5> 886.5 183.5 894 186<811.5 898.5> 1248 380<499 881 669 691>
VStem: 21 190<256.5 359 256.5 396.5> 521 183<380 588 454 588 588 666 588 732> 993 182<588 695.5>
AnchorPoint: "Anchor-2" 600 0 basechar 0
AnchorPoint: "Anchor-0" 600 1618 basechar 0
LayerCount: 2
Fore
SplineSet
499 1248 m 1xa7c0
 669 1628 l 1
 881 1628 l 1
 691 1248 l 1
 499 1248 l 1xa7c0
299 -20 m 0
 122 -20 21 91 21 286 c 0
 21 507 156 634 391 634 c 0
 438 634 482 627 521 613 c 1
 521 666 l 2
 521 798 412 879 225 885 c 2
 131 888 l 1
 151 1070 l 1
 245 1067 l 2x9bc0
 418 1061 544 996 613 881 c 1
 665 1010 753 1080 870 1080 c 0
 1064 1080 1175 895 1175 572 c 0
 1175 526 1173 476 1169 436 c 1
 710 436 l 1
 737 257 835 156 987 156 c 0
 1024 156 1068 161 1107 169 c 1x67c0
 1133 -2 l 1
 1080 -13 1018 -20 963 -20 c 0
 798 -20 678 62 613 214 c 1
 588 214 l 1
 560 65 474 -20 299 -20 c 0
847 894 m 0
 753 894 709 802 704 588 c 1
 993 588 l 1
 993 803 950 894 847 894 c 0
353 150 m 0
 459 150 521 234 521 380 c 2
 521 454 l 1
 486 467 440 474 387 474 c 0x97c0
 275 474 211 412 211 306 c 0
 211 207 263 150 353 150 c 0
EndSplineSet
EndChar

StartChar: b
Encoding: 98 98 212
Width: 1200
GlyphClass: 2
Flags: MW
HStem: -20 180<533.5 669 533.5 707> 0 21G<168 168> 900 180<578 728> 1480 20G<168 380 380 380>
VStem: 168 212<166 596 868 1500> 894 210<419 655>
AnchorPoint: "Anchor-2" 640 0 basechar 0
AnchorPoint: "Anchor-0" 280 1568 basechar 0
LayerCount: 2
Fore
SplineSet
168 0 m 1x7c
 168 1500 l 1
 380 1500 l 1
 380 868 l 1
 400 868 l 1
 410 1010 496 1080 660 1080 c 0
 942 1080 1104 884 1104 540 c 0
 1104 184 892 -20 522 -20 c 0xbc
 402 -20 288 -12 168 0 c 1x7c
380 596 m 2
 380 166 l 1
 440 160 503 160 564 160 c 0
 774 160 894 298 894 540 c 0
 894 770 806 900 650 900 c 0
 470 900 380 800 380 596 c 2
EndSplineSet
EndChar

StartChar: c
Encoding: 99 99 213
Width: 1200
GlyphClass: 2
Flags: MW
HStem: -20 190<594 741> 890 190<568 721.5>
VStem: 136 220<421 653 421 705>
AnchorPoint: "Anchor-2" 650 0 basechar 0
AnchorPoint: "Anchor-0" 650 1060 basechar 0
LayerCount: 2
Fore
SplineSet
682 -20 m 0
 334 -20 136 176 136 532 c 0
 136 878 329 1080 674 1080 c 0
 880 1080 1034 1000 1097 860 c 1
 934 737 l 1
 874 834 777 890 666 890 c 0
 470 890 356 764 356 542 c 0
 356 300 482 170 706 170 c 0
 812 170 918 180 1018 196 c 1
 1042 10 l 1
 926 -14 800 -20 682 -20 c 0
EndSplineSet
EndChar

StartChar: cacute
Encoding: 263 263 214
Width: 1200
GlyphClass: 2
Flags: MW
HStem: -20 190<594 741> 890 190<568 721.5> 1248 380<549 931 719 741>
VStem: 136 220<421 653 421 705>
AnchorPoint: "Anchor-2" 650 0 basechar 0
AnchorPoint: "Anchor-0" 650 1618 basechar 0
LayerCount: 2
Fore
SplineSet
549 1248 m 1
 719 1628 l 1
 931 1628 l 1
 741 1248 l 1
 549 1248 l 1
682 -20 m 0
 334 -20 136 176 136 532 c 0
 136 878 329 1080 674 1080 c 0
 880 1080 1034 1000 1097 860 c 1
 934 737 l 1
 874 834 777 890 666 890 c 0
 470 890 356 764 356 542 c 0
 356 300 482 170 706 170 c 0
 812 170 918 180 1018 196 c 1
 1042 10 l 1
 926 -14 800 -20 682 -20 c 0
EndSplineSet
Substitution2: "'locl' Localized Forms in Latin lookup 360 subtable" cacute.loclPLK
Substitution2: "'aalt' Access All Alternates lookup 0 subtable" cacute.loclPLK
EndChar

StartChar: ccaron
Encoding: 269 269 215
Width: 1200
GlyphClass: 2
Flags: MW
HStem: -20 190<594 741> 890 190<568 721.5> 1248 380<324 564 324 736>
VStem: 136 220<421 653 421 705>
AnchorPoint: "Anchor-2" 650 0 basechar 0
AnchorPoint: "Anchor-0" 650 1628 basechar 0
LayerCount: 2
Fore
SplineSet
564 1248 m 1
 324 1628 l 1
 536 1628 l 1
 650 1402 l 1
 764 1628 l 1
 976 1628 l 1
 736 1248 l 1
 564 1248 l 1
682 -20 m 0
 334 -20 136 176 136 532 c 0
 136 878 329 1080 674 1080 c 0
 880 1080 1034 1000 1097 860 c 1
 934 737 l 1
 874 834 777 890 666 890 c 0
 470 890 356 764 356 542 c 0
 356 300 482 170 706 170 c 0
 812 170 918 180 1018 196 c 1
 1042 10 l 1
 926 -14 800 -20 682 -20 c 0
EndSplineSet
EndChar

StartChar: ccedilla
Encoding: 231 231 216
Width: 1200
GlyphClass: 2
Flags: MW
HStem: -480 150<489 552 489 615.5> -20 190<716 716> -14 21G<577 577> 890 190<568 721.5>
VStem: 136 220<421 653 421 705> 677 190<-282 -235>
AnchorPoint: "Anchor-2" 650 0 basechar 0
AnchorPoint: "Anchor-0" 650 1060 basechar 0
LayerCount: 2
Fore
SplineSet
489 -480 m 1xdc
 489 -330 l 1
 615 -330 677 -306 677 -258 c 0
 677 -212 624 -190 515 -190 c 1
 577 -14 l 1xbc
 294 23 136 214 136 532 c 0
 136 878 329 1080 674 1080 c 0
 880 1080 1034 1000 1097 860 c 1
 934 737 l 1
 874 834 777 890 666 890 c 0
 470 890 356 764 356 542 c 0
 356 300 482 170 706 170 c 0
 812 170 918 180 1018 196 c 1
 1042 10 l 1
 937 -12 824 -19 716 -20 c 1
 695 -100 l 1
 810 -124 867 -179 867 -267 c 0
 867 -409 742 -480 489 -480 c 1xdc
EndSplineSet
EndChar

StartChar: ccircumflex
Encoding: 265 265 217
Width: 1200
GlyphClass: 2
Flags: MW
HStem: -20 190<594 741> 890 190<568 721.5> 1248 380<324 736 324 736 564 764 564 976>
VStem: 136 220<421 653 421 705>
AnchorPoint: "Anchor-2" 650 0 basechar 0
AnchorPoint: "Anchor-0" 650 1518 basechar 0
LayerCount: 2
Fore
SplineSet
324 1248 m 1
 564 1628 l 1
 736 1628 l 1
 976 1248 l 1
 764 1248 l 1
 650 1474 l 1
 536 1248 l 1
 324 1248 l 1
682 -20 m 0
 334 -20 136 176 136 532 c 0
 136 878 329 1080 674 1080 c 0
 880 1080 1034 1000 1097 860 c 1
 934 737 l 1
 874 834 777 890 666 890 c 0
 470 890 356 764 356 542 c 0
 356 300 482 170 706 170 c 0
 812 170 918 180 1018 196 c 1
 1042 10 l 1
 926 -14 800 -20 682 -20 c 0
EndSplineSet
EndChar

StartChar: cdotaccent
Encoding: 267 267 218
Width: 1200
GlyphClass: 2
Flags: MW
HStem: -20 190<594 741> 890 190<568 721.5> 1238 268<611 685>
VStem: 136 220<421 653 421 705> 514 268<1335 1409.5>
AnchorPoint: "Anchor-2" 650 0 basechar 0
AnchorPoint: "Anchor-0" 648 1506 basechar 0
LayerCount: 2
Fore
SplineSet
648 1238 m 0
 574 1238 514 1298 514 1372 c 0
 514 1447 574 1506 648 1506 c 0
 722 1506 782 1447 782 1372 c 0
 782 1298 722 1238 648 1238 c 0
682 -20 m 0
 334 -20 136 176 136 532 c 0
 136 878 329 1080 674 1080 c 0
 880 1080 1034 1000 1097 860 c 1
 934 737 l 1
 874 834 777 890 666 890 c 0
 470 890 356 764 356 542 c 0
 356 300 482 170 706 170 c 0
 812 170 918 180 1018 196 c 1
 1042 10 l 1
 926 -14 800 -20 682 -20 c 0
EndSplineSet
EndChar

StartChar: d
Encoding: 100 100 219
Width: 1200
GlyphClass: 2
Flags: MW
HStem: -20 180<471 598> -10 21G<842 842> 0 21G<1032 1032> 900 180<472 605 385 640> 1480 20G<820 1032 1032 1032>
VStem: 96 210<401 641 401 698> 820 212<340 596 596 698 868 1500 0 1500>
AnchorPoint: "Anchor-2" 540 0 basechar 0
AnchorPoint: "Anchor-1" 1180 1060 basechar 0
AnchorPoint: "Anchor-0" 926 1568 basechar 0
LayerCount: 2
Fore
SplineSet
518 -20 m 0x9e
 250 -20 96 172 96 520 c 0
 96 876 250 1080 520 1080 c 0
 690 1080 782 1010 800 868 c 1
 820 868 l 1
 820 1500 l 1
 1032 1500 l 1
 1032 0 l 1x3e
 842 -10 l 1x5e
 824 164 l 1
 800 164 l 1
 786 42 678 -20 518 -20 c 0x9e
306 520 m 0
 306 282 390 160 552 160 c 0
 732 160 820 220 820 340 c 2
 820 596 l 2
 820 800 730 900 550 900 c 0
 394 900 306 762 306 520 c 0
EndSplineSet
EndChar

StartChar: eth
Encoding: 240 240 220
Width: 1200
Flags: MW
HStem: -20 184<502 675 502 744> 736 184<511 592 382 681> 1496 20G<388 388>
VStem: 118 214<379.5 562 379.5 620> 861 223<352 708> 862 222<352 526 526 534.5>
LayerCount: 2
Fore
SplineSet
584 -20 m 0xf4
 286 -20 118 163 118 480 c 0
 118 760 258 920 506 920 c 0
 678 920 804 843 844 708 c 1
 861 708 l 1xf8
 856 881 818 1020 742 1132 c 1
 278 997 l 1
 238 1172 l 1
 602 1278 l 1
 530 1332 443 1378 338 1416 c 1
 388 1516 l 1
 545 1468 674 1407 775 1328 c 1
 1064 1412 l 1
 1104 1237 l 1
 918 1183 l 1
 1032 1030 1084 831 1084 574 c 2
 1084 526 l 2
 1084 178 904 -20 584 -20 c 0xf4
582 164 m 0
 768 164 862 256 862 440 c 0
 862 629 766 736 596 736 c 0
 426 736 332 644 332 480 c 0
 332 279 422 164 582 164 c 0
EndSplineSet
EndChar

StartChar: dcaron
Encoding: 271 271 221
Width: 1200
Flags: MW
HStem: -20 180<476.5 605> -10 21G<842 842> 0 21G<1032 1032> 900 180<475 612.5 385 646.5> 1188 312<820 1122 820 1294> 1188 380<1122 1384 1172 1294> 1480 20G<820 1032 1032 1032>
VStem: 96 210<399.5 647 399.5 707> 820 212<340 596 596 698 868 1500 0 1500>
LayerCount: 2
Fore
SplineSet
1122 1188 m 1x9980
 1172 1568 l 1
 1384 1568 l 1x9580
 1294 1188 l 1
 1122 1188 l 1x9980
528 -20 m 0
 239 -20 96 159 96 520 c 0
 96 894 240 1080 530 1080 c 0
 695 1080 782 1010 800 868 c 1
 820 868 l 1
 820 1500 l 1
 1032 1500 l 1
 1032 0 l 1x3380
 842 -10 l 1x5380
 824 164 l 1
 800 164 l 1
 786 42 682 -20 528 -20 c 0
306 520 m 0
 306 279 391 160 562 160 c 0
 735 160 820 220 820 340 c 2
 820 596 l 2
 820 800 733 900 560 900 c 0x9380
 390 900 306 774 306 520 c 0
EndSplineSet
Substitution2: "Single Substitution lookup 350 subtable" dcaron.alt
Substitution2: "'aalt' Access All Alternates lookup 0 subtable" dcaron.alt
EndChar

StartChar: dcroat
Encoding: 273 273 222
Width: 1200
GlyphClass: 2
Flags: MW
HStem: -20 180<471 598> -10 21G<842 842> 0 21G<1032 1032> 900 180<472 605 385 640> 1218 174<462 820 462 820 1032 1138> 1218 282<462 1032 820 1032 820 1138>
VStem: 96 210<401 641 401 698> 820 212<340 596 596 698 868 1218 0 1218 1392 1500>
AnchorPoint: "Anchor-2" 540 0 basechar 0
AnchorPoint: "Anchor-1" 1180 1060 basechar 0
AnchorPoint: "Anchor-0" 926 1568 basechar 0
LayerCount: 2
Fore
SplineSet
518 -20 m 0x97
 250 -20 96 172 96 520 c 0
 96 876 250 1080 520 1080 c 0
 690 1080 782 1010 800 868 c 1
 820 868 l 1
 820 1218 l 1
 462 1218 l 1x97
 462 1392 l 1
 820 1392 l 1x9b
 820 1500 l 1
 1032 1500 l 1x97
 1032 1392 l 1
 1138 1392 l 1x9b
 1138 1218 l 1
 1032 1218 l 1
 1032 0 l 1x37
 842 -10 l 1x57
 824 164 l 1
 800 164 l 1
 786 42 678 -20 518 -20 c 0x97
306 520 m 0
 306 282 390 160 552 160 c 0
 732 160 820 220 820 340 c 2
 820 596 l 2
 820 800 730 900 550 900 c 0
 394 900 306 762 306 520 c 0
EndSplineSet
EndChar

StartChar: e
Encoding: 101 101 223
Width: 1200
GlyphClass: 2
Flags: MW
HStem: -20 186<619.5 742> 436 162<342 872 334 1058 342 342> 894 186<534 696>
VStem: 872 192<598 693>
AnchorPoint: "Anchor-3" 1080 10 basechar 0
AnchorPoint: "Anchor-2" 630 0 basechar 0
AnchorPoint: "Anchor-0" 620 1060 basechar 0
LayerCount: 2
Fore
SplineSet
702 -20 m 0
 340 -20 136 176 136 532 c 0
 136 878 310 1080 614 1080 c 0
 900 1080 1064 902 1064 572 c 0
 1064 522 1062 478 1058 436 c 1
 342 436 l 1
 379 259 513 166 726 166 c 0
 814 166 898 176 986 194 c 1
 1012 8 l 1
 886 -16 782 -20 702 -20 c 0
616 894 m 0
 452 894 351 787 334 598 c 1
 872 598 l 1
 872 788 776 894 616 894 c 0
EndSplineSet
EndChar

StartChar: eacute
Encoding: 233 233 224
Width: 1200
GlyphClass: 2
Flags: MW
HStem: -20 186<619.5 742> 436 162<342 872 334 1058 342 342> 894 186<534 696> 1248 380<519 901 689 711>
VStem: 872 192<598 693>
AnchorPoint: "Anchor-3" 1080 10 basechar 0
AnchorPoint: "Anchor-2" 630 0 basechar 0
AnchorPoint: "Anchor-0" 620 1618 basechar 0
LayerCount: 2
Fore
SplineSet
519 1248 m 1
 689 1628 l 1
 901 1628 l 1
 711 1248 l 1
 519 1248 l 1
702 -20 m 0
 340 -20 136 176 136 532 c 0
 136 878 310 1080 614 1080 c 0
 900 1080 1064 902 1064 572 c 0
 1064 522 1062 478 1058 436 c 1
 342 436 l 1
 379 259 513 166 726 166 c 0
 814 166 898 176 986 194 c 1
 1012 8 l 1
 886 -16 782 -20 702 -20 c 0
616 894 m 0
 452 894 351 787 334 598 c 1
 872 598 l 1
 872 788 776 894 616 894 c 0
EndSplineSet
EndChar

StartChar: ebreve
Encoding: 277 277 225
Width: 1200
GlyphClass: 2
Flags: MW
HStem: -20 186<619.5 742> 436 162<342 872 334 1058 342 342> 894 186<534 696> 1238 136<569 671 569 726>
VStem: 286 175<1560 1603 1500.5 1603> 779 175<1560 1603 1457.5 1603> 872 192<598 693>
AnchorPoint: "Anchor-3" 1080 10 basechar 0
AnchorPoint: "Anchor-2" 630 0 basechar 0
AnchorPoint: "Anchor-0" 620 1453 basechar 0
LayerCount: 2
Fore
SplineSet
620 1238 m 0xfc
 408 1238 286 1355 286 1560 c 2
 286 1603 l 1
 461 1603 l 1
 461 1560 l 2
 461 1441 518 1374 620 1374 c 0
 722 1374 779 1441 779 1560 c 2
 779 1603 l 1
 954 1603 l 1
 954 1560 l 2
 954 1355 832 1238 620 1238 c 0xfc
702 -20 m 0
 340 -20 136 176 136 532 c 0
 136 878 310 1080 614 1080 c 0
 900 1080 1064 902 1064 572 c 0
 1064 522 1062 478 1058 436 c 1xfa
 342 436 l 1
 379 259 513 166 726 166 c 0
 814 166 898 176 986 194 c 1
 1012 8 l 1
 886 -16 782 -20 702 -20 c 0
616 894 m 0
 452 894 351 787 334 598 c 1
 872 598 l 1xfa
 872 788 776 894 616 894 c 0
EndSplineSet
EndChar

StartChar: ecaron
Encoding: 283 283 226
Width: 1200
GlyphClass: 2
Flags: MW
HStem: -20 186<619.5 742> 436 162<342 872 334 1058 342 342> 894 186<534 696> 1248 380<294 534 294 706>
VStem: 872 192<598 693>
AnchorPoint: "Anchor-3" 1080 10 basechar 0
AnchorPoint: "Anchor-2" 630 0 basechar 0
AnchorPoint: "Anchor-0" 620 1628 basechar 0
LayerCount: 2
Fore
SplineSet
534 1248 m 1
 294 1628 l 1
 506 1628 l 1
 620 1402 l 1
 734 1628 l 1
 946 1628 l 1
 706 1248 l 1
 534 1248 l 1
702 -20 m 0
 340 -20 136 176 136 532 c 0
 136 878 310 1080 614 1080 c 0
 900 1080 1064 902 1064 572 c 0
 1064 522 1062 478 1058 436 c 1
 342 436 l 1
 379 259 513 166 726 166 c 0
 814 166 898 176 986 194 c 1
 1012 8 l 1
 886 -16 782 -20 702 -20 c 0
616 894 m 0
 452 894 351 787 334 598 c 1
 872 598 l 1
 872 788 776 894 616 894 c 0
EndSplineSet
EndChar

StartChar: ecircumflex
Encoding: 234 234 227
Width: 1200
GlyphClass: 2
Flags: MW
HStem: -20 186<619.5 742> 436 162<342 872 334 1058 342 342> 894 186<534 696> 1248 380<294 706 294 706 534 734 534 946>
VStem: 872 192<598 693>
AnchorPoint: "Anchor-3" 1080 10 basechar 0
AnchorPoint: "Anchor-2" 630 0 basechar 0
AnchorPoint: "Anchor-0" 620 1518 basechar 0
LayerCount: 2
Fore
SplineSet
294 1248 m 1
 534 1628 l 1
 706 1628 l 1
 946 1248 l 1
 734 1248 l 1
 620 1474 l 1
 506 1248 l 1
 294 1248 l 1
702 -20 m 0
 340 -20 136 176 136 532 c 0
 136 878 310 1080 614 1080 c 0
 900 1080 1064 902 1064 572 c 0
 1064 522 1062 478 1058 436 c 1
 342 436 l 1
 379 259 513 166 726 166 c 0
 814 166 898 176 986 194 c 1
 1012 8 l 1
 886 -16 782 -20 702 -20 c 0
616 894 m 0
 452 894 351 787 334 598 c 1
 872 598 l 1
 872 788 776 894 616 894 c 0
EndSplineSet
EndChar

StartChar: uni1EBF
Encoding: 7871 7871 228
Width: 1200
GlyphClass: 2
Flags: MW
HStem: -20 186<619.5 742> 436 162<342 872 334 1058 342 342> 894 186<534 696> 1248 380<294 706 294 706 534 734 534 946> 1588 380<876 1258 1046 1068>
VStem: 872 192<598 693>
AnchorPoint: "Anchor-3" 1080 10 basechar 0
AnchorPoint: "Anchor-2" 630 0 basechar 0
AnchorPoint: "Anchor-0" 977 1958 basechar 0
LayerCount: 2
Fore
SplineSet
876 1588 m 1xec
 1046 1968 l 1
 1258 1968 l 1
 1068 1588 l 1
 876 1588 l 1xec
294 1248 m 1
 534 1628 l 1
 706 1628 l 1
 946 1248 l 1
 734 1248 l 1xf4
 620 1474 l 1
 506 1248 l 1
 294 1248 l 1
702 -20 m 0
 340 -20 136 176 136 532 c 0
 136 878 310 1080 614 1080 c 0
 900 1080 1064 902 1064 572 c 0
 1064 522 1062 478 1058 436 c 1
 342 436 l 1
 379 259 513 166 726 166 c 0
 814 166 898 176 986 194 c 1
 1012 8 l 1
 886 -16 782 -20 702 -20 c 0
616 894 m 0
 452 894 351 787 334 598 c 1
 872 598 l 1
 872 788 776 894 616 894 c 0
EndSplineSet
EndChar

StartChar: uni1EC7
Encoding: 7879 7879 229
Width: 1200
GlyphClass: 2
Flags: MW
HStem: -420 268<593 667> -20 186<619.5 742> 436 162<342 872 334 1058 342 342> 894 186<534 696> 1248 380<294 706 294 706 534 734 534 946>
VStem: 496 10 872 192<598 693>
AnchorPoint: "Anchor-3" 1080 10 basechar 0
AnchorPoint: "Anchor-2" 630 0 basechar 0
AnchorPoint: "Anchor-0" 620 1518 basechar 0
LayerCount: 2
Fore
SplineSet
294 1248 m 1
 534 1628 l 1
 706 1628 l 1
 946 1248 l 1
 734 1248 l 1
 620 1474 l 1
 506 1248 l 1
 294 1248 l 1
702 -20 m 0
 340 -20 136 176 136 532 c 0
 136 878 310 1080 614 1080 c 0
 900 1080 1064 902 1064 572 c 0
 1064 522 1062 478 1058 436 c 1
 342 436 l 1
 379 259 513 166 726 166 c 0
 814 166 898 176 986 194 c 1
 1012 8 l 1
 886 -16 782 -20 702 -20 c 0
616 894 m 0
 452 894 351 787 334 598 c 1
 872 598 l 1
 872 788 776 894 616 894 c 0
630 -420 m 0
 556 -420 496 -360 496 -286 c 0
 496 -211 556 -152 630 -152 c 0
 704 -152 764 -211 764 -286 c 0
 764 -360 704 -420 630 -420 c 0
EndSplineSet
EndChar

StartChar: uni1EC1
Encoding: 7873 7873 230
Width: 1200
GlyphClass: 2
Flags: MW
HStem: -20 186<619.5 742> 436 162<342 872 334 1058 342 342> 894 186<534 696> 1248 380<294 706 294 706 534 734 534 946> 1588 380<900 900 900 922 710 1092>
VStem: 872 192<598 693>
AnchorPoint: "Anchor-3" 1080 10 basechar 0
AnchorPoint: "Anchor-2" 630 0 basechar 0
AnchorPoint: "Anchor-0" 976 1968 basechar 0
LayerCount: 2
Fore
SplineSet
900 1588 m 1xec
 710 1968 l 1
 922 1968 l 1
 1092 1588 l 1
 900 1588 l 1xec
294 1248 m 1
 534 1628 l 1
 706 1628 l 1
 946 1248 l 1
 734 1248 l 1xf4
 620 1474 l 1
 506 1248 l 1
 294 1248 l 1
702 -20 m 0
 340 -20 136 176 136 532 c 0
 136 878 310 1080 614 1080 c 0
 900 1080 1064 902 1064 572 c 0
 1064 522 1062 478 1058 436 c 1
 342 436 l 1
 379 259 513 166 726 166 c 0
 814 166 898 176 986 194 c 1
 1012 8 l 1
 886 -16 782 -20 702 -20 c 0
616 894 m 0
 452 894 351 787 334 598 c 1
 872 598 l 1
 872 788 776 894 616 894 c 0
EndSplineSet
EndChar

